/* XPM */
static char *_3378eb9a1ca4cbcd1a36c822af4befd7Ej8YVyjWEZX5hOE[] = {
/* columns rows colors chars-per-pixel */
"64 64 208 2 ",
"   c #4C0A00",
".  c #541300",
"X  c #5C1C00",
"o  c #5A1803",
"O  c #501206",
"+  c #601E00",
"@  c #5F2103",
"#  c #5F250D",
"$  c #5F2E11",
"%  c #632102",
"&  c #6A2405",
"*  c #65250A",
"=  c #6A250B",
"-  c #6A2A0B",
";  c #692908",
":  c #752C0D",
">  c #792B07",
",  c #7D310F",
"<  c #6A2E11",
"1  c #6C3315",
"2  c #68361A",
"3  c #76371B",
"4  c #763D2D",
"5  c #7D441F",
"6  c #7B432A",
"7  c #872A00",
"8  c #892D00",
"9  c #872B06",
"0  c #8B3206",
"q  c #8D350C",
"w  c #8F390F",
"e  c #91360D",
"r  c #90380D",
"t  c #8B3918",
"y  c #873513",
"u  c #923B14",
"i  c #913D1B",
"p  c #9B3F16",
"a  c #88401F",
"s  c #95421C",
"d  c #974827",
"f  c #8A5A2A",
"g  c #984C36",
"h  c #924C2D",
"j  c #A74921",
"k  c #90652F",
"l  c #986835",
"z  c #A87838",
"x  c #9C5543",
"c  c #A15B4E",
"v  c #AA6D51",
"b  c #9C6E74",
"n  c #AC7169",
"m  c #AD7474",
"M  c #A76861",
"N  c #B0853F",
"B  c #BB9348",
"V  c #AF8550",
"C  c #D2AC56",
"Z  c #DEBB5C",
"A  c #D8B55A",
"S  c #CEA652",
"D  c #E1B95C",
"F  c #DFBE64",
"G  c #DBBC6A",
"H  c #D7B362",
"J  c #DABD7C",
"K  c #F6CE5E",
"L  c #DFC16A",
"P  c #E0C066",
"I  c #E3C36A",
"U  c #EBCA6D",
"Y  c #ECC965",
"T  c #F6CF62",
"R  c #F0CE6D",
"E  c #F7D166",
"W  c #F8D266",
"Q  c #F7D26A",
"!  c #F9D46A",
"~  c #FEDC6C",
"^  c #FFD965",
"/  c #E8CB76",
"(  c #ECCF7A",
")  c #E5C672",
"_  c #F1CF73",
"`  c #EDD27E",
"'  c #F9D672",
"]  c #FFDF72",
"[  c #FADA7D",
"{  c #FFE16F",
"}  c #FFE671",
"|  c #AB7B84",
" . c #997CBD",
".. c #9D7FC5",
"X. c #B58898",
"o. c #9E82BF",
"O. c #BD97B0",
"+. c #C58F95",
"@. c #DBBE8C",
"#. c #D7BC83",
"$. c #D7BC93",
"%. c #C19FBE",
"&. c #C193A5",
"*. c #C1A3AF",
"=. c #C8B4AB",
"-. c #D6BBAB",
";. c #C1A1BF",
":. c #C5AEB5",
">. c #CEB8BA",
",. c #D9BFBB",
"<. c #D7BEBF",
"1. c #D7C188",
"2. c #EFD381",
"3. c #F1D684",
"4. c #FBDD84",
"5. c #F6DD8D",
"6. c #FBDF89",
"7. c #F3D887",
"8. c #F8DF92",
"9. c #E7C683",
"0. c #FCE18B",
"q. c #FCE494",
"w. c #FEE79B",
"e. c #FFE99D",
"r. c #FEED94",
"t. c #FFF59F",
"y. c #DDC2A5",
"u. c #DEC6BA",
"i. c #ECD5A8",
"p. c #E5CFBF",
"a. c #F3DAAA",
"s. c #FFEBA3",
"d. c #FFEDAC",
"f. c #FFF2A5",
"g. c #FFFFB5",
"h. c #9F81C6",
"j. c #9E80C9",
"k. c #A285C5",
"l. c #A589C5",
"z. c #A284CB",
"x. c #A689CC",
"c. c #AA8ECB",
"v. c #AE92CD",
"b. c #B69BCD",
"n. c #B89ECE",
"m. c #B195CF",
"M. c #A485D1",
"N. c #A789D1",
"B. c #AA8DD2",
"V. c #AE91D2",
"C. c #B195D4",
"Z. c #B69AD5",
"A. c #B99ED1",
"S. c #B294D9",
"D. c #B699DC",
"F. c #BA9EDD",
"G. c #BDA3D3",
"H. c #BEA1E1",
"J. c #C7AACA",
"K. c #D5BCC5",
"L. c #D4BBCB",
"P. c #C1A7D7",
"I. c #C1A6DC",
"U. c #C5ABDB",
"Y. c #C9AFDF",
"T. c #C6AFD0",
"R. c #CCB3D9",
"E. c #D4BAD8",
"W. c #D0ABC8",
"Q. c #C2A6E3",
"!. c #C5A9E4",
"~. c #C9ADE3",
"^. c #C9ACEA",
"/. c #CDB3E3",
"(. c #CEB2EC",
"). c #D1B7E6",
"_. c #D1B6ED",
"`. c #D5BBED",
"'. c #D9BFEE",
"]. c #D9BDE3",
"[. c #CFB2F2",
"{. c #D1B5F4",
"}. c #D6BAF3",
"|. c #D9BEF4",
" X c #DABEFB",
".X c #D6B9FB",
"XX c #DCC4D5",
"oX c #DDC3D8",
"OX c #DAC2CD",
"+X c #DDC4EE",
"@X c #DEC3E4",
"#X c #DDC2F6",
"$X c #DEC4F4",
"%X c #DFC5F4",
"&X c #DFC5F5",
"*X c #DFC4F7",
"=X c #DEC4F3",
"-X c #DDC2F9",
";X c #DEC2FA",
":X c #E0C6F3",
">X c #E0C7F1",
",X c #E0C6F5",
"<X c #E0C6F6",
"1X c #E0C6F5",
"2X c #E2C8F5",
"3X c #E0C5FC",
"4X c #E3C9FA",
"5X c #E0C5E7",
/* pixels */
"[.{..X[.(.(.(./.).`.+X:X:X:X=X:X=X=X$X=X&X=X=X=X=X=X=X=X=X=X$X=X$X=X=X=X=X=X&X=X=X=X=X=X=X$X$X=X$X$X$X&X=X+X+X+X+X=X#X(.H.C.S.S.",
"[.{..X[.(.(.`.`.).'.=X:X:X=X:X=X$X=X=X=X=X=X$X=X&X=X$X=X=X=X=X=X$X=X$X=X$X=X=X=X=X=X$X=X=X=X=X=X#X#X=X&X+X+X+X+X=X=X#X}.^.D.S.S.",
"[..X[.[.(.(._.`.+X'.=X:X:X:X+X=X=X=X&X=X=X=X=X=X&X=X=X=X&X=X$X=X=X&X=X=X$X=X=X=X=X&X=X=X&X=X=X=X#X#X=X=X+X+X+X+X+X&X&X#X^.G.V.V.",
"[.[.[.[.(._._.'.=X=X=X2X:X:X=X+X=X=X=X=X=X$X$X=X=X=X=X$X=X=X=X=X=X=X=X=X=X=X=X$X=X=X$X$X=X=X=X$X#X#X=X=X+X+X+X+X+X=X*X-X[.H.S.V.",
"[.[.(.[.(.(.}.=X<X:X:X=X:X:X=X=X=X$X=X$X=X=X=X=X=X=X=X=X=X$X=X$X=X$X=X$X=X=X=X=X=X=X$X=X=X&X=X$X=X=X#X+X+X#X+X+X=X&X*X;X.XH.D.V.",
"[.[.[.[.(._.#X&X2X<X=X=X:X=X=X+X=X=X=X=X=X&X=X$X=X=X=X=X=X=X=X=X=X=X=X=X&X=X=X=X=X=X=X=X=X=X=X=X=X=X+X#X+X+X+X+X=X$X*X;X-X(.H.H.",
"[.[.[.[.(.`.=X<X4X<X=X'.=X=X=X=X=X=X=X$X=X=X=X=X$X=X$X&X=X=X=X=X&X=X=X=X=X=X$X=X&X=X$X=X=X=X=X=X#X+X+X+X'.+X=X=X%X=X$X;X;X.X}.(.",
"[.[.^.^.(.`.#X4X2X:X+X+X=X=X|.+X&X=X=X=X=X$X$X=X=X=X=X=X$X=X&X=X=X=X=X=X&X=X$X=X=X=X=X=X$X=X$X=X#X#X}.=X+X#X=X=X=X+X$X;X4X;X-X-X",
"(.(.(.(./.`.=X4X:X=X=X+X=X+X=X=X&X=X=X=X=X&X=X=X&X=X$X=X=X$X=X=X=X=X=X=X=X$X=X$X=X=X=X=X=X&X=X=X=X%X=X=X+X%X=X=X=X=X+X-X-X-X-X-X",
"(.(.(.(._.}.=X4X:X:X=X+X|.=X=X=X=X=X=X=X=X=X=X=X=X=X=X=X=X=X=X=X=X$X=X$X=X=X=X=X=X&X=X=X=X$X=X=X=X=X=X=X=X=X+X=X#X+X#X#X#X#X-X-X",
"{._._._.`.|.:X<X=X>X+X=X=X=X=X$X=X=X#X=X=X$X=X=X=X=X=X$X=X&X=X&X=X&X=X$X=X=X=X$X=X=X=X$X=X=X=X=X=X+X=X=X=X=X=X=X=X=X=X$X-X$X#X#X",
"{._._._.}.:X:X<X:X=X=X+X=X=X=X=X=X=X=X=X=X=X=X&X=X=X=X=X=X=X=X=X=X=X=X=X&X=X=X=X=X$X=X=X=X$X=X=X=X=X+X=X=X=X$X=X=X=X$X$X$X#X$X#X",
"_._._._.|.<X<X<X=X:X=X+X|.+X$X$X=X=X&X=X=X=X=X&X$X=X$X=X=X=X=X$X=X=X=X=X=X$X$X=X&X=X=X=X=X&X&X=X+X+X=X=X=X&X=X=X$X$X$X$X$X$X$X$X",
"{.}.`.|.$X<X<X:X+X=X=X+X=X=X$X$X=X$X=X=X$X=X=X=X=X=X&X=X&X=X=X=X$X=X=X=X=X=X=X=X=X=X$X=X=X=X=X=X=X=X=X+X=X=X=X=X$X$X$X=X$X$X$X$X",
"|. X3X3X:X3X:X:X:X:X+X=X=X=X$X$X=X=X&X=X=X=X=X=X$X=X=X=X=X=X=X=X=X$X=X=X$X=X&X=X=X=X=X=X=X$X=X=X+X=X+X=X=X$X=X=X&X&X%X%X&X&X$X$X",
";X3X4X4X<X:X+X:X=X:X=X+X|.=X$X$X=X=X=X=X=X$X$X=X=X=X=X=X=X=X&X=X=X=X=X&X=X=X=X=X=X$X$X=X=X=X=X$X=X=X+X=X=X$X=X=X&X&X&X&X=X&X$X$X",
"<X:X:X$X$X|.=X+X=X=X=X$X=X=X=X$X=X=X=X=X=X=X=X=X=X=X=X=X=X#X&X&X=X=X=X#X=X=X=X+X$X$X:X|.=X=X:X:X=X=X=X=X&X=X=X=X&X=X=X=X=X=X=X=X",
":X:X$X=X=X=X=X=X=X&X=X=X=X$X=X$X&X=X=X&X=X&X=X=X=X=X=X=X=X=X&X&X=X=X=X#X=X=X=X@X$X:X:X:X=X=X=X|.=X:X=X=X=X=X=X=X=X=X=X&X=X$X=X&X",
"=X=X=X=X=X=X=X=X=X=X=X$X=X=X=X=X=X=X=X&X].R.%.X.m M x g d a i i t i d d g c m X.&.J.E.:X=X=X:X:X=X=X&X=X=X=X=X=X=X=X=X=X=X=X=X=X",
"=X=X=X=X$X$X$X=X$X=X=X=X=X&X=X=X=X=XR.X.c i 0 0 0 8 8 8 7 8 8 8 8 8 8 8 7 8 q w t p d M &.|.:X|.&X=X=X=X=X&X=X=X=X&X=X=X=X$X=X=X",
"=X|.=X$X=X$X:X$X=X&X=X=X=X=X=X&X:X).d 0 q q 0 7 8 8 8 8 8 8 8 8 8 8 8 8 8 8 8 7 8 7 s d 7 n :X:X=X=X=X=X=X&X=X=X$X=X=X=X$X&X=X=X",
"=X=X=X=X=X:X$X:X=X=X=X=X&X=X=X=X=X+.j 8 8 q 0 7 8 7 7 7 8 8 8 8 8 8 8 8 8 8 8 8 7 u d s 8 > J.#X=X=X=X=X=X=X&X=X=X=X$X=X=X=X=X=X",
"=X=X=X=X$X=X$X:X=X$X=X&X=X=X=X=X'.v d t p s r w u e r e 8 0 8 8 8 8 0 8 8 8 8 s g d u 9 & % | =X=X=X=X&X=X&X=X=X=X=X=X=X=X$X=X$X",
"=X=X$X=X=X$X$X$X=X=X=X=X=X=X=X=XW.t + & & - , t t i p p u e e e q e e e q q 9 , t : % < < X 4 @X&X=X=X=X=X=X=X=X=X&X&X=X=X=X=X=X",
"=X=X=X=X$X=X=X=X=X=X$X=X=X=X=X&X+.> X + @ * * ; * * ; % % = - = - & % % % % % - < 1 2 1 ; ; * n.=X$X=X=X=X=X=X=X=X=X=X&X=X=X=X$X",
"=X=X=X=X=X=X&X=X=X=X$X=X&X=X=X=Xn + + + % + % - ; < ; @ X X X X % + X % % % * * % X + & < 3 * b =X=X=X=X$X$X=X=X=X=X=X=X=X=X=X=X",
"$X=X=X=X$X=X=X=X=X=X=X=X=X=X&X].h X o + % % + X + @ X ; , : : & + + % % @ % % X . 1 2 @ % % - 6 $X=X&X=X=X=X&X=X$X=X$X$X=X=X=X$X",
"=X=X=X=X=X=X$X=X=X=X&X=X=X=X&X;.V #.V X X % % % @ % : = # 5 3 * % % % + % % X @ z A A l o = - 3 R.=X=X=X$X=X=X=X=X=X=X=X=X&X=X=X",
"=X$X=X=X:X$X=X$X=X$X$X=X=X=X+X>.s.g.q.5 . X X % % : 3 V C Z Z B 2 . % % X o X V } { } { k   * 2 O.&X&X$X$X=X=X=X=X=X=X=X=X=X=X=X",
"=X=X=X$X=X=X=X=X=X=X=X=X=X&X+Xu.d.d.t.l   X % & = f A ~ } ~ ~ { A $   @ o . z ^ ~ E E ~ Q k O 2 *.*X=X=X=X=X=X$X=X=X&X=X=X$X=X$X",
"=X=X=X=X$X=X$X$X$X=X&X=X=X=X+Xi.d.d.t.v   o + X l Q ] ! T E E ! { S * . % z W W E E E E ! ! C H y.=X=X$X=X=X=X$X=X$X=X$X=X=X=X=X",
"$X=X$X=X=X=X=X=X=X=X=X=X=X=XoXw.d.s.r.A l h h B ~ ~ Q Q E E E E W ~ D N S ~ W W E E E Q W W W U #.=X=X=X=X&X=X=X=X=X=X$X=X=X=X&X",
"=X=X=X=X$X=X$X=X=X#X=X=X&X&Xu.s.d.s.6.^ ^ Y ~ { E E E E E E E E W E ~ } { E E E E E E E E E E I I L.=X=X+X:X=X=X+X=X=X+X=X=X=X+X",
"$X=X$X=X=X=X=X=X=X=X=X=X$X&Xi.d.s.d.4.T W ~ ! E E E E E E E E E E E E E E E E E E W E E E E E Y R =.=X=X=X=X+X=X'.:X:X+X=X+X=X=X",
"=X=X=X=X=X$X=X=X=X=X=X=X=X].f.s.s.s.[ K E E W E E E E E E E E E E E E E E E E E E E E E E E ! Y I $.=X+X=X+X=X+X:X|.+X:X=X+X+X=X",
"=X&X&X=X=X=X=X&X=X=X=X=X=XL.f.s.w.s.6.K T E E E E E E E E E T T K E E E E E E E E E E E E E W R I 9.E.=X=X+X:X=X+X:X:X+X=X:X=X+X",
"=X=X$X=X&X=X=X=X=X=X=X&X=Xp.e.e.w.w.w.[ ! W T T K E E E Q ! ' ' ' ' Q E E E E ! E E E E E E W R I ) >.+X:X+X=X+X+X=X=X=X+X+X=X=X",
"=X=X=X=X=X=X=X=X$X=X=X=X+Xa.e.w.w.w.w.s.q.6.6.4.0.4.4.0.0.q.q.e.d.q.Q E E E ! Q E E E E E W W Y I I -.+X+X=X:X+X=X=X+X+X=X=X=X+X",
"=X=X$X=X=X=X=X=X=X=X=X=XE.s.w.w.w.w.w.w.e.s.e.s.s.s.e.s.e.e.s.e.0.' E E E ! Q E E E E E E W E I P I #.=X=X=X=X=X=X+X+X=X=X=X=X+X",
"=X=X&X=X=X&X=X=X=X=X#X=XOXe.e.w.w.w.w.w.w.w.w.w.w.w.w.w.w.w.0.' E T E Q Q E E E W T E E ! [ / L I I P =X:X+X+X=X=X=X=X=X+X+X=X=X",
"=X=X&X=X=X=X&X&X=X=X|.=XE./ 7.w.w.s.s.w.w.w.w.w.w.w.w.w.s.0.E K K T E E T T E E ! ' [ 0.5./ L I I U J =X=X+X+X=X+X=X+X:X=X=X+X:X",
"=X$X&X&X=X=X=X&X=X=X+X=X=XK.#.I 2.5.q.w.s.s.e.w.w.w.e.w.w.w.0.[ [ [ [ 4.4.6.q.q.w.q.q.2.I I I I G @.E.=X=X=X=X=X+X=X=X+X+X=X+X=X",
"&X=X&X=X=X=X=X&X=X=X$X=X=X=X=Xu.$.L R ( 7.5.q.w.w.e.f.s.e.s.f.s.s.s.s.s.s.q.8.5.` ) F L I U ) $.K.:X+X=X+X:X=X+X=X:X=X=X=X=X=X=X",
"=X=X=X=X+X=X=X&X$X=X=X=X=X=X=X=X$XE.:.@.G I I / ( ` ` ` 3.7.3.3.3.2.` ( / ) L G L P U _ @.=.L.=X=X=X=X=X+X=X=X+X=X+X+X=X=X=X=X+X",
"=X=X=X=X=X=X=X$X=X=X=X=X=X=X=X=X=X=X=X+XoXK.-.$.J G F L F F F F L F F F F I I ) 1.y.:.J.+X=X=X&X+X+X:X=X=X5X=X=X=X=X=X5X=X=X+X=X",
"=X&X&X&X=X=X=X=X:X=X=X$X=X=X=X|.$X=X$X=X:X=X=X+X@X@XR.L.K.<.<.u.,.u.<.K.L.T.R.@X+X<X=X$X=X=X=X$X=X=X=X+X=X=X'.=X=X=X=X=X5X=X+X=X",
"'.+X+X=X$X=X=X=X=X<X=X=X=X=X=X=X=X=X=X$X=X=X=X=X=X=X=X=X<X=X=X=X=X=X=X=X&X=X&X=X:X=X=X=X=X=X$X=X=X=X=X+X=X=X=X=X=X5X=X=X5X=X:X=X",
"/./.`.#X=X=X=X=X<X=X&X=X=X=X=X=X$X=X=X=X$X$X=X=X=X&X=X=X=X=X=X=X=X=X=X=X=X=X=X=X$X$X$X=X=X=X=X=X=X=X:X=X=X5X=X=X=X=X=X=X=X=X=X=X",
"v.I.!.(.#X}.=X|.&X=X=X$X=X=X+X:X+X+X+X:X=X:X&X;X$X$X$X;X&X=X=X=X=X=X=X+X=X&X=X$X&X=X$X=X=X$X=X=X=X=X=X=X<X=X<X#X:X2X=X#X:X=X=X=X",
"k.Z.G./. X|.=X`.=X=X=X=X=X=X+X+X+X5X5X+X=X=X&X;X;X;X;X$X=X&X=X+X+X+X=X=X=X=X=X=X=X$X$X&X&X$X&X=X+X:X:X=X=X=X=X=X<X<X=X=X#X:X=X2X",
" .c.v.H.}.|.;X*X=X#X=X=X+X=X+X+X+X+X+X=X=X&X=X$X;X$X$X$X=X&X=X=X=X=X+X=X=X=X$X=X+X=X&X4X&X&X=X|.=X#X=X=X=X=X=X=X'.'.=X=X=X=X=X=X",
"h.x.l.G.}. X3X4X$X$X=X=X+X+X+X+X+X+X>X=X+X=X=X=X$X$X$X$X=X=X+X:X=X+X=X=X$X=X=X=X}.=X&X&X&X&X#X=X=X=X=X=X=X<X<X2X=X=X=X=X=X=X=X=X",
"h.c.l.F.{.-X;X3X<X<X&X$X=X=X+X+X=X+X=X+X=X=X=X=X$X$X=X=X+X+X+X+X=X=X+X=X=X$X=X=X=X=X&X=X=X$X$X&X<X<X<X<X<X:X=X#X#X:X:X:X#X2X2X2X",
"h.l.j.H. X X X|.;X&X&X$X=X=X%X+X+X+X=X=X=X=X=X=X=X=X+X:X+X>X+X=X+X=X+X=X=X=X=X$X&X=X=X=X=X=X$X&X4X4X<X<X#X=X=X=X=X=X#X=X=X=X:X#X",
"j.z.h.D..X.X X X;X;X$X$X=X=X=X+X=X=X$X=X=X$X$X=X=X+X+X+X+X+X+X@X:X+X=X=X=X=X=X=X=X=X&X#X&X=X=X=X<X2X<X=X=X#X=X=X#X:X#X=X=X#X=X#X",
"B.z...B.[..X;X3X X;X$X&X=X=X+X:X=X=X=X=X=X$X:X$X=X=X+X=X@X:X+X>X+X=X=X+X=X=X=X=X=X=X&X&X&X&X=X=X'.'.=X=X=X<X<X<X4X4X2X4X4X4X:X2X",
"M.z.z.B.D.^.{. X}.}.|.`.`.}.'.|.|.;X$X;X;X$X$X:X+X=X+X+X>X@X+X+X=X=X=X=X=X=X=X=X=X<X<X=X|.'.R.P.P.P.P.U.Y./././.'.=X:X3X:X:X=X|.",
"M.M.z.N.B.S.H.H.Q.Q.I.I.G.Q.U.~.`. X;X$X|.|.=X$X=X:X+X>X+X+X+X+X:X+X+X:X=X=X=X=X<X<X=X`.).Y.G.b.b.n.n.A.A.G.P.P.U.U.Y././.Y.U.U.",
"..M.M.M.z.z.l.B.V.V.c.c.c.m.Z.Z.^.[.|. X;X|.=X=X=X=X=X=X+X>X+X+X=X=X+X+X=X=X:X=X2X<X'.Y.P.n.b.b.b.b.A.b.n.b.b.b.A.A.A.G.G.A.n.A.",
"....z.z.z.z.z.k.k.k.k.k.o.o.l.c.C.F.^..X;X;X'.'.'.=X+X+X+X+X+X+X+X=X=X=X=X$X=X=X<X'.).U.n.b.b.n.A.A.A.A.A.A.A.A.A.A.A.A.A.A.A.A.",
"M.j.z.z.z.B.z.z.k.z.z.k.l.k.k.k.z.B.D.!.{. X$X|.=X|.+X=X:X=X=X+X|.:X=X+X$X$X=X=X=X).Y.n.b.b.b.J.b.b.b.A.b.A.A.A.A.A.A.A.A.A.A.A.",
"M.j.j.j.z.z.z.z.k.k.x.z.l.z.k.z.z.M.B.B.Z.!.}.|.'.'.'.=X|.$X=X|.+X+X=X:X=X=X$X=X:X).P.n.v.b.b.b.b.b.m.b.b.A.b.A.b.b.b.b.A.b.b.b.",
"z.z.z.j.z.z.z.z.z.z.M.M.z.z.z.z.M.M.z.k.x.C.!.`.`.'.'.|.$X:X|.:X:X+X=X+X$X=X=X=X:X).J.b.b.b.b.b.m.b.b.b.b.b.A.A.b.A.A.A.A.A.A.b.",
"..z.z.k.z...j.k.j.j.j.......z.M...M.B.k.h.l.Z.~.`.`.'.'.|.:X:X:X+X:X=X=X=X=X$X=X:X).n.b.n.b.b.b.b.b.b.b.b.m.b.A.m.b.b.A.A.b.b.b."
};
