/* XPM */
static char *cff269e8ed8541d3b254d10e618e8a5dHhKWNDlzOdqvsMQQ[] = {
/* columns rows colors chars-per-pixel */
"64 64 193 2 ",
"   c #755334",
".  c #7B5634",
"X  c #7E5936",
"o  c #76553D",
"O  c #7A563A",
"+  c #775839",
"@  c #7D5A3A",
"#  c #765641",
"$  c #795740",
"%  c #775946",
"&  c #7B5A43",
"*  c #7E5D49",
"=  c #72534F",
"-  c #745653",
";  c #775953",
":  c #7B5C55",
">  c #7D5F59",
",  c #7E604C",
"<  c #815A36",
"1  c #835C3A",
"2  c #885F3C",
"3  c #87603C",
"4  c #8A623D",
"5  c #815D43",
"6  c #815F4A",
"7  c #815F59",
"8  c #866344",
"9  c #8D6541",
"0  c #82614C",
"q  c #8B664A",
"w  c #906641",
"e  c #826354",
"r  c #85675E",
"t  c #84685E",
"y  c #8B6B5D",
"u  c #866760",
"i  c #856963",
"p  c #8B6E60",
"a  c #82636D",
"s  c #87696A",
"d  c #896D6C",
"f  c #8D726D",
"g  c #917266",
"h  c #816270",
"j  c #8C6F73",
"k  c #8E7272",
"l  c #8F7478",
"z  c #927675",
"x  c #957A75",
"c  c #997B76",
"v  c #937779",
"b  c #957A7B",
"n  c #987B7C",
"m  c #957B81",
"M  c #9A7E80",
"N  c #997F88",
"B  c #9779BF",
"V  c #9A7EBB",
"C  c #9D7FC5",
"Z  c #9A8183",
"A  c #9A828B",
"S  c #A58B95",
"D  c #A88F99",
"F  c #A58C9A",
"G  c #AB919D",
"H  c #A5888B",
"J  c #9F86A3",
"K  c #9E85B6",
"L  c #9F88B0",
"P  c #9E82BF",
"I  c #A88FA1",
"U  c #AB93A5",
"Y  c #AF99A0",
"T  c #AE95AA",
"R  c #AD99AB",
"E  c #B097AB",
"W  c #B39AAE",
"Q  c #A28AB6",
"!  c #AA93B4",
"~  c #AF97B9",
"^  c #AF98BA",
"/  c #B59CB3",
"(  c #B89FB6",
")  c #B59EBB",
"_  c #B99FB8",
"`  c #B7A2AE",
"'  c #B9A0B7",
"]  c #B7A1BC",
"[  c #BBA2BB",
"{  c #C1AABB",
"}  c #9F81C6",
"|  c #9E80CA",
" . c #A285C6",
".. c #A284CB",
"X. c #A78ACB",
"o. c #A98DCC",
"O. c #A589C4",
"+. c #AD91CC",
"@. c #B69FC3",
"#. c #B195CF",
"$. c #B69CCD",
"%. c #B89ECE",
"&. c #A789D1",
"*. c #AA8DD2",
"=. c #A587D1",
"-. c #AE91D3",
";. c #B194D6",
":. c #B99ED1",
">. c #B294D9",
",. c #B699DC",
"<. c #BB9EDD",
"1. c #B599D3",
"2. c #BFA5C0",
"3. c #BEA8C1",
"4. c #BAA1CC",
"5. c #BDA3D3",
"6. c #BBA1D8",
"7. c #BEA1E1",
"8. c #C3ACC4",
"9. c #C4ADCB",
"0. c #C0A6C2",
"q. c #C8B3C5",
"w. c #C7B1CB",
"e. c #CBB5CB",
"r. c #CDB8CE",
"t. c #C1A7D7",
"y. c #C4ADD4",
"u. c #C8AFD2",
"i. c #C5ABDB",
"p. c #C9AFDF",
"a. c #CBB5D3",
"s. c #CEB7DC",
"d. c #D1BBDC",
"f. c #C2A6E3",
"g. c #C5A9E4",
"h. c #C7AAEB",
"j. c #CBAFEA",
"k. c #C9AFE3",
"l. c #CDB2E3",
"z. c #CEB2EC",
"x. c #D1B7E6",
"c. c #D3BBE3",
"v. c #D1B6ED",
"b. c #D5BBEC",
"n. c #D9BFEE",
"m. c #CFB2F2",
"M. c #D1B5F4",
"N. c #D6BAF3",
"B. c #D9BEF5",
"V. c #D9BEF4",
"C. c #D6B9FB",
"Z. c #DABEFB",
"A. c #D8C0E7",
"S. c #DBC4EB",
"D. c #DBC3EC",
"F. c #D9C0ED",
"G. c #DCC3ED",
"H. c #DCC2EF",
"J. c #DDC4EE",
"K. c #DEC5EF",
"L. c #DCC5ED",
"P. c #DCC4ED",
"I. c #DBC1F1",
"U. c #DDC3F0",
"Y. c #DCC2F1",
"T. c #DDC3F2",
"R. c #DDC3F3",
"E. c #DCC2F2",
"W. c #DEC3F2",
"Q. c #DEC4F1",
"!. c #DFC5F2",
"~. c #DEC4F3",
"^. c #DEC5F3",
"/. c #DFC6F0",
"(. c #DDC2F5",
"). c #DDC2F7",
"_. c #DEC3F6",
"`. c #DFC5F4",
"'. c #DFC4F7",
"]. c #DEC4F3",
"[. c #DDC2F9",
"{. c #DDC2FB",
"}. c #DFC4FB",
"|. c #DDC2FA",
" X c #E0C6F3",
".X c #E0C7F1",
"XX c #E0C6F5",
"oX c #E0C6F6",
"OX c #E0C6F6",
"+X c #E1C8F4",
"@X c #E0C5FC",
"#X c #E3C9F8",
"$X c #E3C9FA",
/* pixels */
"m.M.C.m.z.z.z.x.x.b.J. X XQ. XQ.`.T.`.T.`.Q.`.T.`.T.`.Q.E.OXE.OXE.Q.(.E.OXE.OXE.T.`.T.`./.R.`.T.R.R.`.`.K.J.F.G. X X(.v.f.>.>.>.",
"m.M.C.m.z.z.v.b.b.n. X X X XQ. XR.`.T.`.R.`.R.`.T.`.R.`. XE. XE.E.`. X(.E. XE. X`.T.`.T.R.`.R.`.R.}.`.`.K.J.S.G. X XE.N.g.,.>.>.",
"m.C.m.m.z.z.v.b.b.I.Q.OX X XE. X`.Q.`.T.`.T.`.Q.R.`.`.T.(.OXE. XOX X X XE. X XE.`.`.R.R.`.T.`.Q.(.}.R.`.K.J.J.S.K.Q.OXV.z.<.;.-.",
"m.m.m.m.z.v.b.F.E.Q. X+X X XE.J.T.`.T.`.T.`.T.`.`.Q.Q.F.d.9.[ [ [ [ [ 9.s.F.E.OXR.^.R.R.R.`.T.`.(.R.T.T.J.J.K.K.K.Q.}.|.z.7.>.*.",
"m.m.m.z.z.v.N.E. X X X X X XE.E.`.R.`.R.T.T.Q.L.w.Y c > , & 5 5 & 8 & 8 * e n E w.T.^.R.^.`.R.`.T.T.T.T.T.L.K.K.Q.`.|.}.N.g.,.-.",
"m.m.z.m.z.N.(.OX#X X X X X XE.J.R.^.Q.`.Q.c.' z % O X 4 4 4 9 w 4 w 4 4 9 3 < @ & z ` c.R.R.`.`.R.T.T.T.Q.I.K. XQ.E.(.}.Z.z.f.<.",
"m.m.m.m.z.v.E.#X#X XE.J.E. XE.E.R.^.^.S.W > @ @ 8 4 w 9 4 4 4 9 w w 4 4 4 4 9 9 4 3 + > ` A.`.`.R.R.I.I.F.E.Q.Q.Q.(.E.#X}.V.M.z.",
"m.m.h.h.z.b.E.$X@X XJ.J.E.E. XE.R.T.a.Z + 3 9 w 4 4 @ , f Z x q 4 q z b f , @ 3 4 w 9 3 # k 3.T.R.R.I.T.Q.Q.Q.+XQ.I.E.@X@X@XZ.Z.",
"z.z.z.z.z.b.`.$X X X XJ.E. X XE.K.W : X 4 4 4 3 6 v / d.S.n.E 6 4 0 W S.L.d.W v * 1 9 9 4 X , R F.Q.`.Q.Q.Q.Q.Q.Q.Q.I.|.(.|.}.(.",
"m.m.z.z.x.N.(.#XE. XK.V. XV. XG.G * 1 4 4 4 0 m 9.J.E. XJ.E./ * 9 , [ Q.Q.`.Q.F.9.b , 3 w w 3 & G K.`.Q.Q.Q.Q.T.Q.(.(.(.|.(.[.[.",
"v.v.z.x.b.V.`.+X XE.K.J.E.E.J.W % 2 4 w 3 p ] F. X XOXE.E. XR * 4 , [ Q.`.T.`.R.Q.F./ t @ 4 4 3 O W F.K.Q.`.R.`.Q.`.`.`.`.|.(.`.",
"M.v.z.v.V.`.`.OX X X XJ.E.I./ # 4 w 4 O H A.Q.Q.(.(.E. XE.K.W * 4 , [ Q.T.`.T.`.`.Q.(.a.b 1 4 4 3 # R T.`.T.`.Q.`.Q.(.`.(.(.`.|.",
"v.v.x.N.I.}.OXOXQ./.T.T.Q.u.r < 4 4 8 m c.E. XE. X X(. X`.Q.W * 4 , [ Q.`.T.`.Q.T.`.T.`.s.k 1 9 4 3 : 3.Q.`.Q.`.`.R.`.`.`.(.`.`.",
"M.N.N.V.`.#X+X`./.Q.K.T.F.Z O 4 4 X f d.OXOXE.OX(.E. XE.`.Q.W * 4 0 [ /.T.`.T.`.`.T.`.T.(.a.s @ w w + Z F.`.`.R.`.`.R.`.`.`.`.R.",
"V.Z.`.#X+X`.`.+X`.Q.T.L.2.% 3 w < y a.OXE. X XE.OXE.E. XQ.Q.E * 4 0 [ Q.`.R.`.T.T.`.R.`.(.`.w.e 3 w 3 , ] Q.Q.`.`.}.`.`.`.`.`.`.",
"|.@X$X$X#XOXQ.`./.`.T.A.A @ 9 9 O I E.E. XE.E. XE. XE.(.E.Q.W * 4 , [ Q.Q.`.T.`.`.Q.`.T.Q.`.Q.F @ 4 4 + m A.`.R.`.`.`.`.`.`.`.`.",
"OX`.`.`.E.E.E.E.`.Q.`.d.e < w X f A.`.T.`.R.`.T.`.T.`.T.`.Q.W * 4 , [ Q.`.T.`.Q.`.Q.Q.`.`.`.Q.c.f @ w < > d.K.Q.`.Q.`.T.`.R.`.T.",
"`.`.`.`.`.E.E.Q.`.Q.E.` + 3 w + ` /.T.`.Q.`.T.`.R.`.T.`.Q.Q.W * 4 , [ `.T.`.R.`.T.(.`.T.Q.Q.`.Q.Y   9 4 + / Q.Q.R.`.T.`.Q.`.T.`.",
"`.Q.`.Q.`.E. XQ.`.`.S.A @ 4 8 > 9.`.`.T.`.R.`.T.`.Q.`.T.`./.R * 4 0 [ Q.`.T.`.T.`.T.R.`.`.(.Q.`.8.e 4 9 . N n.`.`.Q.`.T.`.R.`.T.",
"E.E.E.`.Q.`.OX`.Q.`.d.l 3 9 3 k c.`.T.`.T.`.Q.`.T.`.T.`.R.Q./ % 3 0 ] Q.Q.`.T.`.T.`.`.Q.`.Q.(.`.c.f 3 9 2 l c.Q.T.`.R.`.T.`.Q.`.",
"Q.E.Q.(.`.`.`.`.(.Q.s.d 3 4 . S T.`.Q.`.`.T.`.Q.`.R.`.R.`.Q.W * 9 , ' /.`.Q.`.T.`.R.`.T.Q.`.(.Q.I.S . 4 3 d s.Q.`.Q.`.T.`.T.`.Q.",
"E.Q.E.`.`.`.`.`.`.Q.a.i 3 3   q.`.R.`.R.T.`.R.`.Q.`.Q.`.Q.Q.W * 8 0 [ Q.R.`.R.`.Q.`.T.`.`.`.Q.`.Q.q.. 3 2 i a.`.R.`.T.`.T.`.R.`.",
"Q.`.`.Q.Q.`.Q.`.Q.`.r.t 3 3 & r.T.`.`.`.Q.`.`.T.Q.`.`.`.`.Q./ * 4 0 0.Q.`.Q.`.Q.Q.`.`.T.(.Q.`.Q.`.r.O 3 3 r a.Q.`.T.`.T.`.T.`.T.",
"(.`.E.`.`.Q.(.`.E.E.a.t 3 3 * w.`.T./.`.`.`.Q.`.`.`.Q.Q.`.Q.W 0 4 e 0.Q.`.Q.`.`.`.`.Q.`.Q. X`.(.`.w.* 3 3 r a.Q.T.`.R.`.Q.`.T.`.",
"Q.`.(.Q.Q.`.R.`.T.`.a.r 2 4 8 c Y G G G G G G G G G G G U D x q 4 q c G G G G G G G G G G D D U G c q 4 2 r a.`.`.T.`.R.`.T.`.T.",
"`.Q.Q.`.`.T.`.T.`.T.a.r 3 9 9 3 @ @ < < @ @ 1 @ @ 1 1 @ 1 < 4 9 w 9 8 < < 1 1 @ @ @ @ @ 1 @ 1 1 < 4 9 9 < u a.Q.Q.`.Q.`.T.`.Q.`.",
"(.`.`.`.T.`.R.`.Q.T.a.r 3 9 4 3 @ @ @ @ @ @ @ @ @ @ @ @ @ @ 4 4 w 9 8 < @ @ @ @ @ @ @ @ @ @ @ O < 3 4 9 3 i a.Q.`.T.`.T.`.T.`.R.",
"Q.Q.`.E.`.T.`.Q.`.T.a.i 3 9 8 n W R U T U I T U U U T U R U n q 4 q Z E R U I U T U U T U U T R R n 8 4 2 r a.(.R.`.T.`.T.`.T.`.",
"`.Q.R.`.T.`.T.`.R.`.a.r 3 3 & 8.Q.`.Q.Q.Q.`.Q.Q.E.E.Q.Q.`.F.T 6 4 0 / T.`.Q.Q.Q.T.Q.Q.Q.Q.T.T.`.`.8.& 4 3 u a.`.`.T.`.Q.`.R.`.T.",
"`.`.`.Q.`.T.`.T.`.T.a.t 3 3 & r.`.E.`.E.Q.(.(.`.`.Q.(.`.`.Q.W * 4 * ] Q.`.`.(.`.`.Q.`.R.`.`.Q.R.`.a.O 3 3 r a.Q.T.`.R.`.Q.`.T.`.",
"I.Q.`.`.T.`.R.`.T.`.a.r 3 3 & e.Q.Q.`.`.`.`.I.Q.E.`.`.Q.`.Q.W * 4 , ( T.Q.(.Q.`.T.`.T.`.R.`.Q.`.Q.w.& 3 3 r a.R.`.T.`.T.`.R.`.T.",
"`.`.(.Q.`.Q.`.T.`.T.a.t 3 3 & e.`.(.Q.`.Q.`.`.`.`.Q.E.`.`.Q.W * 4 * / Q.`.`.Q.`.`.T.`.R.`.Q.`.R.`.r.+ 4 3 u a.`.Q.`.T.`.T.`.Q.`.",
"`.R.`.T.Q.`.`.`.`.Q.a.r 4 3 & e. XE.E.OXE. XE.OXE.(. XE. XK.E * 4 , / Q.Q.R.`.T.E. XE. XE. XE.Q.Q.e.O 4 3 r a. XJ.E.K.K. XU.(.K.",
"T.`.Q.`.`.`.I.Q.E. Xa.r 1 3 $ e.E.OXE.E.OXE. XE. X XE. X XV./ * 4 * / /.Q.`.Q.`.(. XOXE.OXE.OXE.Q.e.& 3 2 r a.K.J. XV. XK. X(.K.",
"`.T.`.T.(.Q.Q.`.`.Q.a.t 4 4 & e. XE.E. XE. XE. XE. X X(.E. XE 6 3 , ' Q.`.T.`.R. XE. XE.E.OXE. XQ.e.O 3 3 r a.Q. X XJ.J.K.(.K.K.",
"T.`.R.`.Q.`.(.`.`.`.a.i 1 4 & e.E.OX XE.OXE.OXE. X(.E. XE.J.W * 4 , ' K.T.`.T.`.E. X(. X XE. XE.Q.q.& 4 3 r a.K.E.K.E. XK.K.K.(.",
"`.R.`.T.Q.`.`.Q.E.`.a.r 3 3 & w. XE. XE.E.OXE. XE. X(.E. XE.W * 9 * ' Q.`.R.`.T.E. XE.E. XE. XE.Q.e.& 3 3 t a.K.Q.Q.Q.Q.(.(.K.K.",
"Q.`.T.`.`.Q.E.`.`.Q.a.u 3 3 @ r.E.OXE. X XE. XE. XE.E. XE. XW 6 3 * ' Q.Q.`.T.`. X(. X(.E. XE. XQ.q.O 3 4 t a.Q.Q.Q.Q.Q.K.K.Q.(.",
"`.R.`.T.`.(.(.`.`.Q.a.r 3 3 & e. XE.OXE. X(.OXE. XE.OXE. XE.W * 8 , ( Q.`.R.`.T.E. X XE. X(. XE.Q.e.O 3 3 r a.Q.Q.Q.Q.Q.Q.Q.Q.Q.",
"T.`.Q.`.Q.`.Q.Q.`.`.a.r 2 2 & w.E.OXE. XE. XE. XE.OXE. X(.E.W 5 4 0 ] Q.T.`.Q.`. XE.(. XE. XE. XQ.e.& 3 3 r a.Q.Q.Q.Q.Q.Q.Q.Q.Q.",
"I.I.`.`.`.`.`.`.Q.`.a.r 1 3 & e. XE.E. XE. XE.OX(.E. XE. XQ./ * 4 0 ' Q. XE. XE. XE.OXE. X XV.E.Q.e.O 3 2 r a.U.Q.Q.Q.Q.Q.Q.Q.Q.",
"`.`.#X`.Q.Q.`.`.I.Q.a.u 3 4 # r.E.OX XE.OXE. XE. XE.E.OXQ.Q.E * 3 , ' Q.E.OXE.OXE. XE. X XV. X XQ.e.& 3 2 r a. XQ.Q.Q.Q.Q.Q.Q.Q.",
"`.`.`.`.T.Q.`.`.Q.(.a.r 4 3 & e. XE.OXOXE. XE. XE. XE. X`.Q./ * 4 , ' Q.E.E.E. XOXE.OXE. X X(. XQ.e.O 4 2 r e.(.Q.Q.Q.Q.Q.Q.Q.Q.",
"Q.`.`.I.I.I.`.`.Q.Q.a.r 3 4 & e.E. XE.E.OXE.OXE. X(. XE.Q.Q./ * 4 , ] Q.OXE. XE.E. XE. X XV. X(.J.e.& 3 2 r a. XQ.Q.Q.Q.Q.Q.Q.Q.",
"`.`.`.`.`.Q.`.`.Q.`.a.i 2 2 * r. X(.(. XE.E. XE.E.E. XE.Q.Q./ , 4 0 [ `.Q.`.E.OX XE. X XB. X X XE.r.* 3 2 y a.K.Q.Q.Q.Q.Q.Q.Q.Q.",
"`.`.+X`.`.I.`.I.OX`.a.t 2 2 5 q.(. X X X X X XOX X X X XQ.K./ 0 4 0 [ K.Q.`. XE. XOX X X X XoXoX Xq.5 3 2 r a.(.Q.Q.Q.Q.Q.Q.Q.Q.",
"b.I.Q.`.`.Q.T.T.OXQ.a.t 2 4 5 c D D D D D F D D F D D D G D z q 4 8 x S G D D D D D D D F F D D G x 8 4 2 r a.Q.Q.Q.Q.Q.Q.Q.Q.Q.",
"l.l.b.I.I.`.`.`.`.`.a.r 2 9 w 2 1 1 1 < < 1 < 1 1 < 1 1 1 < 9 w w w 4 2 1 1 1 < < < < < < 1 1 < 1 9 w 4 1 y a.Q.Q.Q.Q.Q.Q.Q.Q.Q.",
"#.7.i.v.(.V.(.I.`.(.a.t 1 9 9 4 3 3 3 3 3 3 4 3 4 2 3 4 3 3 4 w w 4 4 3 3 3 3 3 3 4 3 3 3 3 3 3 4 4 9 4 2 r a.OXOXOXQ.`.OX`.Q.`.",
"O.:.:.z.V.V.I.N.Q.E.a.r 3 9 8 p c c x z v z v v v v v v v v p 9 w w p v v v v v z z v v v v v v b p 8 4 2 u a.E.`.OXOX XQ.`.`.`.",
"P o.+.f.N.V.|.|.(.Q.a.u 3 4 * [ S.L.S.K.K.K.K.Q.Q.Q.K.K.Q.F.G 0 4 0 W S././.T.L.F.K.Q.+X+X XK.J. X{ 5 4 2 u a. XE.E.E.E.Q.E.E.Q.",
"P O.O.<.M.Z.$X$X`.`.a.u 3 4 & r.K.K./. X/.J.E.Q.`.(.`.`.Q.K.' * 4 0 [ Q.Q.Q.T.`.E.Q.OXOXOX XE.E.Q.r.& 4 4 u a.OXE.J.E.E.E.E.`.`.",
"} X. .<.C.Z.}.@X}.#Xa.u 3 3 & q.K.K. Xn. XU.U.U.`.(.Q.Q.K.K.W 0 4 , ' /.`.T.`.R.`.Q.`.(.E.OX(.(.OXe.& 3 2 r a.OX`.`.OX`.+X#XOXOX",
"} O. .7.Z.Z.Z.B.}.`.a.u 3 3 & q.K.J.K. X(.(. X(.T.`.Q.Q.L./.E * 8 0 ' /.Q.(.Q.`.`.`.(.Q.(.E.OXOX$Xr.& 3 3 r a.E.`.`.`.Q.`.`.`.`.",
"....} ,.M.Z.Z.Z.}.|.a.u 3 4 & r. X X XV. XV.(. XQ.Q.Q.K.K.L.W * 4 0 ' K.Q.`.`.Q.`.`.`.`.(. XE. XOXr.$ 4 3 u a. X`.(.`.(.(.I.(.Q.",
"&...C *.m.C.}.@X[.(.a.t 3 4 @ e.V. XK. X X X X XQ.Q.K.K.S.L.W 8 4 , ' K.`.Q.(.`.I.Q.`.`.OXOXE.E.F.w.O 4 3 r a.@X#X#X#X#X#X#X#X#X",
"=.=...&.,.h.C.Z.M.N.y.u 1 3 & w.|.|.|.|.(. X X(.K.K././..XL.W * 4 0 [ /.`.Q.`.`. X X XE.V.n.p.t.5.[ o 3 2 r 4.l.I.I.`.#X#XE.I.V.",
"......=.*.>.<.f.f.f.@.> 4 4 o 3.N.V.(.|.I.I.(. XJ.K././.L.L.W , 4 , [ /.`.`.`.T.XXXX(.b.x.p.t.#.$./ o 3 2 > ] 5.i.i.i.l.l.k.i.i.",
"C =.=.=.......o.-.+.! - 2 3 # ) h.m.N.Z.Z.(.I.(.V. X/./..XL./ * 4 0 [ /.T.`.T.`.$XOXn.p.t.5.$.@.$./ o 4 3 : ~ :.:.:.5.5.5.5.:.%.",
"C C ..=...C C  . . .L - 3 2 o ! ;.<.z.N.{.|.n.n.V. X/..XL.L.W * 4 0 3./.`.R.`.Q.XXn.x.i.%.$.%.%.:.] o 3 3 ; ~ :.:.:.:.:.:.:.:.:.",
"=.C C =...&.X... ...Q - 2 3 o ! X.*.,.g.M.V.V.(.J.J.n.E.R.R.( * 2 e 8./.T.`.Q.`. Xx.p.%.$.$.$.t.$.] # 3 2 : ~ :.:.:.:.:.:.:.:.:.",
"=.=...C ....X... . .Q - 3 3 $ J X.X.o.#.<.k.b.n.n.n.F.G.L.A.U 0 4 q / G.T.L.T.L.K.x.y.%.@.@.%.:.$.U * 3 2 : ~ :.:.$.$.$.$.$.:.$.",
"......C ........C ..K - 2 9 8 7 a a a a a s k z z v v c v c g 9 4 9 g n M n n v n z d s s s d d d y 8 4 2 : ^ $.$.:.:.:.:.:.$.:.",
"C ........C ....C C K = 2 9 9 9 4 4 2 4 4 2 4 2 2 4 4 2 4 4 9 9 9 w 4 4 4 4 4 4 4 2 4 4 2 2 4 2 2 9 w 4 2 ; ~ $.$.#.$.:.:.$.$.#."
};
