/* XPM */
static char *_1353b25a4a641c4a28b399aa1b990e7OWNsOBlzPmV0BUFN[] = {
/* columns rows colors chars-per-pixel */
"64 64 190 2 ",
"   c #744E2A",
".  c #764E26",
"X  c #775126",
"o  c #795127",
"O  c #77512B",
"+  c #7A532C",
"@  c #755434",
"#  c #7C5633",
"$  c #7F5932",
"%  c #75543B",
"&  c #79563C",
"*  c #7C5A3C",
"=  c #765640",
"-  c #795541",
";  c #7C5942",
":  c #7E5E4C",
">  c #7F6047",
",  c #7E614F",
"<  c #815732",
"1  c #835A33",
"2  c #895F36",
"3  c #845E3A",
"4  c #895F3A",
"5  c #8A6036",
"6  c #86603B",
"7  c #8B623C",
"8  c #90653E",
"9  c #92683F",
"0  c #825F41",
"q  c #805E4A",
"w  c #866144",
"e  c #8D6542",
"r  c #82614D",
"t  c #8A664C",
"y  c #89684F",
"u  c #916741",
"i  c #916941",
"p  c #856553",
"a  c #896753",
"s  c #876856",
"d  c #8B6953",
"f  c #85675A",
"g  c #896759",
"h  c #856A5D",
"j  c #8C6C5A",
"k  c #856961",
"l  c #8A6D64",
"z  c #8D6E68",
"x  c #8E726D",
"c  c #8E7162",
"v  c #917264",
"b  c #92756C",
"n  c #8A6F70",
"m  c #8E7371",
"M  c #937773",
"N  c #957975",
"B  c #987D76",
"V  c #977D7C",
"C  c #9A7E7A",
"Z  c #9B817E",
"A  c #8D768F",
"S  c #997E80",
"D  c #997E85",
"F  c #917A93",
"G  c #9B7FBC",
"H  c #9C7EC4",
"J  c #9C8283",
"K  c #9F8884",
"L  c #9B828A",
"P  c #9D849B",
"I  c #9E8391",
"U  c #A2858B",
"Y  c #A18687",
"T  c #A38793",
"R  c #A48B95",
"E  c #A0879D",
"W  c #A68B99",
"Q  c #AB8F9C",
"!  c #A6909F",
"~  c #A9909D",
"^  c #9E82BF",
"/  c #A88FA1",
"(  c #AB92A4",
")  c #AC94AA",
"_  c #AF98AB",
"`  c #B097AA",
"'  c #B29AAD",
"]  c #B59DB2",
"[  c #B89EB5",
"{  c #B99EB8",
"}  c #B7A1B3",
"|  c #BCA3BC",
" . c #9F82C5",
".. c #9E80CA",
"X. c #A185C4",
"o. c #A284CC",
"O. c #A68AC9",
"+. c #A88BCA",
"@. c #AE92CC",
"#. c #B195CF",
"$. c #B59BCD",
"%. c #B89ECE",
"&. c #A587D1",
"*. c #A689D0",
"=. c #A98CD2",
"-. c #AF92D3",
";. c #B194D5",
":. c #B99ED2",
">. c #B294D9",
",. c #B79ADB",
"<. c #BA9DDE",
"1. c #B49BD4",
"2. c #BFA5C1",
"3. c #BCA3D3",
"4. c #BEA1DD",
"5. c #BB9DE2",
"6. c #BFA2E2",
"7. c #C0A7C2",
"8. c #C1A8C4",
"9. c #C0A7CA",
"0. c #C5ADCC",
"q. c #C4ADD4",
"w. c #C4AADB",
"e. c #C9AFDF",
"r. c #C6B0D1",
"t. c #CAB4D5",
"y. c #CCB4DA",
"u. c #CFB8DB",
"i. c #D1BADD",
"p. c #C1A5E3",
"a. c #C5AAE4",
"s. c #CAAEEA",
"d. c #C7AAED",
"f. c #CDB3E3",
"g. c #CEB2EC",
"h. c #D1B7E7",
"j. c #D3BAE2",
"k. c #D1B6ED",
"l. c #D5BBEC",
"z. c #D9BFED",
"x. c #CAACF2",
"c. c #CFB2F3",
"v. c #D1B5F4",
"b. c #D6BBF3",
"n. c #D9BEF3",
"m. c #D7BAFA",
"M. c #DBBEFA",
"N. c #D8C1E7",
"B. c #D7C0EB",
"V. c #DEC5EF",
"C. c #DDC4EE",
"Z. c #DCC4EE",
"A. c #DDC8EA",
"S. c #DCC2F1",
"D. c #DDC3F0",
"F. c #DDC3F2",
"G. c #DDC3F3",
"H. c #DCC2F2",
"J. c #DCC1F0",
"K. c #DEC4F1",
"L. c #DFC5F1",
"P. c #DFC5F2",
"I. c #DEC4F3",
"U. c #DFC5F3",
"Y. c #DEC6F0",
"T. c #DDC3F5",
"R. c #DDC2F5",
"E. c #DEC4F4",
"W. c #DFC5F4",
"Q. c #DFC5F5",
"!. c #DFC5F4",
"~. c #DFC4F6",
"^. c #DFC6F5",
"/. c #DEC4F3",
"(. c #DFC9F3",
"). c #DFC4F9",
"_. c #DEC3FA",
"`. c #E0CAEE",
"'. c #E0C6F3",
"]. c #E0C6F2",
"[. c #E0C7F1",
"{. c #E1C7F4",
"}. c #E0C6F6",
"|. c #E0C6F6",
" X c #E2C8F6",
".X c #E1CAF5",
"XX c #E1C6F9",
"oX c #E1C6F9",
"OX c #E3C9F8",
"+X c #E3C9FA",
/* pixels */
"c.v.m.c.g.g.g.k.h.l.D.].].K.].D.K.Q.G.G.K.Q.G.K.Q.Q.G.K.T.K.Q.K.Q.D.Q.K.Q.D.Q.D.G.K.Q.Q.G.K.K.Q.G.G.T.Q.Z.Z.Z.Z.[.].n.k.a.>.>.>.",
"c.v.v.c.c.f.k.h.l.B.K.{.{.].].].G.Q.K.Q.K.G.Q.K.G.K.G.Q.Q.D.D.Q.T.Q.K.T.D.Q.Q.Q.Q.K.G.K.G.Q.G.Q.G._.D.Q.[.Z.Z.z.[.'.T.b.a.,.>.>.",
"c.v.v.c.g.g.k.l.z.D.].].{.].D.D.Q.K.K.G.Q.Q.G.G.K.G.K.Q.K.Q.D.Q.K.Q.D.Q.T.Q.D.Q.Q.H.Q.K.K.K.Q.K.T.Q.Q.T.`.Z.Z.Z.[.|.|.n.s.<.;.-.",
"c.c.v.v.v.g.g.k.h.h.z.].{.{.K.{.K.G.Q.Q.G.K.K.Q.Q.Q.K.G.Q.D.Q.K.Q.K.Q.D.K.D.Q.D.K.Q.H.Q.Q.G.G.G._.K.Q.K.C.Z.B.[.'.D.v.a.,.>.>.=.",
"c.c.v.v.v.x.g.k.l.l.z.].{.].K.].K.Q.K.K.H.Q.K.Q.G.K.Q.D.Q.Q.{.T.Q.Q.Q.K.Q.T.K.Q.K.Q.K.K.K.Q.Q.Q.T.T.Q.K.C.C.B.[.|.|.b.s.,.>.>.-.",
"c.c.c.v.v.c.k.k.l.z.D.{.{.].D.D.K.G.Q.G.K.K.Q.K.Q.Q.Q.{.Q.Q.{.].K.K.Q.Q.{.{.Q.Q.T.G.Q.H.Q.K.H.D.T.Q.K.K.C.Z.Z.C.'.|.n.g.6.;.-.<.",
"c.c.c.c.c.g.k.l.z.D.D.{.{.].].D.K.Q.H.Q.Q.K.K.Q.Q.K.H.z.u.0.2.| | | 2.0.u.l.H.K.Q.Q.Q.G.H.K.Q.T.T.T.D.K.C.Z.C.C.J.|.R.v.p.>.-.s.",
"c.c.c.c.c.g.k.n.|.{.{.{.].].].T.H.Q.K.G.Q.Q.(.(.y.] J z f p r r p t y p s x T | u.K.Q.Q./.Q.K.Q.T.D.T.D.Z.Z.K.K.|.R.oXm.a.,.;.M.",
"s.c.c.g.g.g.b.T.oX{.{.D.D.'.'.D.D.Q.Q.K.{.H.0.R g : * 3 3 4 4 7 7 7 4 3 6 1 3 q s R 0.Z.^.Q.Q.K.D.T.D.Z.D.C.[.K.n.|.XXM.c.p.5.R.",
"v.c.c.g.g.g.k.Q.+X+X{.Z.D.|.'.n.D.Q.Q.+Xt.D , * 1 2 5 7 7 7 e u e 8 7 7 7 5 7 6 3 * : L r.Q.^.Q.T.D.D.n.Z.K.K.].'.n.XXXXm.g.s.R.",
"v.c.g.g.g.g.l.Q.+X X].z.Z.|.D.D.D.oXZ.} h # 3 7 7 e 3 : l N b t 7 t b M j > * 7 9 5 3 $ f ) B.+XT.D.D.D.Z.D.].].z.z.oXXXXXM.M.oX",
"v.s.g.g.g.g.b.{.+X].].D.D.T.D.T.+Xi.D = $ 7 7 7 w l T 7.u.u.( p 7 p ] u.u.| T l * 6 e 7 $ * L u.+XT.|.D.'.D.K.K.'.n.|.R.oXM.oXM.",
"k.v.g.g.g.k.b.{.+XK.K.K.D.D.T.+Xu.Z @ 1 8 7 0 k ( y.B.Q.^.+X[ r 3 f 8.+X+XQ.l.t.( f * 7 9 1 @ M i.+X].K.K.K.K.D.D.D.T.M.M.M._.D.",
"b.k.k.g.g.l.n.{.{.K.].K.D.T. Xz.J @ 3 9 2 : L r.H. X XQ.Q.K.] , 6 p 2.Q.K.Q.+X).H.0.J * 5 e 3 @ V z.+XK.K.T.Q.K.|.T.|.T.T.oXT.|.",
"n.k.k.g.b.z.T.{.{.].].K.D.oXl.L @ 5 u 1 a ] z.^.Q.Q.K.Q.K.Q.] r 6 p | Q.K.Q.D.Q.{.+Xh.! , 3 8 5 @ J j.+XD.Q.T.D.T.|.T.|.T.|.T.|.",
"M.v.k.k.l.H.oX{.{.K.K.D.Q.+X_ & 1 9 3 q '  X+XQ.Q.K.Q.K.D.K.] r 6 p | {.Q.K.Q.D.K.Q.+XG.! * 3 9 1 & ( +XoXD.{.|.T.D.D.|.T.T.T.|.",
"{.v.v.l.n.Q.oX{.^.K.K.K.+Xt.k # 9 5 * / ^.+X^.G.G.K.Q.Q.G.K.] r 6 s 2.^.Q.K.K.G.Q.K.Q.+XZ.I % 5 u # h t.+X^.Q.Q././.Q.G.Q.Q./.G.",
"K.n.n._.).{.{.Q.K.(.{. XH.R @ 7 7 @ L Z.).^.Q.K.Q.K.G.K.Q.K.' r 6 p 2.K.G.G.Q.Q.G.G.Q./.+Xj.V @ e 5 @ R G.+XK.^.Q.Q.Q.Q.K.Q.Q.K.",
"K.n.XXXX+XoXQ.K.K.K.(.+Xr.k # i $ , r.+X/.Q.G.K.Q.G.K.G.G.^.] , 6 p 2.Q.K.Q.G.K.K.Q.K.Q.Q.+X0., < i + k r.+XQ.Q.Q.Q.Q.Q.Q.Q.Q.K.",
"D.oXoXoXoXQ.D.K.G.Q.^.+X} & 1 7 # ! ).+XG.K.G.Q.K.G.Q.Q.K.K.] , 6 p 2.Q.K.G.Q.K.K.G.Q.Q.Q.+X^.R & 5 3 % } +XQ.Q././.G.K.K.K.G.Q.",
"D.K.Q.Q.K.Q.D.H.G.Q.^.Z.K O 9 + h u.+XK.K.K.Q.G.Q.G.K.K.Q.K.] r 6 p 2.^.K.Q.G.G.Q.Q.G.K.G.K.+Xt.s + 8   L K.^.Q.K.G.G.Q.Q.Q.G.K.",
"T.Q.K.Q.Q.K.Q.K.K.Q.+Xu.l X 9 # L (.+XG.Q.G.Q.K.K.G.Q.G.G.G.] r 6 p 2.^.G.Q.K.Q.G.K.G.Q.Q.K.+XG.V $ 8 + l y.+XQ.Q.Q.K.K.G.K.G.Q.",
"K.D.D.D.D.Q.Q.Q.^.^.).2., 6 5 > ) +X^.Q.G.Q.G.K.K.Q.G.Q.K.K.] : 6 p 7.Q.G.K.Q.K.K.G.K.Q.Q.G.+X+X/ * 5 1 p 2.+XQ.G.K.Q.G.K.G.K.Q.",
"Q.T.T.D.Q.K.Q.K.^.(.).} , 5 $ , 0.+XG.Q.K.K.G.Q.G.Q.K.K.G.Q.] r 6 p 2.(.Q.K.G.G.Q.Q.K.G.K.Q.K.+X2., 3 2 : | ^.).G.Q.K.G.Q.Q.K.G.",
"K.H.K.H.K.Q.Q.Q.Q.Q. X_ ; 6 X x B.+XQ.K.Q.D.{.Q.D.K.Q.D.K.K.] , 6 p 7.|.'.D.T.|.K.Q.G.G.K.Q.Q.+XN.c o 5 : }  XQ.K.Q.G.K.Q.Q.G.K.",
"Q.H.Q.K.G.Q.G.K.K.Q.^.' * 5 X Z .X+XK.Q.K.D.T.D.{.T.T.Q.Q.K.[ , 4 s 8.].D.'.T.D.Q.K.K.Q.K.G.K.)..XB . 6 ; ' ^.Q.K.G.Q.K.G.K.G.Q.",
"Q.K.K.Q.G.K.Q.K.K.oX^.' ; 5 O K +X+X+X+X+X+X+XoX+X+X+XoX+X+X} p 3 g 0.+XXX+XXXXX+X+X+X+X+X+X+X+XOXZ + 5 ; _ ^.+XQ.Q.G.G.K.G.K.Q.",
"G.H.Q.K.Q.K.G.G.Q.Q.{._ ; 5 1 b | r.8.2.8.8.7.7.7.8.8.7.8.2.R t 7 a Q 8.8.8.8.8.8.8.2.2.2.8.8.r.| v 1 5 ; ] ^.^.G.K.K.Q.Q.Q.K.G.",
"K.Q.G.K.Q.G.K.Q.K.Q.^._ ; 5 e w j c j j j j j j j j j j j j d e e e d j j j j j g j j j j j j j d e e 7 ; _ ^.^.Q.K.K.G.G.G.K.Q.",
"K.G.Q.K.Q.K.G.Q.K.). X_ ; 5 e 7 o X O O X O O O O O O o o o 1 7 e e 1 + o o o O O O X O O O O X $ 5 e 5 ; ] ^.^.G.G.Q.Q.K.Q.K.G.",
"Q.Q.G.G.G.G.K.K.Q.{.^.' ; 5 7 y b Z N M M M M M M M M M N M j e 7 t v N N M M M M M M M M M N Z b w 7 5 ; ' ^.^.K.Q.G.K.Q.K.Q.G.",
"G.K.K.Q.K.Q.Q.G.K.Q.^._ ; 5 $ b r.j.y.t.y.t.y.y.y.y.y.y.u.y.( t 7 a _ y.u.y.y.t.y.y.y.y.y.y.y.h.r.x 5 5 ; ' ^.).K.G.Q.K.G.G.Q.K.",
"Q.K.K.G.K.G.G.Q.K.^. X` ; 5 + Z +X+X+X+XoX+X+X^.oX+XoX+X+X+X{ q 3 p 2.+X+X+X^.+X+X+XoX+XoX+X+X+X.XV O 5 ; ] Q.Q.Q.G.Q.G.K.K.Q.G.",
"G.G.Q.Q.Q.Q.K.K.Q.^.(.` ; 5   J .X).H.K.Q.K.Q.Q.K.K.Q.D.D.Q.] q 6 p | Q.Q.K.Q.Q.D.Q.K.Q.K.K.K.oX.XZ O 5 ; ' ^.Q.Q.K.K.G.Q.G.K.K.",
"K.Q.G.K.G.K.Q.G.K.Q. X` ; 2 + Z .X+XQ.H.K.Q.G.K.Q.K.K.Q.Q.K.] , 6 p | Q.G.Q.G.K.T.K.K.Q.Q.T.K.oX{.B + 3 ; ' Q.{.G.Q.G.Q./.Q.K.K.",
"K.G.Q.K.G.Q.K.G.K.oX{.` ; 2 O Z (.+XK.Q.K.H.Q.K.D.Q.Q.K.Q.K.] q 6 r [ Q.K.K.G.Q.Q.D.Q.D.D.Q.Q.oX(.B O 5 ; ] ^.{.K.K.K.K.G.K.K.K.",
"Q.Q.G.K.G.K.Q.Q.Q.).^.` ; 2 O Z (.Q.K.Q.K.Q.G.G.Q.Q.K.Q.Q.K.] r 6 , } (.Q.Q.G.K.Q.D.Q.Q.D.Q.T.{.(.B + 5 ; _ K.Q.K.K.K.K.K.K.K.K.",
"G.K.G.Q.Q.K.G.K.K.Q.^.' ; 2 O Z .X+XQ.K.G.Q.K.Q.T.K.K.H.Q.K.] , 6 p | ^.G.K.G.Q.K.Q.T.K.Q.K.Q.oXA.Z + 5 ; ] (.Q.K.K.K.K.K.K.K.K.",
"K.G.K.Q.Q.G.Q.K.Q.^.(._ ; 2 + Z (.).K.Q.G.K.Q.K.K.G.Q.K.T.K.] p 6 p | Q.K.G.K.Q.Q.D.Q.K.D.Q.K.oXA.Z X 5 ; ] G.K.K.K.K.K.K.K.K.K.",
"Q.Q.K.G.K.Q.K.Q.K.^.^.' ; 3 + Z .X).Q.K.Q.K.G.G.Q.Q.H.Q.T.D.] q 3 p | Q.Q.Q.K.G.D.Q.K.T.Q.D.Q.oXA.Z X 5 ; ' (.Q.K.K.K.K.K.K.K.K.",
"H.G.Q.G.K.K.Q.G.Q.Q.^.' ; 5 + V (.+XQ.H.K.Q.H.K.D.Q.K.Q.D.Q.] r 6 p | Q.G.K.Q.Q.G.G.K.Q.Q.T.K.{.(.V + 5 : ' K.{.K.K.K.K.K.K.K.K.",
"K.G.K.G.Q.G.Q.K.K.oX^._ ; 5 + Z (.oXQ.D.Q.K.G.Q.Q.K.Q.D.Q.K.] r 6 p | Q.Q.K.G.K.K.Q.K.G.D.Q.Q.).(.N + 5 ; ' Q.{.K.K.K.K.K.K.K.K.",
"Q.K.K.Q.K.G.G.K.K.^.^.` ; 5 O Z {.+XK.Q.K.G.K.Q.Q.T.T.{.K.K.] r 3 p 2.Q.Q.G.K.G.Q.K.Q.G.Q.K.Q.{.(.B O 2 ; ' (.{.K.K.K.K.K.K.K.K.",
"G.G.G.K.Q.Q.K.Q.^.^.^._ ; 5 O Z (.+XK.K.Q.Q.K.G.D.Q.K.D.Q.K.] r 3 p 2.K.K.G.Q.Q.G.G.Q.K.D.Q.K.oX(.B O 5 0 ' K.Q.K.K.K.K.K.K.K.K.",
"K.G.K.Q.Q.Q.K.Q.Q.T.K._ ; 5 + Z  X).K.G.G.G.K.Q.Q.Q.D.Q.|.T.] r 6 p | ^.Q.K.G.K.K.Q.G.K.Q.G.Q.oXA.B + 5 ; ] K.{.K.K.K.K.K.K.K.K.",
"K.Q.^. XQ.K.G.Q.Q.Q.Q._ ; 5 O Z (.).Q.Q.K.Q.K.G.D.T.Q.D.D.T.] r 6 p | ^.K.Q.Q.K.K.G.Q.K.Q.K.K.oX`.B + 5 ; ' {.{.K.K.K.K.K.K.K.K.",
"z.Q.K.Q.G.G.G.G.Q.Q.(.` ; 3 + Z (.+XG.K.Q.K.Q.G.D.{.D.Q.T.].[ q 6 p | Q.Q.K.Q.H.Q.Q.G.G.G.G.K.Q.(.B + 3 ; ] (.Q.K.K.K.K.K.K.K.K.",
"f.Z.Z.G.G.H.G.K.{.{.^._ ; 5 + Z (.+XQ.K.G.G.Q.K.Q.D.Q.Q.D.K.{ q 6 p 2.K.K.Q.K.Q.G.K.K.Q.K.Q.Q.).`.Z O 3 ; ' (.Q.K.K.K.K.K.K.K.K.",
"@.H.K.Q.Q.D.D.Q.Q.{.^.' ; 5 X K .X+XOX+X+X+X+X+X+XXX+X+XoX+X| p 4 a 0.+X+XXX+X+XXXXX+XXX+X+X+X+X.XZ + 5 * ' {.{.K.K.K.K.K.K.K.Q.",
"X.H.Q.Q.{.{.T.D.K.oX^.' ; 5 $ B u.N.j.i.j.i.i.i.i.j.j.i.j.j.( a 4 a ' i.j.j.i.i.i.j.i.i.j.j.j.j.i.N 1 5 : ] {.].K.K.K.K.K.K.K.Q.",
"G l.B.D.K.K.K.Q.Q.oX X_ ; 5 7 y B Z Z Z C C C C C C C C C C v e e t v C C C C C C C C C C C C Y B y 7 5 ; ' ^.K.K.K.K.K.K.K.K.D.",
" .w.f.h.n.T.T.T.Q.{. X_ = 5 e 7 1 < < $ 1 < 1 < < < 1 < < 1 4 8 8 8 4 1 < 1 < < 1 1 < 1 < < < < 1 7 9 5 ; '  X XK.K.K.K.K.K.D.Q.",
"X.@.4.w.k.T.n.n.H.^.^._ ; 5 e e e w w 6 w w w w 0 e 0 0 t 0 e e e e e 0 w w w w 0 0 e 0 w w w w w e 7 5 ; ] ^.+XQ.{.Q.Q.Q.Q.K.{.",
"X.^ ;.:.g.G.n.T.H.^.^._ = 5 6 g Y Q R R R R R W W W W W W W M t 4 t N R W R W R R W W Q W R W ! U s 6 5 ; _ ^.^.Q.K.Q.Q.T.K.Q.Q.",
"o.G +.@.p.b.n.XX).Q.Q._ ; 5 # B A..X(.(.(.(.^.^.|.|. X X{.'.` r 4 s { ].{.(.K.{.D.]. XOX X^.Q.+XA.B + 5 ; ' +XK.D.H.D.D.D.K.D.T.",
"*.X.O.O.4.v.M.+X+X).Q._ ; 5 + J .X{.A.K.K.K.T.T.R.R.|.J.'.'.{ q 3 p 8.].Q.Q.T.D.'.'.|. XQ.Q.G.oX.XZ + 5 : ' +X XD.D.Q.Q.Q.K.Q.oX",
"&.X.+.O.6.m.M._.).XX+X' ; 5 X Z .X.X(.K.K.K.D.D.{.D.Z.].C.[.} r 7 p 2.].K.Q.K.Q.Q.G.Q.G.G.G.Q.+X.XV O 5 ; ]  XQ.Q.{.{.{.{.{.oXz.",
"&. .o.o.p.M.M.M.M.+X^._ ; 5 + Z A. XC.K.K.Q.Q.D.T.].D.C.C.C.] r 3 p | ].Q.K.Q.D.Q./.G.G.G.Q.Q.+XOXB O 5 ; ] K.Q.T.Q.T.K.Q.Q.Q.w.",
"H &.H H 5.m.M._.M._._._ ; 5 + Z .X XD.T.Q.D.Q.Q.D.].C.C.C.`.] w 6 p | ].Q.K.D.Q.K.Q.Q.Q.Q.Q.Q.+X.XZ O 5 ; ] Q.+XQ.Q.K.Q.T.Q.H.%.",
"H &.&.H >.c.M._._._._.] ; 5 O Z ^.).T.T.Q.Q.Q.K.D.D.[.C.C.C.] r 6 p | {.D.Q.T.D.H.Q.Q.^.Q.G.H.b.N.Z X 5 : ' +X+X+X+X+X+X+X{.Q.:.",
"&.&.&...=.5.d.v.m.b.m.) ; 5 + V G._.T.G.oXT.{.D.D.'.D.].`.[.' r 6 s 7.K.Q.K.Q.D.Q. XQ.G.B.B.4.3.r.m + 5 - ( f.k.z.D.T.D.D.Z.l.%.",
"&...o.o.*.=.>.<.6.6.6.P & 5 + m l.M._._.n.n.T.{.].D.Z.[.C.C.} r 6 s 8.K.D.Q.T.Q. X^.J.f.f.3.3.$.3.x + 5 - P w.w.w.w.f.f.a.w.w.$.",
"&...&.&.O.....O.+.-.-.F & 5 + m a.c.v.M._.M.D.H.D.|.D.].C.(.} r 6 p 8.].Q.K.K.Q.+XK.h.q.3.3.$.$.3.b + 7 - P :.:.:.:.:.3.:.:.%.$.",
"H H H o.&.O... . .O.O.A % 7 + n 1.>.p.v.M._.n.z.n.D.Z.D.K.K.] r 6 s 8.Q.D.Q.K.Q.^.l.e.3.$.$.3.3.3.m + 5 - P 3.:.:.:.:.:.:.:.:.$."
};
