/* XPM */
static char *_a7133b95a98486aa1a9333e0a14cb88s8xS80QUvDpUIpVL[] = {
/* columns rows colors chars-per-pixel */
"64 64 241 2 ",
"   c #1C1614",
".  c #271818",
"X  c #371818",
"o  c #2A1F22",
"O  c #371927",
"+  c #2C2223",
"@  c #332424",
"#  c #3C2326",
"$  c #3C292A",
"%  c #392D31",
"&  c #3B2732",
"*  c #451B19",
"=  c #46172B",
"-  c #461635",
";  c #551538",
":  c #432326",
">  c #452629",
",  c #49262B",
"<  c #46292B",
"1  c #4C292D",
"2  c #4D2426",
"3  c #4D2D31",
"4  c #432637",
"5  c #552B34",
"6  c #5B2A36",
"7  c #5E2D39",
"8  c #562631",
"9  c #4D3135",
"0  c #483537",
"q  c #56333A",
"w  c #5D333B",
"e  c #56373A",
"r  c #56262D",
"t  c #782927",
"y  c #622E3B",
"u  c #6E2E31",
"i  c #65303D",
"p  c #6B2B2A",
"a  c #58201F",
"s  c #581646",
"d  c #720C5C",
"f  c #780E5F",
"g  c #700957",
"h  c #6C1255",
"j  c #6A1756",
"k  c #74125D",
"l  c #78105F",
"z  c #731656",
"x  c #6A1150",
"c  c #593C45",
"v  c #4E3143",
"b  c #643A42",
"n  c #653B44",
"m  c #6D275C",
"M  c #74245D",
"N  c #792A50",
"B  c #760F60",
"V  c #790F60",
"C  c #771260",
"Z  c #791061",
"A  c #7A1B66",
"S  c #771B64",
"D  c #772866",
"F  c #793767",
"G  c #7C3B71",
"H  c #6C3265",
"J  c #5A414A",
"K  c #5E4251",
"L  c #684649",
"P  c #73494D",
"I  c #6D514E",
"U  c #674956",
"Y  c #744D54",
"T  c #795858",
"R  c #70524F",
"E  c #694E62",
"W  c #6C5162",
"Q  c #745766",
"!  c #785172",
"~  c #7D637C",
"^  c #7F6365",
"/  c #7D605F",
"(  c #98322E",
")  c #8E2F2F",
"_  c #A73935",
"`  c #AC3832",
"'  c #BB413A",
"]  c #C9433C",
"[  c #D2443E",
"{  c #992D46",
"}  c #8F2745",
"|  c #A6334B",
" . c #A4354D",
".. c #843B6A",
"X. c #855A5A",
"o. c #855958",
"O. c #8F4549",
"+. c #88655F",
"@. c #82426D",
"#. c #824A7A",
"$. c #965978",
"%. c #885A71",
"&. c #8B6463",
"*. c #856766",
"=. c #916869",
"-. c #97726C",
";. c #977776",
":. c #8D6A77",
">. c #A77B73",
",. c #A5776E",
"<. c #B4565C",
"1. c #D94B43",
"2. c #CD4945",
"3. c #E34C45",
"4. c #E84E46",
"5. c #E65147",
"6. c #CC6872",
"7. c #AD827A",
"8. c #B4857B",
"9. c #BC8A7E",
"0. c #B6867B",
"q. c #9E807C",
"w. c #C08B7E",
"e. c #7B5B84",
"r. c #895C88",
"t. c #854F80",
"y. c #846786",
"u. c #8D7589",
"i. c #8C7493",
"p. c #947696",
"a. c #916F8A",
"s. c #A87689",
"d. c #9676A9",
"f. c #A679AA",
"g. c #C47282",
"h. c #998586",
"j. c #9A819F",
"k. c #A88987",
"l. c #B98C82",
"z. c #BB958C",
"x. c #B5938C",
"c. c #A69696",
"v. c #B89894",
"b. c #AC8F93",
"n. c #BBA19B",
"m. c #9C83A8",
"M. c #A689AC",
"N. c #A989B5",
"B. c #AD94BA",
"V. c #B394BA",
"C. c #A69DA3",
"Z. c #B9AAA7",
"A. c #BDB5B4",
"S. c #BFB1AE",
"D. c #C28E81",
"F. c #C88F82",
"G. c #C49184",
"H. c #CB9385",
"J. c #CD9689",
"K. c #CE998C",
"L. c #C5978C",
"P. c #D19889",
"I. c #C69D97",
"U. c #D19E92",
"Y. c #C4A39D",
"T. c #C8A79F",
"R. c #D5A69B",
"E. c #D6A69B",
"W. c #C6A6A1",
"Q. c #CBABA5",
"!. c #CFAEA8",
"~. c #C8A9A3",
"^. c #DAADA3",
"/. c #D1AFA8",
"(. c #D2ADA6",
"). c #CBB2AD",
"_. c #C4B2AE",
"`. c #D4B3AD",
"'. c #DBB4AC",
"]. c #DCB1A7",
"[. c #C3B6B3",
"{. c #C4BCBB",
"}. c #C9B6B3",
"|. c #DAB7B0",
" X c #DDB9B3",
".X c #D5B7B2",
"XX c #E2BDB5",
"oX c #E4BFB8",
"OX c #E8BFB6",
"+X c #E3B8AF",
"@X c #C59EA0",
"#X c #E6C1BA",
"$X c #E9C3BB",
"%X c #EBC9BF",
"&X c #F0C8BF",
"*X c #C8C0BE",
"=X c #A487C9",
"-X c #B59BCB",
";X c #B99ECE",
":X c #B79BC3",
">X c #AE91D2",
",X c #B497D9",
"<X c #AC90CA",
"1X c #BDA2C9",
"2X c #BDA3D4",
"3X c #AE91D2",
"4X c #C5AAD6",
"5X c #CBB1DC",
"6X c #CAA9CF",
"7X c #C7ABE6",
"8X c #CEB5E3",
"9X c #CDB1ED",
"0X c #D6BBEB",
"qX c #D9BEEC",
"wX c #D2B7E7",
"eX c #CFB2F3",
"rX c #D1B4F6",
"tX c #D8BCF3",
"yX c #CBC6C6",
"uX c #D6CDCD",
"iX c #D5D3D3",
"pX c #DDDBDC",
"aX c #DAD5D6",
"sX c #D5CED3",
"dX c #EEC9C1",
"fX c #E8C7C4",
"gX c #F1CBC3",
"hX c #E4DADA",
"jX c #F3D1C5",
"kX c #DDC4EE",
"lX c #DEC4F2",
"zX c #DDC2FA",
"xX c #E1DFE3",
"cX c #E0C6F6",
"vX c #E3C9F8",
"bX c #E4E5E5",
"nX c #E9EAEA",
"mX c #E9E7E7",
"MX c #EEF0EF",
"NX c #F3F7F5",
"BX c #E0E0DE",
/* pixels */
"eXrXrXrX9X7Xd.c e q q q q q q q e q q q q q q 9 $ % % % % % % % % % % % % % % % 9 e e q q q q q q q q q q q q c M.cXlX9X7X,X>X,X",
"eXrXrXrX9X4XW 1 1 1 1 1 1 1 1 1 1 1 1 1 1 1 1 1 $ @ + + + + + + + + + + + + + @ > < 1 1 1 1 1 1 1 1 1 1 1 1 1 1 u.kXzXtX7X,X3X,X",
"eXrXrXrXeX<Xq 1 1 1 1 1 1 1 1 1 1 1 1 1 1 1 1 1 : + + + + + + + + + + + + + + + @ @ $ 1 1 1 1 1 1 1 2 1 1 1 1 9 u.kXzXtXrX,X,X3X",
"eXrXrXeX9Xm.3 1 1 1 1 1 1 1 1 1 1 1 1 1 1 1 1 > @ + + + + + @ + + + + @ + + + + + + + # , 1 1 1 1 1 1 1 1 1 1 5 :.tXlXzXrX,X3X3X",
"eXeX9XrX7Xi.3 3 1 1 1 2 1 1 1 1 1 1 1 1 1 1 > @ + + + + + + + + + + + + + + + + + + @ # 1 1 1 1 1 1 1 1 1 1 1 1 E 5XcXtXtX7X,X>X",
"eXrXeX9X9Xi.3 1 1 1 1 1 1 1 1 1 1 1 1 1 < # + o + + + + + + + + + + + + + + + + @ > < 1 1 1 1 1 1 1 1 1 1 1 1 1 3 Q ~ i.-XeX7X,X",
"eXeX9X7XM.E 1 1 1 1 1 1 1 1 1 1 1 1 1 1 # + o + + + + + + + + + + + + + + + + @ # < 1 1 1 1 1 1 1 1 1 1 1 1 1 1 1 1 1 3 U i.7X9X",
"eXeX<X~ U , 1 1 1 1 1 1 1 1 1 1 1 1 1 1 $ @ o + + + + + + + + + + + + + + + + + @ # > 1 1 1 1 1 1 1 1 1 1 1 1 1 1 1 1 3 3 q i.9X",
"7XM.U 1 1 1 1 1 1 1 1 1 1 1 1 1 1 1 1 1 1 # @ @ @ + + + + + + + + + + + + + + + . @ < 1 1 1 1 1 1 1 1 1 1 1 1 1 1 1 1 1 1 1 v m.",
"N.U 1 1 1 1 1 1 1 1 1 1 1 1 1 1 1 1 1 1 1 1 1 < < @ + + + + + + + + + + + + + + + @ 1 1 1 1 1 1 1 1 1 1 1 1 1 1 1 1 1 1 1 1 1 E ",
"! , 1 1 1 1 1 1 1 1 1 1 1 1 1 1 1 1 1 1 1 R / e : $ + + + + + + + + @ + + + + 0 L $ 2 3 1 1 1 1 1 1 1 1 1 1 1 1 1 1 1 1 1 1 1 9 ",
"3 3 1 1 1 1 1 1 1 1 1 1 1 1 1 1 1 1 1 > 9 k..X+.@ o + + + + + + + + + + + + @ +.9.+.< < 1 1 1 1 1 1 1 1 1 1 1 1 1 1 1 1 1 , 3 1 ",
"3 1 1 1 1 1 1 1 1 1 1 1 1 1 1 1 1 1 > 3 / '.&XL.L + . + + + + + + + + + . $ T U.$XT.L < 2 < 1 1 1 1 , , 1 1 1 1 1 1 1 1 1 1 1 1 ",
", 1 , 1 1 1 1 1 1 1 1 1 1 1 , 2 1 < 1 R Q.&X$XE.8.R $ + o o o + + + + . 0 +.w.^.%X%XY.I < 2 > $ : , 1 , , 3 1 1 1 1 1 1 1 1 1 3 ",
"1 1 3 , 1 1 1 1 1 1 , 9 < # : # # e -.!.%X$X$X#X^.w.7.I < o o o + + % I 7.P.P.U.^.%X%X(.-.0 # # # > J +.I , 1 1 1 1 1 1 1 1 1 1 ",
"1 1 1 3 1 1 1 1 1 , < *.v.k.;.;.q.k.~.%X$X$X$X&XE.w.w.9.>.-.T T T *.q.9.w.w.w.P.R.#X$X#Xn.x.7.q.;.x.T.Y.T : 1 1 1 1 1 1 1 1 1 1 ",
"1 1 1 1 1 1 1 1 1 1 e v.jX#X XoX$X X!./.oX$X$X'.U.H.H.P.P.H.G.w.w.H.P.J.H.H.H.K.].$X$XT./.$X#X#X#XdXgX%Xk.e 1 1 1 1 1 1 1 1 1 9 ",
", 1 1 1 1 1 1 1 1 : +.`.%X$X%X%X$X$X|.W.`.#X$X+XK.G.H.H.H.J.H.H.P.H.H.H.H.H.H.E.#X#XQ.Q.#X#X$X&X%X$X$XdX X-.< 1 1 1 1 1 1 1 1 W ",
", 1 1 1 1 1 1 1 < 9 x.$X$X$X$X#X$X$X$X'.W.`.$X$X^.J.H.H.H.H.H.H.H.H.H.H.H.H.K. X%X).T. X$X#X#X#X$XoX/.`.gX'./ 1 > 2 1 1 1 1 e M.",
"# 3 1 1 1 1 1 = 3 -.|.%X#X`.'.$X$X$X$X$X'.Y.(.XX+XR.G.H.H.H.H.H.H.H.H.H.H.H.R.'./.Y.'.&X$X#X$X$X'.!.Z.!.$X%X`.:.J : : > 1 2 b V.",
"J 3 1 1 1 , : e -.'.$X#X#X_.Z..X+X$X$X$X$X/.z.I.E.K.H.H.H.H.H.H.H.H.H.H.H.H.P.L.z./.$X$X$X$X#X`.}.A._. X$XoXdXXXx.-.T 3 1 1 ) <.",
"B.c < 1 1 e T x.#X&X$X$X$X.XA.*X}.`.XX$X$XdXW.l.9.H.H.H.H.H.H.H.H.H.H.H.H.H.w.9.T.$X$X$X#X|.).[.pXyX`.$XOX$X$X$XdX%Xv.e : < u ' ",
"kXe.> , 3 ^  XdX$X#X#X$X$X'.}.pXaX{.)..X+XOXdXW.l.G.J.H.H.H.H.H.H.H.J.H.J.G.0.Y.$X$X#X|.}.[.uXnXpX}.`.$X$X$XoXOX%X X*.3 1 < 5 ' ",
"5XQ 1 , < I  XdX$X$X#X#X#X$X`.{.nXmXiX{.}..X XXXY.l.w.J.H.H.G.H.H.G.G.H.J.9.z. X X|..X[.yXbXnXbX{..X$X$X#X$X$X$X%X.XJ > 1 < > _ ",
"1XU 3 1 : e Y.$X$X$X$X$X$X$X].).aXnXnXmXpX{.S.)..Xx.>.D.H.G.8.G.H.9.8.w.9.7.W. X_.A.uXbXnXnXbXuX`.+X$X#X$X$X$X$X#Xx.e : 1 1 : ) ",
"1XE 1 1 > 9 ;.XX$X$X#X$X#X$X$X'.S.BXnXnXnXmXbXaX{.Z.h.-.9.0.8.G.J.H.>.8.-.k.S.yXpXbXbXnXnXbXiX). X$X$X$X$X$X$X%XXX*.1 < 1 1 $ n ",
"1XE 1 1 1 3 ^  X&X#X#X$X$X#X$X#X).S.xXnXnXnXnXnXbXxXyXk.>.8.G.H.H.H.9.-.;.A.BXbXnXnXnXbXnXuX}. X$X$X#X#X#X$X#X$X Xq.9 < < 3 3 m.",
"6XW 1 1 < L x. X$X$X#X#X$X#X$X$X#X!.Z.iXmXnXnXmXnXiXn.l.w.w.H.H.H.H.H.w.z.x.S.pXnXnXnXpXA.}. X$X$X$X#X$X#X$X$X#X|.Y.R 1 , 3 Q 4X",
"8X~ 1 > 3 =..X!.XX$X#X$X#X#X$X$X$XoX`.).[.[.A.A.Z.x.l.w.P.P.H.H.H.H.H.P.H.w.G.z.x.n.n.W.|.OX$X$X$X#X$X#X$X#X$X XT.|.*.1 < K B.lX",
"kXm.e < 9 q.XXT. X$X#X#X$X$X#X$X$X$XfX+XT.z.G.z.9.9.H.J.H.H.H.H.H.H.H.H.H.H.w.9.0.0.0.z.E.].#X#X#X#X#X$X$X$X$X|.W.|./ 1 c p.kXlX",
"lX5X~ # 9 ;. XT. X$X$X$X#X#X$X$X$X$XXX^.U.P.J.P.J.J.J.J.H.H.H.H.H.H.H.H.H.H.P.H.K.K.K.J.H.K.E.#X$X#X$X$X$X$X$X XW.`.J J j.0XlXlX",
"lXlXM.u 2 R  X!.'.$X$X$X$X$X$X#XoX$XXX^.^.].'.'.'.].E.L.H.H.H.H.H.H.H.H.H.H.P.E.].].].].].E.^.OX$X$X$X#X$X$X$X XY.k.Q V.cXlXlXlX",
"cXkX:X<.( O.Y..XQ.XX$X$X#X$X$X$X#X$X$X$X$X%X%X%X%X$XE.H.H.H.H.P.H.H.H.H.H.w.U.OXgX$XdXdX%X%X$X$XoX$X#X$X$X$X#X`.x.I m.kXlXcXkXkX",
"cXkX6X6.4.] o.!.!. X$X$X$X$X#X$X$X$X$X$X%X.X`..X).z.8.8.G.K.K.U.H.P.H.P.P.P.K.R.).).`.`.XX$X$X$X$X$XoX$X$X$X#Xx.T 0 1XlXkXlXkXcX",
"lXlX8X6.3.` n :.x.'.$X$X$X$X#X X`.$X$X#Xv.b.A.yXc.T P T +.,.>.6.0.9.9.0.8.>.-.&.h.yX*XZ.k.|.%X$XoX$X$X$X$X%X.X:.# K 5XlXcXkXlXkX",
"lXcXwX6.] o.B.U J W.gX$X#X#XdX`.Y.$X$Xn.L :.pXNXc.b y y 7 7 n P o.o.o.R L w 7 8 *.BXMXA.L ;.oX$X$X$X#X$X$X%X!.T e u.0XlXkXlXkXcX",
"lXcXqXg.O.V.kXB.c c.%X$X|.|.$X'.T.$X`.T 7 Y 6XNXh.1 i i y i y y i i i i y y y y Y A.bXc.b n W.%X$X$X$X#X$XgXn.I u.4XkXlXlXkXlXkX",
"lXlXlX6Xs.qXlXlXM.:.|.%X`.~.'.|.!.|.Y.b 6 y c.iX:.5 i i i i i i y y y u i i y y L c.sXQ 7 7 >.XX$X$X$X$X$XoXs.H 6XkXlXkXkXcXkXcX",
"lXlXlXlXkXlXlXcX5XW n.gXoXXXXX'.Q. X7.b y y L h.*.6 i i y b y y i i i i i i i y i ^ u.b y b T /.&X#X$X$X%XW...k G ;XcXcXkXcXlXkX",
"lXlXlXlXcXlXlX8Xt.j ;.XX%X$X#X`.~. X=.i y b y w b i i i y b y y i i i i i i i i i i b y y 7 b W.gX$X$X$X'.$.h Z f G V.kXlXkXkXcX",
"lXzXlXcXlXcX5Xr.z B M x.dX$X X`.#X|.*.b y i y y y i y i i i u N i i y i i i i i i y y i i y w v.%X#X%X Xs.j d Z f f F N.lXcXlXlX",
"lXlXcXlXlX4X#.l Z Z d F v.%X#X#XdX|.*.i y y i i b y i i i i i i i i i i i i i i i i i i i 7 w I.dX%X Xs.M d Z l f V Z D f.kXlXkX",
"lXlXcXlX4Xt.k Z Z Z Z g D s.#XdXdX|.;.i y i i i b y b y i i i i i i i i b y y y i i i i y i P !.jXQ.$.M d l l l f l Z l ..f.qXlX",
"lXlXlX4X#.k Z Z l l l l g M $.I.$X%Xk.i y i i i y y y b i i i i i i i i y y b y i i i i 7 i k./.k.@.h d l l l l l l l l V ..f.6X",
"cXtX4X! k Z Z l l l l Z Z g g ..s.W.W.R 7 7 7 7 6 6 5 8 6 8 8 5 6 6 6 6 y y y y u s i i i T ;.$.M g f V l l l l l l l Z V V D $.",
"lX4X#.k f l l l l l l Z Z l l g x @.$.Q P P T T X.%.&.X.X.o.o.X.o.o.o.Y P P P Y P P q J ~ u.H g f V V f Z l l l l l l Z V V V g ",
"1Xt.k Z l l l l l l l l Z l f f f d x m u.u.a.k.k.v.Y.z.9.z.J.P.J.G.9.>.=.+.+.*.o.W a.M.5XB.A Z l l f f l l l l l l V Z V B V B ",
"#.d Z l l l l l l l l l l l f f f V Z M 5XlX5X:X:.$.$.=.X.o.+.&.&.&.+.T T P L N h %.zXlXlXM.A Z l l f f l l l l l l B V B B B V ",
"k V V V Z Z Z l l l l l l k k l Z Z Z m 4XlXlXzXy.S k s 4 & & & & 4 4 & v 4 v m F M.cXtXlXf.A Z l Z l l l l l l l l l l l l l l ",
"g d g g g d l l l l l l Z k j l Z Z l D 4XlXlXlXN.r.i.r.e.%.~ y.i.i.i.i.p.m.M.B.:XwXcXcXlXf.A Z l k B l l l l l l l l l l l l l ",
"! ..G F D d f f l l l l l k h l V V V D 4XlXlXlXlXtXtXtXkXkXkXkXkXlXlXkXlXlXlXlXtXcXcXcXlXf.A Z x x k d Z l Z l l l l l l l l l ",
"hXpXhXBX[.m d V l l l l Z j x k V V f ! 5XlXlXlXcXcXlXcXcXcXkXkXkXlXlXlXlXlXlXlXkXkXcXcXtXN.A V g } N k Z Z l l l l l l l l l l ",
"mXnXMXNXiXF d f l Z Z Z k s ; k Z Z k r.0XqXcXqXtXcXkXcXkXkXvXkXlXlXlXlXlXlXzXlXcXlXlXlXlX:XD V g { ' { j l Z l l l l l l l l l ",
"hXnXmXMXsXF d V l Z Z h - . & k Z C D M.lXcXlXcXlXcXkXcXkXkXkXkXlXkXlXkXlXlXlXlXlXcXlXlXtX5XD V d | [ _ ; j V V l l l l l l l l ",
"hXnXmXMXsX! B f l Z z ; O   - g l Z M 6XcXkXcXkXlXcXkXkXkXkXkXkXlXlXlXkXlXlXlXlXlXlXlXlXcX0XG Z k | 3.( X O x V l l l l l l l l ",
"fXhXxXMXiX$.B B l z  .t X . O k l k G wXtXcXcXkXcXqXkXkXkXkXkXkXkXkXlXlXlXlXlXlXlXlXcXzXcXlXy.C g  .5.( . . = g B Z l Z l l l l ",
"fXhXbXMXaXa.Z d h { 3.` *   O z B S r.tXcXcXcXcXkXvXkXkXkXkXkXkXlXlXcXkXlXlXlXlXlXlXvXlXkX0Xd.S z | 3.(   . t } h B l l l l l l ",
"aXhXbXnXBXp.C h { 1.4.` 2   & z B S d.tXtXtXtXcXkXkXkXcXkXkXkXkXlXkXkXlXlXcXlXlXzXvXlXkX8X7XN.D l | [ ) X t [ 2.{ k f f l l l l ",
"iXiXiXhXBXc.x ) 1.4.4.] a   O g C D ,XtXcXtXzXcXkXcXkXkXkXkXkXkXlXcXkXkXlXlXlXlXlXlX0X8X2X2X<XH k | [ ( t [ 4.4.] x z f l l l l ",
"uXpXpXbXbXC.& a ` [ 4.[ t   O h C H 2XrXzXzXtXqXkXkXkXkXkXkXkXkXlXkXkXcXlXcXlXlXzXkX8X2X2X-X1XE z | [ ] ] 3.3.3.( 2 x f l l l l ",
"uXmXmXnXnXZ.+   X t ` 3.)   O x B H ,X7XrXtXtXtXlX8X8XlXtXlXlXlXcXkXcXkXlXlXlXlXlX0X5X2X-X-X-Xr.j | 1.4.3.3.3._ X O h V l l l l ",
"aXxXmXnXNX1X%   o . * ) ) X X x d e.=X3X,X7XtXlXqX5X5XlXlXlXlXlXkXlXkXlXlXlXcXlXlXwX2X2X<X-X-Xd.M  .1.3.3.3._ * X s B V l l l l ",
"bXbXmXmXMXyX&   . . . . X . O s m d.=X=X<X>X7XqXqX9X0XlXlXlXlXlXlXkXkXlXlXlXlXlXlXwX2X-X-X-X-Xm.H  .3.4.1._ * O s d V V V V l l ",
"pXxXxXbXnXyX0 o + + O o o + O j H d.=X=X=X=X,X7X0X0XqXqXlXlXcXcXkXcXlXcXzXlXlXlXlX8X2X2X-X2X-X<XG  .1.5._ 2 O j A A A A A V V .."
};
