/* XPM */
static char *ca28d277ee414bdeca38f9ed56fb73556fBnHoeGlXc9kuzz[] = {
/* columns rows colors chars-per-pixel */
"64 64 182 2 ",
"   c #845984",
".  c #895E85",
"X  c #8D6696",
"o  c #946C96",
"O  c #9B7694",
"+  c #9E7C96",
"@  c #967599",
"#  c #9F7D98",
"$  c #A17F9A",
"%  c #916CA1",
"&  c #9772A5",
"*  c #9A76A1",
"=  c #9776AC",
"-  c #9B7CB7",
";  c #9779BF",
":  c #9A7EBB",
">  c #A17DAC",
",  c #9D7FC5",
"<  c #9F809A",
"1  c #A3839D",
"2  c #9E82BF",
"3  c #A687A1",
"4  c #A789A2",
"5  c #AA8CA4",
"6  c #A281AE",
"7  c #AB8CAB",
"8  c #AC90A7",
"9  c #AE93AA",
"0  c #B196AC",
"q  c #B399AE",
"w  c #A484B2",
"e  c #AC87B1",
"r  c #A788B5",
"t  c #AC8BB4",
"y  c #A185BB",
"u  c #A68BBE",
"i  c #AD8CBA",
"p  c #B18CB7",
"a  c #B18DBB",
"s  c #AD93B1",
"d  c #AE91BD",
"f  c #B295B3",
"g  c #B59CB1",
"h  c #B89FB7",
"j  c #B493BD",
"k  c #B79BBB",
"l  c #B99DBD",
"z  c #B7A0B3",
"x  c #BAA3B5",
"c  c #BBA5BA",
"v  c #BEA9BB",
"b  c #C1ADBE",
"n  c #C2B0BF",
"m  c #9F81C5",
"M  c #9E80CB",
"N  c #A285C5",
"B  c #A689C6",
"V  c #A98FC2",
"C  c #A284CB",
"Z  c #A689CC",
"A  c #A98DCB",
"S  c #B48FC0",
"D  c #AC93C5",
"F  c #AD92CB",
"G  c #B297C0",
"H  c #B997C1",
"J  c #B499C4",
"K  c #BB9CC5",
"L  c #B196CE",
"P  c #B69BCD",
"I  c #BA9ECC",
"U  c #A485D1",
"Y  c #A789D1",
"T  c #AA8DD2",
"R  c #AE91D3",
"E  c #B195D4",
"W  c #B69AD5",
"Q  c #B99ED1",
"!  c #B294D9",
"~  c #B699DC",
"^  c #BA9EDD",
"/  c #BEA4C3",
"(  c #BFA9C2",
")  c #BDA2CC",
"_  c #B7A0D0",
"`  c #BDA2D3",
"'  c #BEA1E1",
"]  c #C0A6C4",
"[  c #C2ACC4",
"{  c #C2A6CB",
"}  c #C4ABCC",
"|  c #C4B2C2",
" . c #C6B1CB",
".. c #C9B3CC",
"X. c #CDBBCE",
"o. c #C2A7D5",
"O. c #C6ABD2",
"+. c #C9AED4",
"@. c #C2A5DA",
"#. c #C5ABDB",
"$. c #C9AFDC",
"%. c #CBB2D5",
"&. c #CEBAD5",
"*. c #CDB4DB",
"=. c #CFB8DC",
"-. c #D0B6DE",
";. c #D1B9DD",
":. c #C2A5E3",
">. c #C5A9E4",
",. c #C9ADE3",
"<. c #C7AAEB",
"1. c #CBAFEA",
"2. c #CDB3E2",
"3. c #CEB2EC",
"4. c #D1B6E2",
"5. c #D4BBE3",
"6. c #D1B6ED",
"7. c #D6BCEB",
"8. c #D9BFED",
"9. c #CFB2F2",
"0. c #D0B3F5",
"q. c #D0B3F6",
"w. c #D1B4F7",
"e. c #D2B5F7",
"r. c #D2B6F1",
"t. c #D5BAF1",
"y. c #D6BBF4",
"u. c #D9BEF1",
"i. c #D9BEF5",
"p. c #D9BEF4",
"a. c #D6B9FB",
"s. c #DABEF9",
"d. c #DABDFC",
"f. c #D9CEDC",
"g. c #DDD4DD",
"h. c #D6C0E4",
"j. c #D8C1E5",
"k. c #DBC1ED",
"l. c #DCC3ED",
"z. c #DCC2EF",
"x. c #DDC4EE",
"c. c #DEC5EF",
"v. c #DCC3ED",
"b. c #DBC1F1",
"n. c #DDC3F0",
"m. c #DCC2F1",
"M. c #DCC3F1",
"N. c #DCC2F2",
"B. c #DDC3F2",
"V. c #DDC3F3",
"C. c #DEC4F1",
"Z. c #DEC5F1",
"A. c #DFC5F2",
"S. c #DEC4F3",
"D. c #DFC4F3",
"F. c #DFC6F0",
"G. c #DDC2F5",
"H. c #DDC2F7",
"J. c #DEC3F6",
"K. c #DCC1F4",
"L. c #DEC4F4",
"P. c #DFC5F4",
"I. c #DFC4F7",
"U. c #DEC4F3",
"Y. c #DDC2F9",
"T. c #DDC2FB",
"R. c #DFC4FB",
"E. c #DEC2F9",
"W. c #E0C6F3",
"Q. c #E0C7F1",
"!. c #E1C7F4",
"~. c #E0C6F5",
"^. c #E1C7F6",
"/. c #E0C6F5",
"(. c #E2C8F5",
"). c #E0C5FA",
"_. c #E0C4FF",
"`. c #E1C5FD",
"'. c #E3C9F8",
"]. c #E4CAFA",
"[. c #E3C8FF",
"{. c #E3C9FA",
/* pixels */
"9.e.e.q.9.3.3.2.5.7.z.W.W.A.A.A.G.W.M.W.G.M.~.M.W.~.M.W.M.~.M.G.W.M.W.G.G.~.M.W.A.V.P.A.V.P.A.V.V.G.P.P.c.l.k.k.Q.Q.V.6.:.E ! ! ",
"9.e.e.9.3.3.6.7.7.8.A.!.W.W.A.A.G.W.~.M.M.~.M.W.G.M.M.G.G.W.W.G.M.~.M.~.W.M.M.G.P.N.N.P.P.N.P.N.V.Y.G.P.c.c.l.k.Q.P.G.t.<.~ ! ! ",
"9.0.w.9.3.3.6.7.8.N.M.W.W.A.A.A.~.M.M.~.W.~.M.G.M.W.~.M.~.M.M.~.W.~.M.M.M.~.~.M.V.P.P.V.A.N.P.P.G.G.A.P.c.v.l.l.c.P.P.i.1.^ R R ",
"q.0.0.9.3.3.7.8.N.G.A.~.W.A.A.z.M.G.W.M.G.M.W.G.~.G.G.W.M.G.W.M.G.M.W.G.W.M.G.W.A.P.N.A.V.P.A.V.G.G.G.M.c.v.c.c.c.A.R.Y.9.' ! R ",
"9.9.3.9.3.6.u.N.~.~.W.W.W.A.A.M.W.M.~.G.M.~.~.M.M.W.M.~.M.W.G.~.A.A.P.G.G.M.~.M.A.G.A.A.A.A.A.G.P.N.N.N.A.N.c.c.M.P.P.R.t.>.~ R ",
"9.q.9.3.3.6.i.~.~.~.W.M.A.A.G.M.G.G.M.W.~.G.M.P.M.G.G.W.W.M.M.W.G.G.A.P.G.W.G.W.P.A.A.G.G.G.A.A.A.G.A.k.A.k.c.A.P.P.G.R.s.3.:.^ ",
"9.9.1.3.3.6.G.'.].~.M.M.A.P.M.M.M.W.W.M.M.W.A.M.~.M.W.G.8.O.} *.A.A.A.5.{ 8.*.M.P.P.P.V.A.A.G.A.N.V.N.N.k.N.A.A.A.N.N.R.R.s.9.3.",
"9.9.9.1.3.7.G.].'.~.z.M.M.G.M.M.~.M.G.~.M.G.M.A.8.M.8.+.[ c K / 4.{ k z.O.] b -.*.%.2.A.A.G.A.A.V.V.N.N.k.A.A.A.A.N.N.R.`.R.T.s.",
"3.3.3.1.6.6.K.'.W.W.i.n.Q.Q.Q.K.M.G.~.M.W.M.} ] 2.c 9 v 5 1 1 z g + g 1 8 1 0 1 g +.A.A.M.P.G.G.A.A.M.A.A.A.A.N.M.M.M.Y.G.Y.Y.Y.",
"9.3.3.3.6.t.W.'.Q.Q.Q.Q.i.n.K.Q.~.M.M.~.4.*.4 g *.5 9 q 5 8 5 8 1 9 q g z q 5 8 1 l } G.~.G.A.A.G.G.P.M.M.k.A.A.M.G.G.G.Y.G.Y.Y.",
"r.6.6.6.7.u.W.~.M.M.Q.8.Q.i.Q.K.M.M.5.~.5.X.5 5 z v 9 4 8 5 q 1 q 8 1 q 1 1 9 + 9 c z 4 3 4.A.M.A.A.M.A.A.M.N.P.A.G.P.A.G.Y.G.P.",
"r.6.6.6.y.W.~.~.Q.Q.i.Q.i.Q.Q.i.*.8.} l c 9 1 8 1 q 1 q 9 5 8 5 9 g g 5 1 q 1 0 5 5 1 0 9 g 5.A.A.M.A.A.G.P.P.V.M.P.P.G.P.P.G.Y.",
"6.6.6.t.i.~.~.~.Q.Q.n.n.n.n.n.-.+.-.7 c z $ $ c 5 9 5 8 < 5 1 1 9 1 9 $ 5 $ 5 8 8 q x 1 q b 5 +.z.c.M.A.A.V.P.A.A.G.G.P.P.P.G.P.",
"r.r.t.i.W.~.'.~.Q.Q.n.n.Q.i.*.[ 7 q x x 1 4 4 + q q 5 v 1 g c 9 q g 5 7 1 5 8 1 9 9 v q 1 9 n q ;.+.A.M.P.N.N.P.P.P.P.P.G.P.G.P.",
"i.K.W.`.~.~.W.Q.K.Q.Q.i.M.Q.%.[ 1 5 9 1 9 q g 4 g 1 q [  .1 g q c 5 ] 5 1 1 z q 1 1 q x q 1 1 q n } / k.V.P.V.P.P.P.P.P.P.P.P.P.",
"s.`.[.[.'.~.K.Q.K.Q.Q.M.+.l f $ q 1 0 8 0 5 9 q g 1 g *.%.[ 5 x 5 z / x q q n n x x 9 1 z 9 O 1 $ 9 1 ..P.V.P.V.P.P.P.P.P.P.P.P.",
"~.~.W.K.Q.i.K.n.A.A.M.k.{ / c 5 3 5 9 1 9 q q c 9 ..k.V.A.*.*.k.} %.=.4.*.k 9 4 1 3 9 9 9 q 8 0 9 8 n %.G.P.A.A.G.A.N.P.A.N.P.A.",
"Q.~.W.K.K.Q.i.Q.G.A.G.( 7 5 z 3 z # 9 q c b z | +.O.P.P.P.} N.A.A.P.;.F.V.P.=./ O.O.c 7 c 1 1 z 1 q z } 5.A.G.A.G.A.P.V.V.P.P.V.",
"W.Q.K.Q.i.W.Q.Q.A.A.~.b 4 + 9 + 0 q 5 z v 9 5 ] 5.4.L.A.A.h.*.P.V.A.=.V.A.V.h.V.A.5.2.} h g 8 0 5 n 9 5 1 +.P.M.A.A.A.A.P.N.N.P.",
"K.K.Q.K.Q.W.K.W.A.5.K 0 0 9 5 c $ q 8 q 1 1 -.z.=.A.V.V.V.+.*.A.A.V.5.A.V.A.4.N.A.=.+./ g < 3 8 1 x | b 1 k 5.P.A.G.G.A.A.P.V.A.",
"Q.i.M.G.W.W.W.W.+.*./ ..1 q 4 4 9 g [ 7.j.%.c.A.O.P.L.L.A.*.5.7.V.=.k.V.L.V.5.k.P.5.} V.} 9 v ( v 1 x 1 g 9 +.M.P.V.N.P.V.P.A.V.",
"M.Q.M.G.i.W.W.4.-.l 5 c 1 5 1 0 z } } A.W.5.A.A.h.V.V.A.k.5.A.5.h.V.A.V.A.V.v.+.V.A.5.P.+.%.5  .x 1 1 5 1 g k c.N.A.P.V.P.N.N.P.",
"M.W.M.W.W.M.8.4.+.1 q 0 1 x + $ 1 { *.N.P.=.A.G.Z.*.k.4.=.P.N.P.V.L.V.A.V.A.V.*.A.V.4.5.5.} 5 9 9 q q q g 1 9 ] N.A.P.A.A.P.P.A.",
"W.G.G.Q.G.G.Q.G.} 1 5 5 0 1 0 b ..{ 5.A.G.+.A.A.V.V.v.k.L.A.P.V.A.A.V.L.A.V.V.k.k.V.A.} =.} ( v b 1 5 9 + q q ;.+.A.N.P.V.N.P.V.",
"G.G.M.W.W.M.M.7.{ g 5 1 x 5 x q *.M.+.G.A.5.A.M.P.G.A.P.A.V.P.A.L.V.A.L.V.V.A.L.k.*.=.V.A.4.f 8 1 q 8 x 5 v < k J A.A.A.G.V.P.N.",
"M.W.Q.G.G.G.5.O.} 1 b 1 g 0 3 7 0 } *.M.8.5.M.A.M.P.P.M.P.N.N.P.L.A.V.L.A.L.A.V.P.N.A.L.V.5.7.&.q 1 1 $ 5 1 x 1 ( 5.G.A.A.A.A.P.",
"M.G.G.M.M.W.7.} 1 q 8 1 5 3 5 0 g %.5.A.k.M.~.M.G.A.G.A.V.P.P.V.V.V.A.A.L.A.L.V.V.P.P.V.A.%.A.*.n 1 1 8 8 1 1 8 f =.*.P.P.V.V.P.",
"W.Q.G.W.~.+.&.f 3 0 5 4 3 3 3 [ 5.M.5.G.-.W.G.G.A.A.G.A.A.P.N.A.A.L.L.V.V.V.L.A.A.P.N.A.V.h.V.5.n 1 1 $ 1 9 9 1 h k.P.P.N.A.P.N.",
"G.M.M.~.M.M.;.9 9 0 q 3 1 1 $ b P.5.k.z.5.M.M.W.A.G.P.N.P.A.N.P.V.L.L.A.A.A.L.V.A.G.A.A.A.z.8.M.g 0 5 8 8 q 1 8 0 k.P.M.P.P.N.P.",
"G.W.G.W.G.W.7.g 4 O 1 4 5 3 3 b 8.8.M.;.~.M.~.M.A.A.V.A.P.V.P.V.A.A.V.V.L.V.L.A.A.G.A.G.M.M.;.P./ } x q 1 q 0 q l A.G.P.A.V.V.A.",
"W.W.G.M.M.Q.M.9 8 q z 4 g l  .f *.%.O.7.M.M.~.G.G.G.A.A.N.V.P.A.L.V.A.L.V.L.V.A.A.A.G.P.P.G.*.5.G.{ 1 3 9 0 3 8 s 5.G.P.N.P.P.N.",
"G.M.Q.G.W.G.W.7 x 1 g 1 g 5 ..8.A.5.M.P.G.W.M.W.A.A.A.G.P.A.N.P.L.A.V.L.A.A.V.L.G.A.A.M.P.A.A.-.z./ 5 9 $ 1 q q 0 %.*.A.P.V.A.P.",
"W.M.G.W.Q.4.&.0 5 8 q 1 1 1 5.G.M.O.M.~.M.~.W.M.M.G.~.M.G.Q.M.G.V.A.L.V.A.A.L.V.V.A.L.L.V.A.L.V.O.f 9 9 5 g 1 1 1 h 5.A.A.M.A.M.",
"G.G.Q.M.W.*.O.4 8 5 9 5 1 1 7 M.5.z.W.M.W.M.G.~.~.W.M.G.M.G.W.W.V.L.A.V.L.V.L.A.L.A.V.A.V.L.A.V.k.h c x # q 5 0 3 { { A.A.A.z.A.",
"W.G.W.G.K.-.K 1 3 0 9 $ b c x 8.5.A.W.G.G.M.G.M.M.W.M.W.W.G.G.M.A.A.L.L.V.L.V.A.L.V.A.V.A.A.L.L.A.8.( 3 9 9 # q c 5.5.M.A.z.A.A.",
"W.M.Q.i.Q.{ 4.0 0 1 4 1 q  .O.-.A.M.G.W.M.~.W.G.W.G.~.M.G.W.Q.G.L.V.V.A.A.A.V.L.A.V.L.L.L.V.V.A.A.k.9 9 8 f 9 1 v k.M.A.A.A.A.z.",
"G.G.Q.G.Q.Q.$.b $ 8 0 5 0 c M.Q.M.A.A.G.W.G.M.W.G.M.W.G.W.G.Q.W.A.V.V.L.L.L.V.A.L.V.A.A.A.V.V.L.z.+.g 9 q | 9 g 1 8.A.z.z.z.A.A.",
"M.W.W.M.i.Q.8.q g g b 1 8 5 4.W.P.G.A.A.M.~.~.M.M.~.~.M.M.G.G.M.L.L.A.A.V.A.V.L.A.V.L.V.L.L.A.A.c.{ q 1 q q 1 9 1 -.A.A.A.A.A.z.",
"M.G.G.Q.Q.M.*.$ 1 9 b g 0 f 7.M.G.A.G.A.G.M.M.G.W.M.M.W.M.W.W.M.V.A.L.V.A.V.A.L.A.L.V.L.V.A.L.V.{ / 5 5 8 q 5 x 1 [ k.M.A.A.A.z.",
"W.W.M.G.Q.F.} 8 g 1 5 0 1 0 O.-.A.A.G.A.W.M.~.W.G.~.M.G.G.W.G.G.V.L.A.V.L.L.A.V.V.L.A.A.V.L.A.V.h.| q g 9 3 9 5 1 l z.A.z.z.A.A.",
"i.M.~.W.M.5.0 O b 5 8 q 5 5 5.8.A.V.P.A.V.P.A.V.Q.i.Q.M.W.G.G.Q.A.A.L.V.L.V.A.A.L.L.V.A.V.A.L.L.n.g $ g 1 1 5 f ] { n.n.F.Q.i.n.",
"~.~.).~.W.i.f f 5 c 1 9 z 1 } M.N.P.N.P.P.N.N.P.G.W.W.G.G.Q.W.M.L.V.L.A.A.V.L.V.V.A.V.L.L.A.V.A.n.b 1 4 1 1 9 $ 1 *.n.i.Q.Q.n.n.",
"W.~.~.W.G.Q.{ l 1 $ 1 1 8 8 &.W.P.P.N.V.A.P.P.A.i.Q.Q.i.M.Q.G.G.V.L.V.A.A.L.V.L.A.V.A.L.L.V.A.V.n.[ b 8 1 g 0 g 5 5.-.Q.n.n.n.Q.",
"M.M.M.M.M.8.4.5 0 5 0 4 8 q ;.z.A.V.P.A.V.N.P.V.Q.G.W.Q.W.G.M.W.A.A.V.L.V.L.A.A.L.L.A.V.A.V.L.L.n.-.| 9 0 0 q 8 3 O.8.Q.n.K.Q.Q.",
"M.~.M.G.M.4.*.+ 3 5 g 4 9 X.2.P.N.P.P.N.P.A.V.P.Q.W.i.G.K.Q.K.Q.L.V.A.L.V.A.L.V.V.A.L.V.A.L.V.A.n.-.h 5 5 q 5 1 $ *.+.C.Q.n.n.n.",
"W.~.~.~.W.$.+.3 9 1 7 q 1 } A.A.P.V.A.P.N.P.P.N.i.W.Q.W.W.K.W.K.L.A.V.L.V.L.A.V.V.L.A.V.A.V.L.A.n.-.f q 8 0 5 g 3 z.l.C.Q.K.Q.Q.",
"7.i.M.W.~.-.5.] g 1 c  .] { N.N.A.V.A.V.V.A.A.V.K.W.Q.i.K.Q.K.Q.V.V.A.A.A.A.L.L.A.A.L.L.L.L.V.V.n.;.-.5 0 5 g O.O.%.C.C.C.C.K.n.",
"2.4.7.M.M.M.5.*.7 / *.*.H 5.A.N.N.P.P.N.P.P.N.P.Q.K.W.W.W.K.Q.Q.A.L.L.V.L.V.V.A.L.V.V.A.V.A.A.L.Q.8.Q.p 7 l { { O.Q.C.C.C.C.C.n.",
"L @.:.6.W.y.4.i.a j 8.;.-.;.W.Q.x.x.j.F.F.Q.W.).s.K.W.s.K.W.K.n.z.A.c.N.L.A.A.V.P.L.P.P.V.V.V.P.M.7.8.I e O.+.;.-.~.W.W.W.G.G.W.",
"N Q Q 3.i.i.*.u.a O.8.-.;.%.F.F.x.x.F.F.n.Q.W.s.).).).W.W.Q.Q.K.A.M.A.A.V.V.L.L.N.L.P.P.R.P.V.V.Q.W.-.K K { 8.-.8.~.~.W.G.W.G.W.",
": A F :.y.i.7.2.p -.5.+.5.;.l.l.c.x.n.M.Q.K.Q.Q.).s.W.K.C.Q.x.F.A.z.V.c.A.L.V.A.N.N.P.'.P.P.V.N.K.W.8.j { 5.8.;.-.z.z.M.G.M.M.M.",
"2 B B ^ r.y.`.5.p $.5.5.-.;.l.l.c.c.F.M.K.Q.K.K.W.W.K.W.C.C.c.x.A.A.A.V.A.V.L.A.N.N.P.P.R.P.V.V.Q.W.Q.H } 8.j.5.+.z.M.M.M.W.G.W.",
"N Z N ^ e.d._.`.a K *.5.;.5.F.F.F.F.W.Q.G.M.G.M.K.W.n.n.F.F.x.F.z.z.A.A.A.L.V.V.A.A.P.V.G.P.P.P.~.`.'.K K 5.5.5.5.P.~.~.~.).~.~.",
"N B C ' s.d.s.y.a O.5.z.-.8.F.F.n.M.Q.M.Q.G.Q.W.i.W.F.n.n.F.F.x.A.A.A.z.V.L.A.L.P.P.V.V.M.N.P.P.'.'.{.K I 5.8.-.5.P.A.A.W.W.~.~.",
"C C , ~ a.d.d.s.S ) 5.8.;.i.F.Q.G.Q.Q.G.G.M.G.M.Q.n.n.n.c.x.x.F.A.A.A.z.V.A.L.A.L.P.L.L.A.P.P.P.'.W.W.I j 5.n.-.M.G.G.G.M.A.M.G.",
"Y C , T 9.a._._.a I 8.5.%.Q.Q.n.G.M.M.G.W.W.W.G.Q.K.n.F.c.x.F.x.z.z.A.A.L.A.V.V.N.V.P.P.R.P.N.N.8.8.i.H j n.8.-.].].'.].'.'.).~.",
"Y U M Y ~ <.e.T.p @.6.*.{ t.t.u.i.Y.).Y.).W.W.W.z.A.c.F.c.c.l.l.A.A.z.A.A.G.A.A.P.~.~.N.N.8.2.o.` o.@.t d $.) $.8.M.~.~.).P.M.u.",
"U C C Y R ! ^ ' > W ` P i @.#.,.y.i.i.W.i.i.Q.W.z.c.c.F.c.c.l.c.A.z.A.A.M.A.A.G.!.!.G.8.2.#.@.P _ P P 3 s d ) _ #.#.,.2.2.$.#.#.",
"M M Y Y C C Z Z & : S u V F W W <.9.y.d.s.i.M.M.M.W.F.F.c.c.c.k.A.A.z.z.V.A.A.V.'.~.8.2.o._ P J P Q P = w J J J Q Q Q ` Q ` Q Q ",
"M M C C C M C m % & y N y B B A E ^ 1.y.).s.i.8.M.M.l.F.c.c.c.k.z.A.A.A.P.P.N.P.~.u.2.#._ Q P _ Q Q I 2 6 J _ J Q Q Q Q Q _ Q Q ",
"C C M Z C Z C C % = y N N N N C U T ~ <.r.i.i.i.M.i.M.M.G.A.N.N.c.N.A.k.N.V.P.N.L.7.#._ P L Q ` Q Q P > w J P P Q Q Q Q Q Q Q Q ",
"U M m m Z Z Z C X 2 P _ D N N N C C Z T ^ ,.y.i.u.8.8.M.M.M.M.M.A.A.A.A.P.A.A.P.A.7.` _ J J P ) P P P * d ) O.) L Q P Q Q Q Q P ",
"C C M M C C C m X L A B F M C C U U C C B E >.7.y.7.u.M.N.G.A.G.M.A.N.A.P.V.V.P.!.2.` P P P P P P P L o } f.g.&.P P Q P Q Q P Q ",
"m M N Z m m -   3 z s 7 0 @ - Y , Y Y B , B W ,.7.7.8.i.N.P.P.A.A.M.A.A.N.A.P.N.'.2.` ) _ P P P P d . 1 g c x f $ r Q Q P Q P L "
};
