/* XPM */
static char *_ea26e2623984a65fbab7ca590a5c78fo4zNHyQSh5f5TmlL[] = {
/* columns rows colors chars-per-pixel */
"64 64 241 2 ",
"   c #0C1B2B",
".  c #121E2C",
"X  c #0C1E31",
"o  c #19222E",
"O  c #0F2032",
"+  c #132335",
"@  c #1B2634",
"#  c #182638",
"$  c #1E2A3B",
"%  c #22242E",
"&  c #232A35",
"*  c #262D3A",
"=  c #2B323B",
"-  c #37373D",
";  c #6F0C14",
":  c #1D2B41",
">  c #262E41",
",  c #2B3343",
"<  c #373946",
"1  c #353A4C",
"2  c #3C3F52",
"3  c #403E43",
"4  c #3E414E",
"5  c #46454A",
"6  c #534C4D",
"7  c #474657",
"8  c #524F52",
"9  c #595255",
"0  c #655B5A",
"q  c #775253",
"w  c #74635E",
"e  c #514D62",
"r  c #58546A",
"t  c #645B6D",
"y  c #6D6463",
"u  c #786966",
"i  c #6C627A",
"p  c #786A75",
"a  c #A81D2D",
"s  c #823C3A",
"d  c #A82333",
"f  c #963E47",
"g  c #B23C49",
"h  c #C93546",
"j  c #D9374B",
"k  c #974C50",
"l  c #9A5759",
"z  c #B24854",
"x  c #AD5357",
"c  c #AE615E",
"v  c #8C6D6F",
"b  c #85736C",
"n  c #8A7774",
"m  c #977776",
"M  c #B4636A",
"N  c #B3726F",
"B  c #C4605E",
"V  c #C76664",
"C  c #C17370",
"Z  c #D9B907",
"A  c #D9B91B",
"S  c #E1BD1E",
"D  c #DABB28",
"F  c #CEB033",
"G  c #DAB938",
"H  c #E1BE25",
"J  c #DFC119",
"K  c #E9CB09",
"L  c #EED205",
"P  c #EDD30B",
"I  c #F4DB03",
"U  c #F5D907",
"Y  c #E6C81B",
"T  c #EDD316",
"R  c #F2D813",
"E  c #FAE301",
"W  c #FDE801",
"Q  c #DEC12F",
"!  c #E6C924",
"~  c #E3C438",
"^  c #8F807A",
"/  c #98847B",
"(  c #A6897E",
")  c #B68178",
"_  c #D8B849",
"`  c #CDAD51",
"'  c #D8B85A",
"]  c #E1BF54",
"[  c #D0AF68",
"{  c #D7B868",
"}  c #CBAD7C",
"|  c #D7B778",
" . c #DBC155",
".. c #E1C24B",
"X. c #DCC06D",
"o. c #756A84",
"O. c #7D728E",
"+. c #85768A",
"@. c #8B7A96",
"#. c #987CB7",
"$. c #9B7EC3",
"%. c #9A8984",
"&. c #978799",
"*. c #9D9399",
"=. c #A78A86",
"-. c #B5868B",
";. c #AA9489",
":. c #B5988C",
">. c #A79899",
",. c #B79B94",
"<. c #B3A291",
"1. c #BBA194",
"2. c #B9A39A",
"3. c #8C80A0",
"4. c #9786A7",
"5. c #9E87B9",
"6. c #A48AA7",
"7. c #A797A8",
"8. c #B59AA9",
"9. c #A895B8",
"0. c #B19BBB",
"q. c #B3AAAF",
"w. c #B5AAAD",
"e. c #B4A7B7",
"r. c #BBB5B7",
"t. c #CA948E",
"y. c #CF8C93",
"u. c #CA9798",
"i. c #EA9995",
"p. c #CAAB86",
"a. c #D6B789",
"s. c #C6A89A",
"d. c #D0AF91",
"f. c #D6B898",
"g. c #C6ADA5",
"h. c #CDADAF",
"j. c #CDB2A4",
"k. c #C8B4AA",
"l. c #D3B5A5",
"z. c #D6B9A6",
"x. c #D6BAAB",
"c. c #DABCAC",
"v. c #CDBCB4",
"b. c #C6B8B8",
"n. c #D4BBB3",
"m. c #D7B9B9",
"M. c #F0B3AA",
"N. c #E9B6BC",
"B. c #DEC18A",
"V. c #D3C1B5",
"C. c #DDC2B3",
"Z. c #D9C5BB",
"A. c #E4C5B5",
"S. c #E8C8B9",
"D. c #EBCCBB",
"F. c #F9C9BB",
"G. c #EDD0BE",
"H. c #F1D0BF",
"J. c #9E81C3",
"K. c #9F81C9",
"L. c #A185C3",
"P. c #A284CC",
"I. c #A78BC8",
"U. c #A689CB",
"Y. c #AE92CB",
"T. c #B29CC5",
"R. c #B59BCC",
"E. c #B89ECE",
"W. c #A688D1",
"Q. c #B18FDC",
"!. c #AE91D2",
"~. c #B59CD3",
"^. c #B99ED3",
"/. c #B798DB",
"(. c #B9A4C9",
"). c #BCA3D3",
"_. c #BEA5D9",
"`. c #B895E2",
"'. c #BEA2E0",
"]. c #C1A3C7",
"[. c #C7B9C7",
"{. c #D9BCC3",
"}. c #D5B9C8",
"|. c #D9BDCA",
" X c #C2ABD4",
".X c #C5ABDB",
"XX c #C6ACDD",
"oX c #CAB2D6",
"OX c #CBB3DD",
"+X c #D4B9D7",
"@X c #D9BDD4",
"#X c #D9BEDB",
"$X c #F0BDC3",
"%X c #C6A9E6",
"&X c #CDB4E2",
"*X c #CFB8E1",
"=X c #CEB2EC",
"-X c #D5BBE2",
";X c #D3BAE5",
":X c #D1B6ED",
">X c #D5BBEB",
",X c #D9BFED",
"<X c #CEB2F2",
"1X c #D1B4F4",
"2X c #D6BAF2",
"3X c #D9BEF5",
"4X c #D6B9F9",
"5X c #DABEF9",
"6X c #CBC5C4",
"7X c #CAC4C6",
"8X c #CEC9CA",
"9X c #D5CAC9",
"0X c #DAD1CB",
"qX c #DBC0DB",
"wX c #DBD6D6",
"eX c #E4CCCE",
"rX c #EED3C4",
"tX c #F4D4C2",
"yX c #FAD5C4",
"uX c #FAD9C7",
"iX c #FBD7C8",
"pX c #F3DCCA",
"aX c #FCDBC9",
"sX c #E3DBD6",
"dX c #FEE1CE",
"fX c #FDE9D7",
"gX c #DCC1E4",
"hX c #DDC3EE",
"jX c #DEC4F3",
"kX c #DEC2FA",
"lX c #E1D7E5",
"zX c #E0C6F5",
"xX c #E2C8F6",
"cX c #E1C5F9",
"vX c #E3C9F9",
"bX c #E7E4E4",
"nX c #EDEBEB",
"mX c #F1EEED",
"MX c #F4F4F4",
"NX c #FAF7F4",
"BX c #FEFEFE",
/* pixels */
"1X1X1X1X<X=X=X:X;X>XzXzXhXhXxXhXhXxXhXhXhXjXjXjXjXjXjXjXjXjXjXjXjXjXjXjXjXjXjXjXzXzX3XhXjXjXzXjXjXjXjXzXzXjX,X3XzXxXhX;X.X`.`.Q.",
"1X1X1X1X<X=X=X:X2X>XjXzXxXhXxXhXhXhXhXhXjXjXjX+Xx.f.h.|.jXjXjXjXjXjXjXjXjXjXkX9Xl.a.{.hX3XjXzXhXjXjXjXzXzX,XjX,XzXxXzX>XXXQ.Q.Q.",
"1X1X<X<X<X=X:X>X3XjXjXzXxXlXhXhXhXxXhXhXjXm.a._ ~ ~ ' f.jXjXjXjXjXjXxXjXjXjXhXz.{ ! G { z.;XhXzXjXzXjXjXzXzXzX,XzXzXjX,X&X`.Q.Q.",
"1X<X<X<X=X:X2X3XjXjXzXzXzXhXhXxXhXjXhXhXjXZ.| A E U ~ | jXjXjXjXjXjXjXjXjXjXqX| ~ I T F f.hXzXzXjXjXzX,X3XzXzXjXhXzXzX3X,X'.Q.Q.",
"<X<X<X<X<X<X2XkXcXzXhXzXhXhXhXzXhXhXhXhXjX|.a.! W I ! { jXjXjXjXjXjXjXjXjXjX{.{ ! W I G f.hXjXjXjXjXzX,XzXzXzX,XjXzXzXjX3X'.`.Q.",
"<X<X<X%X=X=X3XkXcXzXjXzXzXhXzXhXhXjXjXhXjXgXm._ E E ! ' jXjXjXjXjXjXjXjXjXjXf.~ L W R [ m.jXzXjXjXjXzX,X3XzXzXhXjXjXjXjXzX=X'.'.",
"<X<X<X=X=X1XkXcXvXzXjXhXzXhXhXzXjXjXhXhXjXjXqX{ R I T ` jXjXjXjXjXjXjXjXjXjXa.! I E ~ c.-XjXjXjXjXjXjX3XzXzXzXzXjXjXjXjXcX5X2X=X",
"<X<X<X=X=X:XhXhXhXhXjXhXhXjXhXhXhXjXjXjXjXjXgXd.Y P ! ' hXjXjXjXjXjXjXjXjX#X[ T I I ' |.hXjXjXjXjXjXjXjX,XzXzX3XjXjXjXjXjXcX5X5X",
"=X:X=X=X=X2X#Xm.m.|.hXhXhXhXhXzXhXhXkXjXjXjXhXv._ Q  .a.jXjXjXjXjXjXjXjXhXqX` ! R T a.gXzXkXjXjXjXjXjXhX3XjXjXjXjXjXjXjX3XjXcXcX",
"=X<X:X=X=X:Xz.{ ' | @XhXhXzXhXhXjXjXjXjXjXjXhXqXk.2.w.oXhXjXhXhXjXjXjXjXhXqXf.X. .' m.hXjXjXjXjXjXjXjXjXhXjXjXzXhXhXjXhXhX2X3XkX",
"1X=X&X=X&Xm._ T P K | m.#XzXzXjXjXjXjXjXjXjXjXkXjXjXhX_.Y.9.5.7.4.9.T.).OXjXjX&XoX}.hXjXjXjXjXjXjXjXjXkXjXhX#Xf.d.m.@XzXjXjXjXjX",
":X:X=X:XOXp.Y U E I Y ' f.@XhXjXjXjXjXjXjXjXhX*X(.6.O.o.e 4 4 1 1 4 r i O.9._.>X;XhXjXxXjXjXjXjXjXjXjXjXOXh.p.! Y { c.,XjXjXjXjX",
":X:X:X>X,Xf._ ! T I I ! ' a.,XzXjXjXkXkXhX*X_.4.i r 4 1 > # # + + @ , 1 4 r O.9. X>XzXjXjXjXjXjXjXjXjXqXf.[ D I I G a.#XjXjXjXhX",
";X:X,X,XhX@Xd.' ~ T I I Y _ }.hXkXkXjXjX&XT.4.r $ + + + # + + + O # + + + + 1 o.4. X>XjXjXjXjXzXjXhXgXx.] T E W I H { }.jXjXjXjX",
",X3XzXzXvXxXxXgXm.[ H P P ! d.,XjXjXkX>X3.e : + # + + + + + + + + + # O + + + # , i OXhXjXjXjXjXhX#Xx.D U I I L Y _ a.@XjXhXhXjX",
"zXzXcXcXxXhXxXhXhXgXm.{ ` [ ,XzXjXjX>XO.1 $ # + + + + + + + + + + + O # + + + + @ & r R.>XjXjXjX@Xa.A I U L Y ` x.@XgXhXjXzXjXjX",
"zXzXzXzXzXhXzX,XhXjXgX9X{.{.jXjXjX.X@.3 : + + + + + + + + + + + + + + + + + + + + # : t 5.hXjXjX@Xf.A K G { f.{.gXhXjXjXjXjXjXjX",
"zXzXzXzXzX,XhXhXhXhXjXjXjXjXjXkX>X9.r & : + + + + + + + + + + + + + + + + + + + + + + 1 o.T.jXjX,Xm.' _ a.m.gXjXjXjXjXjXzXjXjXjX",
"zXzXjXhXhXhXhXhXhXhXjXjXjXhXzXzX(.O.> + + + + + + + + + + + + + + + + + + + + + + + + # 4 t >XhXzX,X@XOX,XhXjXjXjXjXjXjXjXjXkXjX",
"3XzX,XzXxXhXxXzXhXhXjXjXjXjXjX,Xo.< # + + + + + + + + O X + + + + + + + O + + + + + O O + 4 3.gXjXjXjXjXjXjXjXjXjXjXjXjXjXjXkXjX",
"jXjXjXjXzXzXzXjXjXjXjXjXjXjXhX5.7 $ + + + + + + + O o & 4 # O + + + + + o o + + + + + + + $ 7 oXhXjXjXjXjXjXzXjXjXjXjXjXjXjXjXjX",
"kXjXjXjXzXhXjXjXjXjXjXjXjXjX;Xt , # + + + X + # + + = 8 u @ O + + + O , 9 - + + + + O O + # * 9.OXjXjXjXjXjXjXjXjXjXjXjXjXjXjXjX",
"jXjXzXjXjXjXjXjXjXjXjXjXjXhX).< # + + + + + + + X @ 5 b 1.= O + + O O 8 / 9 O X + + O + + + # p ].,XzXjXkXhXjXjXjXjXjXjXjXjXjXjX",
"zXjXjXjXjXjXjXjXjXjXjXjXhXOX@.* + + + O & $ # +   * y s.S.8 * + + O - ^ A.^ * O O O = 5 = O + < 9.3XzXjXjXzXjXjXjXjXjXjXjXjXjXjX",
"jX@X@X#XjXjXzXzXjXjXkXjX>X(.< # + + + X 8 6 -     3 ^ A.yX;.5 X + X n j.S./ - o o % w u 5 O + o +. X,XjXjXjXjXzXjXjXzXzXjXhXhXzX",
"jXp.| a.l.6X@XgXjXjXjXhX.X4.@ # O O O   w b 0 o o w <.H.uXc.y * X 6 1.S.D.<.6 o o 6 / u 4 O O + r @.>XjXzXjXjXzXjXhXqX{.C.j.|.zX",
"hX` H ~ _ { f.n.}.gXjX;X9.o.. + @ % O . n ;./ < 4 / C.dXdXrX%.8 @ ^ C.H.H.C.u - 3 ^ s.u 3 X + + 1 o.&XjXjXhX,X+X[.V.f.|  .` n.,X",
";XA I I U K ~ [ d.{.jX&X@.7 O + - , o = ( V.k.0 9 s.H.dXuXtXj./ 5 l.G.dXdXfX^ 0 u l.C.u - O * o & r  XzXzX-X}.g.1.{ ~ ! K Z a.,X",
"{.Y L I E E W L Q } hX(.i % & @ u p * y l.pXpX:.;.G.dXpXpXuXtXS.:.tXuXdXdXfXs.s.x.fXG./ 6 = u % . 7 5.3XjXm.} J U E W W E K | qX",
"m.' Q D F D ! ~ ' h.hX9.t - u 3 ,.s.0 %.A.uXaXH.D.G.rXrXtXuXuXuXpXuXyXH.H.H.H.G.rXpXH.,.b u l.= # 1 o.*XhXk.` P U R R T Y G a.{.",
"#Xn.C.C.f.z.B.B.V.+X&X+.9 6 ,.u k.C.:.l.H.tXH.C.V.V.V.V.x.tXyXuXdXuXG.C.V.V.Z.V.n.x.S.x.g.g.x.= - 5 r  X,Xm.p.~ .. .{ X.B.z.9X#X",
"jXjXhXjXjXjXgXqXgXhX.Xi 5 9 x.:.A.H.A.tXH.S.C.v.r.V.6Xr.k.pXuXuXuXuXZ.V.r.6X8XV.v.v.n.A.D.D.l.3 0 0 6 E.,X@Xx.| f.c.n.m.@X,XzXzX",
"jXjXjXjXjXjXjXjXkXjX(.7 = 5 =.tXaXyXaXaXC.2.r.lXBXBXBXBXbXrXuXuXuXuXZ.wXMXBXBXBXBXbXr.j.S.H.j.m / u - 0.gXkXhXjXjXjXjXjXjXjXjXjX",
"jXjXjXjXjXjXjXjXjXjX9.2 # = w S.aXaXaXz.V.0XnXBXBXMXMXBXBXdXuXuXuXyXfXNXNX8XwXMXBXBXbXb.Z.uXuXtX^ 5 $ 4.gXhXkXhXjXjXjXjXjXjXjXjX",
"jXjXjXjXjXjXjXjXjXjX4.1 & 5 ;.tXyXuXaXC.0XnXBXBXbX6Xw.r.wXaXuXuXuXuXrX0X6Xq.8XnXBXBXMXsXpXuXuXS.b 5 $ i _.hXjXjXjXjXjXjXjXjXjXjX",
"jXjXjXjXjXjXjXjXjX;X@.= = 8 l.A.H.uXaXG.sXbXbXbX7X>.*.<.9XuXuXuXuXaXtXZ.r.>.r.9XsXsXsXsXpXuXyXl./ y = r T.hXjXjXjXjXjXjXjXjXjXjX",
"jXjXjXjXjXjXjXjX4XOXo.> * 9 S.l.D.uXuXtXrX0X6Xb.q.;.;.<.D.uXuXuXuXuXuXG.l.<.<.w.k.w.k.C.tXaXyX1.s./ 1 7 0.;XjXjXjXjXjXjXjXjXjXjX",
"jXjXjXjXjXjXjXjX>X Xt : $ 7 s.1.A.uXaXaXF.F.S.S.rXZ.Z.D.uXuXuXuXuXuXaXtXG.S.S.A.M.M.M.M.F.uXtX1.l.%., * 4.&XjXjXjXjXjXjXkXjXjXjX",
"jXkXjXjXjXjXjXjXhX(.e : # * 6 ( z.H.dXuXF.F.F.F.F.uXdXuXuXuXuXaXuXuXuXuXuXaXuXtXF.F.F.F.F.yXyXs./ t $ o 3._.jXjXjXjXkXkXjXjXjXjX",
"jXjXjXjXjXjXjXkX>X_.t 4 2 7 0 m d.F.F.yXF.F.F.F.F.yXdXdXdXdXdXaXdXdXdXdXuXuXuXuXyXyXF.F.F.M.M.m u 9 4 , 4.&XxXjXjXjXjXjXjXjXjXjX",
"jXjXjXjXjXjXjXjX>X.X+.i i O.@.+.y.M.M.uXuXuXF.F.yXyXtXH.G.H.F.tXtXD.tXS.S.G.aXuXuXaXaXF.M.M.i.v p i i t 9.*XjXjXjXjXjXjXjXjXjXjX",
"jXvXjXjXjXjXjXjXhX+X(.(.).OX,X6.y.i.M.F.dXdXdXdXaXtXN.s.:.t.d.d.d.u.t.t.:.A.aXaXuXaXdXuXM.i.C 6.0.(.(.T.*X,XhXjXjXjXjXhXhXjXjXjX",
"jXjXjXjXjXhXjXxXkX>XhX3XjXjXkXOX@.@.i.F.A.D.H.dXaXtXz.( s x c c c c k l N Z.uXdXuXH.S.A.l.y.m -X,X,X,XhXzXhXzXzXjXjXjXjXjXjXjXjX",
"kXjXjXkXjXhXgX9Xm.h.>XhXzXjXjXhX].u.-.:.( 1.z.aXaXaXH.f.l c B V V c x N f.tXaXdXyXc.;.;./ m 0.,XhXzXjX3X+Xm.h.{.8XhXhXjXjXjXjXjX",
"jXkXkXjXhX#Xc.| ' [ |.hXxXjXhXkX&X].&.b n ( d.S.tXaXuXD.t.N V V V V N p.S.aXyXtXA.s./ / b b OXhXzXzXhX,Xd.[ ' { f.c.{.qXgXhXhXjX",
"kXkXjX,X@Xx.{ ! K H x.gXhXhXjXjXxXOX&.w / ;.1.z.A.H.yXuXz.) N C C N :.z.tXdXD.C.z.s.:./ b +.jXjXhXhXhX#X` S U T ~ { a.c.Z.qXgXjX",
"3XkX>Xm.p.A P W U ! a.qXhXjXhXxXhX;X(.%.g.A.G.s.<.l.S.tXtXC.,.( ) p.C.H.tXtXg.,.1.z.G.g.8.0.zXjXjXjXjXm._ T E W W I L Z G p.9XjX",
"%X&X} G P E E K D a.gXhXhXhXhXjXhXjX>X7.,.x.H.dXc./ n / g.2.,.;.<.:.2.<.=.n 1.A.tXD.2.8. X,XjXjXjXjXjXhXx.' D L I E E E P G c.jX",
"~.^.s._ K E K _ a.#XhXhXhXxXhXhXxXhXhX+Xe.8.,.x.s.b w v b.wXg.;.m b.eXh.b 0 ;.s.s.;.>. X,XjXjXjXjXjXjXjX#X{.z.{ ! P I E T | {.hX",
"I.Y.8.[ J K G a.}.zXhXjXhXhXgXxXhXhXhXxXoX7.%.k.v.%.w q u.0Xr.=./ b.8X,.k k >.k.w.=.4.OXjXjXjXjXjXjXjXjXjXjXgXc.{ ~ ! P D x.qXhX",
"#.I.R.u._ A s.+XhXjXhXhXxXhXhXxXhXhXhXhXhX0.&.8XNX6Xm ; g >.>.>.r.>.m k d k r.bXmX8X&.OXjXjXjXjXjXzXjXjXjXjXhXhXgXf.{ D ` @XzXhX",
"L.!.J.9.h.9XhXzXcXjXjXhXhXgXhXhXhXxXjXjXhXe.7.bXBX0Xm ; j h.sXmXMXmX,.k d l 6XmXBXsX&.*XzXjXzXxXcXcXjXkXjXzXjXjXzXgX@X@XoXhXzXxX",
"J.U.L.~.>X3XjXkXkXvXjXjXhXhXhXxXhXhXjXjXoXe.r.MXBX8Xc ; j m.bXBXBXBXu.x d l 6XmXBXMX7.(.;XhXhXjXzXzXzXzXzXzXzXzXzXhXzXhX,XjXzXjX",
"L.U.L./.5X5X5X3XkXvXjXjXxXxXxXhXjXjXjXjX(.e.(.BXBX8Xv ; j m.nXBXBXBXu.z d l 8XnXBXMXr.0..X,X3XzXxXcXzXzX3XzXkXzXzX3XzXhXjXzXzXzX",
"L.U.J./.4X5X4X3XjXkXjXjXjXjXxXhXjXjXjXjX(.e.[.BXBX8Xm ; j m.nXBXBXBXu.z a l 8XmXBXBX(.q. X3XjXzXxXcXxXzXzX3XhXjXjXjXzXjX3XjXzXzX",
"U.P.$.!.=X4XkXkX5XjXkXjXjXjXjXjXjXjXjX3X9.e.8XBXBX8Xm ; j {.nXBXBXBXu.z d l 8XmXBXBX8X9. XzXjX3X,X,X3XzXzXzXzXzXcXxXvXvXvXzXjXjX",
"P.P.J.U./.%X4X4X4X2X5X2X2X2X2X5XkX5XkXkX9.e.8XBXBX6Xv a h eXMXBXBXBXu.z a N 6XbXMXBXwX9.(.,X&X X_. X XXX&X&X&X&X,X3XzXzXcXzX3XcX",
"P.U.P.I.W.!./..X'._..X_._._.%X%X<X3X5XkX0.0.[.BXnXq.v f h eXMXBXBXBXy.g a u.[.8XwXmXe.7.(.XX).R.R.R.E.E.E.^.^. X.X.XXXOX&X.X.X.X",
"L.P.U.P.I.J.W.!.!.Y.Y.Y.Y.Y.R._.%X=X4XkX(.9.q.bX8X>.m c h eXBXBXBXBXy.g a N.(.r.w.6X*.9.T.).E.R.Y.R.E.R.R.R.E.E.E.E.).). X^.~.^.",
"P.P.U.P.P.J.J.J.J.L.5.J.5.L.I.I.!.'.<XkX*X0.4.q.*.%.m M h eXMXBXBXBXy.g a S.8X*.+.4.@.T.^.R.R.E.E.E.E.^.E.E.E.E.E.E.E.E.R.^.^.^.",
"P.$.P.P.W.Q.W.U.U.I.L.U.I.I.5.$.L.U./.%X>X*XXX9.@.>.=.M h eXNXBXBXBXy.g a N.wXq.7.kX.XR.T.Y.).).).R.Y.R.R.E.R.R.E.E.E.^.^.~.^.^.",
"P.K.P.P.$.W.P.P.P.P.P.W.P.P.P.P.W.P.W.W./.%X1X:X9.7.-.M h eXMXBXBXBXy.g a N.wXe.9.:X_.^.^.~.R.~.R.~.~.E.~.~.~.~.~.~.~.~.~.~.~.~.",
"W.$.P.K.$.W.P.P.K.P.$.W.P.P.P.P.P.W.P.W.U.Q.%X=X(.8.=.M h eXMXBXBXBXy.g d N.0X(.(.;X/.^.~.~.~.~.!.~.~.~.~.~.~.~.~.~.~.~.~.~.~.~.",
"W.P.P.P.W.$.P.P.K.P.W.$.P.P.P.P.W.P.W.P.J.I.^.%XoX8.@.M h eXMXBXBXBXy.z d $X9X7XoX=X_.~.~.~.Y.~.~.R.~.^.~.~.~.^.~.~.~.~.~.~.~.~."
};
