/* XPM */
static char *c3fe5dd27d7a42019a76557bd90c2c40oAmulYgkEHQg3nYy[] = {
/* columns rows colors chars-per-pixel */
"50 50 228 2 ",
"   c #0B1B2D",
".  c #081626",
"X  c #131E2C",
"o  c #0C1D30",
"O  c #16212E",
"+  c #19222E",
"@  c #0E2033",
"#  c #132335",
"$  c #1B2533",
"%  c #162739",
"&  c #232934",
"*  c #242C3B",
"=  c #292C36",
"-  c #2E303A",
";  c #35363D",
":  c #2A2930",
">  c #06121F",
",  c #61050C",
"<  c #661319",
"1  c #78282C",
"2  c #2E3542",
"3  c #383743",
"4  c #423E45",
"5  c #494549",
"6  c #4A4757",
"7  c #5B5353",
"8  c #574F52",
"9  c #695B5A",
"0  c #725755",
"q  c #61524E",
"w  c #6E625E",
"e  c #5B5468",
"r  c #544E62",
"t  c #695E75",
"y  c #786965",
"u  c #6C6177",
"i  c #706470",
"p  c #A10718",
"a  c #A71526",
"s  c #923F3E",
"d  c #A11323",
"f  c #C83445",
"g  c #D9384C",
"h  c #9A565B",
"j  c #9A4E55",
"k  c #AA5C59",
"l  c #B0434F",
"z  c #A7635E",
"x  c #83726B",
"c  c #8B7C7A",
"v  c #937B76",
"b  c #937271",
"n  c #B8676C",
"m  c #B86C74",
"M  c #AF7375",
"N  c #8C5E62",
"B  c #C25E5C",
"V  c #C46869",
"C  c #C96B6D",
"Z  c #D9B80B",
"A  c #DAB819",
"S  c #CDAB05",
"D  c #E1BE15",
"F  c #DAB927",
"G  c #D8B737",
"H  c #CCAD35",
"J  c #E1BE2B",
"K  c #C9983E",
"L  c #DEC118",
"P  c #DFC20F",
"I  c #E7C807",
"U  c #EED306",
"Y  c #F4DB01",
"T  c #F4D806",
"R  c #E5C716",
"E  c #EED515",
"W  c #FBE400",
"Q  c #FEEA00",
"!  c #F7E001",
"~  c #DFC033",
"^  c #E3C422",
"/  c #98847A",
"(  c #A5897E",
")  c #B49A7C",
"_  c #BCA459",
"`  c #D8B749",
"'  c #D6B558",
"]  c #CEAC52",
"[  c #D1AD69",
"{  c #D6B567",
"}  c #CBAB7A",
"|  c #D3B376",
" . c #C9AB72",
".. c #E3C24A",
"X. c #756984",
"o. c #8A788E",
"O. c #8A7A94",
"+. c #927F95",
"@. c #987CBB",
"#. c #9B7EC2",
"$. c #9C8985",
"%. c #94849A",
"&. c #948D94",
"*. c #A38F87",
"=. c #AC968A",
"-. c #AB9489",
";. c #B69A8D",
":. c #A89B9A",
">. c #B59C93",
",. c #AC8991",
"<. c #BBA397",
"1. c #9A88A7",
"2. c #9D84BB",
"3. c #A28DA8",
"4. c #A698A8",
"5. c #A38EB2",
"6. c #A492B7",
"7. c #AC97BB",
"8. c #B19BBA",
"9. c #A9A4A6",
"0. c #B8AAA5",
"q. c #BDB5B3",
"w. c #BDB9BD",
"e. c #B8AFB3",
"r. c #CC928B",
"t. c #C8A987",
"y. c #D6B688",
"u. c #C7A899",
"i. c #D3B495",
"p. c #D3AC93",
"a. c #C5ACA5",
"s. c #CAB2A5",
"d. c #D4B5A5",
"f. c #D3B6A9",
"g. c #D8BAA9",
"h. c #C8BBB8",
"j. c #D6B9B8",
"k. c #CBAAB7",
"l. c #EAB9BA",
"z. c #F1AFA7",
"x. c #F0A09C",
"c. c #DDC1B1",
"v. c #DDC0AF",
"b. c #E3C4B4",
"n. c #E6CABB",
"m. c #ECCDBC",
"M. c #E7C6B6",
"N. c #FCCBBD",
"B. c #F9C6B9",
"V. c #EFD1BF",
"C. c #F1D1BF",
"Z. c #9E81C4",
"A. c #9F81C9",
"S. c #A589C5",
"D. c #A284CD",
"F. c #A689CC",
"G. c #A488C6",
"H. c #AD94C9",
"J. c #B49BCC",
"K. c #B89ECE",
"L. c #B19CC4",
"P. c #A789D0",
"I. c #B18EDC",
"U. c #B59CD3",
"Y. c #B99ED3",
"T. c #B496D9",
"R. c #B8A2C7",
"E. c #BCA3D3",
"W. c #BDA6D3",
"Q. c #B895E3",
"!. c #C8B5C6",
"~. c #D7BBC8",
"^. c #C5ACDA",
"/. c #C3ABD7",
"(. c #CBB3DE",
"). c #CBB2D4",
"_. c #D9BCD3",
"`. c #DABEDB",
"'. c #D5BAD4",
"]. c #D3AFC1",
"[. c #C8ABE9",
"{. c #CEB2EB",
"}. c #CCB2E2",
"|. c #D3B9E4",
" X c #D1B5ED",
".X c #D5BBEC",
"XX c #D9BFED",
"oX c #D5B9E5",
"OX c #CEB1F1",
"+X c #D1B4F4",
"@X c #D6BAF1",
"#X c #D9BEF5",
"$X c #D9BDFA",
"%X c #D7BAFA",
"&X c #EABAC1",
"*X c #CAC7C7",
"=X c #D6CACA",
"-X c #DCC0D9",
";X c #D8D8D7",
":X c #D2D0D0",
">X c #E7CEC0",
",X c #F6C8C3",
"<X c #EFD2C1",
"1X c #F4D4C2",
"2X c #FBD4C4",
"3X c #FAD9C7",
"4X c #FDDCCA",
"5X c #F7D9C7",
"6X c #E5DDD8",
"7X c #FFE2CF",
"8X c #FFE5D1",
"9X c #FFEBD7",
"0X c #F0E6DD",
"qX c #DDC4EE",
"wX c #DBC1E4",
"eX c #DEC4F3",
"rX c #DDC2FA",
"tX c #E0C6F5",
"yX c #E2C8F6",
"uX c #E1C4FA",
"iX c #E3C9F9",
"pX c #E0DFE0",
"aX c #DDE3E2",
"sX c #EBE9E7",
"dX c #E8E6E6",
"fX c #FEFEFE",
"gX c #F5F4F4",
"hX c #F8F0EC",
/* pixels */
"+X+X+XOXOX{.{..XqXqXyXqXqXqXqXqXyXyXtXqXeXeXeXeXeXtXeXtXeXeXeXeXtXrXeXeXeXeXeXtXtXeX#XXXtXuX.X/.Q.Q.",
"+X+X+XOXOX{..X.XtXtXqXyXqXqXqXqXqXqX_.g.p.=XeXeXeXeXeXeXeXeXrXf.| ].tXeXeXeXeXeXeXtXtXXXtXyXXX^.I.I.",
"+X+XOXOX{..X#XeXtXtXqXtXyXqXqXqXeXy.A T R | eXeXeXeXrXeXeXeXwX{ U R ] `.eXeXeXeX#XtXtXXXeXtX@X|.I.I.",
"OXOXOXOXOX#XrXeXqXtXtXqXqXqXqXqXeXi.L Q Y { eXeXeXeXeXeXeXqX~.G Q Y H qXeXeXeXeXqXeXtXeXeXtXtXXXQ.I.",
"{.OXOX{.+XeXuXyXqXeXeXeXeXeXqXeXeX'.` Q Y ] eXeXeXtXeXeXeXeXi.I Q E t.eXeXeXrXeXXXtXeXeX#XqXeXeXOXE.",
"OXOX X[..XrXyXrXeXeXqXeXqXqXeXeXeXeX| Y Q H rXeXeXeXrXeXeXeX[ Y W ~ `.eXeXeXeXeXXXtXtXeXeXtXtXtXrX+X",
"[.+XOX{..XqX-XqXeXqXqXeXeXqXeXeXeXeXf.A Y ' eXeXeXeXeXeXeX'.G Q Y | eXeXeXeXeXeXeXqXtXeXtX#XqXeXuXrX",
"{. X X{..Xd.] | `.eXqXqXeXqXeXeXeXeXoXd.>.).eXeXeXeXeXeXeX'.y...' ].eXeXeXeXeXeXtX#XeXeXqXeXqXeX@XuX",
"+X X}. Xk.~ W I | ~.eXeXeXeXeXrXeXeXeXeXeX}.L.6.1.5.6.R.(.eXeX).~.eXeXeXeXeXeXeXeXeXwXi.t.~.eXeXeXeX",
" X X X.X .I W Q U ` ~.eXeXeXeXeXeXeX}.6.o.e 3 $ # # $ 6 t 1.W.eXeXeXeXeXeXeXeXeXeX).) E U [ qXeXeXeX",
"oX X XqX_.[ F T ! Y H _.eXeXeXeXqXL.u $ @ # % # # # # % # O 6 1.(.eXeXeXeXeXeXqX~.` T Q W F ~.eXqXeX",
".X#XtXyXiXyX-X[ L T E u.eXeXrX{.O.& % # # # # # # # # # # # # O u (.eXeXeXeXqXj.A Y Q T L ] ~.eXeXeX",
"tXuXtXuXtXqXtXqX_.] ] eXeXrX@XX.% # # # # # # # # # # # # # # # O r (.eXeXeXj.Z Y T P ] ~.eXeXeXeXeX",
"yXyXtXtXqXqXwXtXeXeXeXeXeXeXX.* # # # # # # # # # # # # # # # # # # 6 |.eXrX`.F Z ' '.rXeXeXeXeXeXeX",
"tXtXqXqXqXqXqXqXeXeXeXeXeXL.2 # # # # # # # # # # # # # # # # # # # # e eXeXeX_.(.qXqXeXeXeXeXeXeXeX",
"tX#XqXtXtXtXtXqXeXeXeXeX@X4 # # # # # # # @ X # # % # # @ # # # # # # * O.eXeXeXqXeXeXeXeXeXeXeXeXeX",
"tXeXeXeXeXeXeXeXeXeXeXeXO.$ # # # # # # O & 5 @ # # @ # + O @ # # # # % 3 wXeXeXrXeXeXeXeXeXtXeXeXeX",
"eXeXeXeXeXeXeXeXeXeXeX(.- # # # @ # # @ $ w =.. # # @ . / 5   # @ X   # % %.XXeXeXeXeXeXeXeXeXeXeXeX",
"eXeXeXeXeXeXeXeXeXeX.XO.# # # @ : $ # . ; <.m.; # # @ 5 n./ O @ @ - 5 @ # 3 .XeXeXeXtXeXeXeXtXtXeXeX",
"eX'._.eXeXeXeXeXeXeX(.3 # % @   9 4 . X q m.C.*.  @ X >.V./ - . * y y   # # 6.qXeXeXeXeXeXeXtXyXeXeX",
"eX .`  .d.~.tXqXeXqX1.# # X # . / v $ * ( 7X7XM.;   w C.V.u.5 > 9 ;.w   # # e |.eXeXtXeXeX-Xj.y.t.eX",
"oXZ Q Y R ` t.~.eX(.r # # ; # : <.b.7 7 n.7X7XC.*.3 g.3X4X9Xy 5 d.g.7   & # * /.eXeXoXk.>.{ F I S qX",
"j.R U ! Q Q I } tXL.+ = + -.& y M.9X;.=.8X7X5X5X1X;.5X4X4X8Xu.u.9XC.x $ y + O 5.qXtXt.R W Q Q Y I =X",
"j.` G H H ^ ..k.XX%.- x 3 4Xw -.C.7X3XC.n.V.V.3X7X8X3X1XV.n.7X5XC.C.=.w b.X $ u (.tX_ T T E E ^ H ~.",
"eXeXeXeXeX-X-XqX(.e 4 b./ C.g.C.5X<Xs.9.w.0.u.4X5X5X7Xv.0.e.q.0.a.c.V.C.d.& q 5 E.eXs.{ | i.f._.rXrX",
"eXeXeXeXeXeXeXeXK.2 * *.4X3X4X4Xf.<.pXfXfXfXsXC.3X5X5Xc.gXfXfXfXsXq.d.5Xs.v -.- 8.eXeXeXeXeXeXeXeXeX",
"eXeXeXeXeXeXeXeX5.O $ w 3X4X4Xd.h.sXfXfXgXgXfX3X5X3XN.hXfX*X;XfXfX6X0.7X5X5X8 + 1.eXeXeXeXeXeXeXeXeX",
"rXeXeXeXeXeXeXeX1.+ 4 <.C.4X4Xv.sXfXfXaX&.9.=X4X4X3X7Xn.w.9.*XfXfXfX0X3X5Xv.q + u }.eXeXeXeXeXeXeXeX",
"yXeXeXeXeXeXeX|.X.@ 4 1Xs.5X3X5X6X*Xc.9./ =.n.4X3X3X3X3Xf.*.>.q.q.0.n.7X1X>.0.2 r /.eXeXeXeXeXeXeXeX",
"eXeXeXeXeXeXeX^.e o 2 u.;.3X3X4XB.M.n.=Xb.n.5X5X3X3X3X4XV.M.n.b.x.z.M.N.5X<.g.2 * L.eXeXtXeXeXeXeXeX",
"eXeXeXeXeXeXeXW.6 % $ 5 ( 1X7X4XB.B.B.N.7X7X4X3X3X3X3X3X7X7X4XN.N.N.B.N.C.<.y * O 6.eXeXeXeXeXeXeXeX",
"eXeXeXeXeXeXeXW.t 6 e t b z.z.2X2XN.N.N.3X7X8X8X8X7X7X7X5XC.4X4X3X3XN.z.x.y 8 6 6 L.eXeXeXeXeXeXeXeX",
"eXeXeXeXqXtXqX(.R.K.^..X3.r.x.,X8X7X5X4XV.u.;.r.u.p.u.r.r.b.7X3X3X7XN.x.C 1.R.R.L.wXqXtXqXtXqXqXeXeX",
"eXeXeXeXtXyXtXXXqXtXtXeX(.M x.B.v.V.7X3XC.=.s k z k k s b b.7X3XC.b.l.p.b tXeXeXqXqXqXtXqXeXeXeXeXeX",
"eXrXeXeXqX`.g.a.oXtXqXqXqXK.$./ b u.5X4X7Xb.z B B C B k d.4X7X7Xd./ / y R.qXtXeXqX].a.h.-XwXtXqXeXeX",
"rXrXeXqX~.| Z D j.tXtXtXtXeX1.9 / ;.f.V.3X4Xd.z C C n ;.C.7XC.b.u.( b 9 eXqXeXeXoXK T R ` i.j.-XwXeX",
"eXrX(.t.A Y Q ^ y.qXqXqXqXqX/.v f.1Xu.;.v.V.<Xv.) ( <.<X5X<Xu.=.d.V.<.8.eXeXeXeXj.J ! ! Q Y Z G p.qX",
"[.}.] U W Q D t.yXyXqXqXqXtXtX3.>.<X8Xf.x c 0.<.-.r.=.<.$.y <.7XV.>.8.eXeXeXeXeXrXd.G U ! ! Q Y G eX",
"H.U.;.E Q D u.tXqXqXqXqXqXqXqXtX8.v u.;.0 0 !.fX=.x =XfXN 0 -.>.x 1.qXeXeXeXeXeXeXeXqXi.F Y ! R f.qX",
"@.Z.E.H Z a..XtXqXqXqXqXqXqXqXqXqX&.*XgXq.< l 9.*.w.$.b a h *XgX*X%.tXqXeXeXeXeXeXeXqXqX-Xt.D _ qXqX",
"G.T.#.k.=XtXuXqXyXqXqXqXqXqXtXqXeX%.dXfXq.< g c.gXgXgXM a h :XfXpXo.tXtXtXtXtXtXeXtXrXeXqXoX_.'.tXtX",
"#.P.#.$X#XrXtXyXqXtXtXtXqXqXtXtX/.4.fXfXh., g =XfXfXfXM a h ;XfXfX4./.XXXXeXtXtXtXtXtXtXtXtXtXuXeXeX",
"#.F.#.$X$X%X@XuXeXeXtXtXeXeXeXtX7.e.fXfXe., g =XfXfXfXm a h ;XfXfXw.5.eXtXuXiXiXeXeXeXeXeXeX#XqXeXyX",
"F.G.@.[.$XrXrXrXtXrXeXeXeXeXeXqX1.w.fXfXq., g =XfXfXfX+.a h ;XfXfX*X3.tXtX#XXX.XrXeXeXtXuXiXiXiXeXeX",
"D.F.#.T.[.%X%X+X#X@X+X.X%XrX#X#X1.*XfXfXe.< g pXfXfXfXm a M :XgXfX;X3..X}./.Y./.^.^.}.|.XXeXtXuXeXrX",
"#.P.F.F.G.T.T.U.Y.J.U.E.[.{.rXuX7.9.fXdX$.j f sXfXfXfXV p k.w.h.sX4.5.^.K.L.H.J.J.J.J.K.E.E./.^.U.J.",
"#.D.P.#.#.#.2.G.2.Z.G.G.H.T.OX%X}.O.e.:./ m f dXfXfXfXV p &X!.c %.o.K.J.J.K.K.K.K.K.K.K.K.K.J.J.E.U.",
"D.#.D.P.H.P.G.S.S.S.S.G.Z.G.T.[.qX}.6.o.4.n f sXfXfXfXm p &XaX+.eX^.J.J.E.E.K.J.J.J.K.J.K.K.K.Y.U.U.",
"D.D.#.P.#.#.I.#.#.I.#.I.#.I.I.#.Q.OXrXH.:.n f dXfXfXfXV p &X;X1. XY.U.U.U.U.U.U.U.U.U.U.U.U.U.U.U.U.",
"D.D.P.#.I.#.#.#.#.I.#.#.I.#.#.#.#.Q.[.^.&.M f dXfXfXfXm d &X:X!.{.Y.E.U.H.U.U.U.U.U.U.U.U.U.U.U.U.U."
};
