/* XPM */
static char *_a28f1ddd2c24821e276fd0886319afdeKLA8qOgIpv1K0P9[] = {
/* columns rows colors chars-per-pixel */
"50 50 175 2 ",
"   c None",
".  c #15151B",
"X  c #1C1A1F",
"o  c #171D25",
"O  c #1C1C22",
"+  c #161F2C",
"@  c #191F29",
"#  c #1D2127",
"$  c #16212E",
"%  c #19212C",
"&  c #132335",
"*  c #1D2531",
"=  c #29282E",
"-  c #212025",
";  c #3D2C29",
":  c #2B2E37",
">  c #242933",
",  c #38353A",
"<  c #542526",
"1  c #5C2C2E",
"2  c #46322D",
"3  c #493E3E",
"4  c #5F3131",
"5  c #6B3539",
"6  c #4F403A",
"7  c #413E42",
"8  c #434043",
"9  c #4B4446",
"0  c #524A4A",
"q  c #554843",
"w  c #5D514E",
"e  c #5C5354",
"r  c #694745",
"t  c #65534D",
"y  c #655955",
"u  c #6B5E5A",
"i  c #6B5C55",
"p  c #785A57",
"a  c #78665E",
"s  c #73625C",
"d  c #7C6D69",
"f  c #796A64",
"g  c #7F7776",
"h  c #AB1D2D",
"j  c #BF1C2F",
"k  c #BF1D31",
"l  c #A92837",
"z  c #C01C2F",
"x  c #C61D32",
"c  c #D21F35",
"v  c #AF3F4B",
"b  c #8B4D4A",
"n  c #96524F",
"m  c #8B595C",
"M  c #985854",
"N  c #AF434E",
"B  c #B1404C",
"V  c #AA515A",
"C  c #A4585A",
"Z  c #B15C5A",
"A  c #9F615C",
"S  c #85726B",
"D  c #8C766E",
"F  c #8D796F",
"G  c #897973",
"H  c #86797A",
"J  c #877973",
"K  c #947D73",
"L  c #A76D68",
"P  c #CB6866",
"I  c #C17A77",
"U  c #BF9805",
"Y  c #C09506",
"T  c #C69D05",
"R  c #C39C0C",
"E  c #C99E0B",
"W  c #C19708",
"Q  c #CBA503",
"!  c #CBA40A",
"~  c #C6A208",
"^  c #D2AC05",
"/  c #D1AB0A",
"(  c #D5B205",
")  c #D9B603",
"_  c #DCBB04",
"`  c #D5B30A",
"'  c #DDBC09",
"]  c #CBA511",
"[  c #E2C302",
"{  c #E7C903",
"}  c #EACC02",
"|  c #EED300",
" . c #F0D600",
".. c #F5DC00",
"X. c #F8E100",
"o. c #9A867C",
"O. c #978278",
"+. c #A1897E",
"@. c #AB847A",
"#. c #877D81",
"$. c #AD7B81",
"%. c #9C8684",
"&. c #978785",
"*. c #95908E",
"=. c #9C8F90",
"-. c #9D9292",
";. c #A48D81",
":. c #A88F83",
">. c #AC8B8D",
",. c #A18F8F",
"<. c #B08F84",
"1. c #AB9386",
"2. c #AB9489",
"3. c #A1948D",
"4. c #B49B8D",
"5. c #B99C8D",
"6. c #A39292",
"7. c #A89A99",
"8. c #B49E94",
"9. c #B89E90",
"0. c #B4A097",
"q. c #BCA294",
"w. c #B7A59C",
"e. c #A6A2A1",
"r. c #B6A5A2",
"t. c #BCABA2",
"y. c #B5AFAD",
"u. c #B8AFAC",
"i. c #BEB3AE",
"p. c #B6B0AE",
"a. c #B6B1B1",
"s. c #BCB6B3",
"d. c #BFB7B8",
"f. c #E4928F",
"g. c #F19B98",
"h. c #C0A496",
"j. c #C6AA9C",
"k. c #C8AA9B",
"l. c #CBAFA1",
"z. c #CCB0A2",
"x. c #D1B4A5",
"c. c #D6B9AA",
"v. c #DABCAD",
"b. c #C4BEBC",
"n. c #CBB4B4",
"m. c #D4BCBC",
"M. c #F4AEA6",
"N. c #F5B2AA",
"B. c #FAB3AD",
"V. c #FABEB4",
"C. c #C8C0BC",
"Z. c #DEC0B0",
"A. c #D7C4B9",
"S. c #E3C5B4",
"D. c #E7C8B7",
"F. c #E7C8B8",
"G. c #EACAB9",
"H. c #F9CCBD",
"J. c #F9C4B8",
"K. c #C7C3C3",
"L. c #CEC9C9",
"P. c #D7C9C7",
"I. c #DDD9D9",
"U. c #F5D4C3",
"Y. c #FAD6C5",
"T. c #FAD9C7",
"R. c #FADBCA",
"E. c #E5D8D8",
"W. c #E3D7D7",
"Q. c #E6E4E4",
"!. c #EDECEC",
"~. c #F3ECEA",
"^. c #F4F4F3",
"/. c #FEFEFE",
"(. c #FEF5F0",
/* pixels */
"                                                                                                    ",
"                                                                                                    ",
"                                                              Y                                     ",
"                                    !  .X.(                    . .(                                 ",
"                                    T X.X.'                 T X.X._                                 ",
"                                      } X.'                 ' X...R                                 ",
"                                      ) X.[                 [ X._                                   ",
"                                        ` T                 { ..!                                   ",
"              _ }                                                                                   ",
"            / X.X.| !                       . & % % o O                           W [ !             ",
"              _ ..X. .Q               # % & & & & & & & $ %                     Q  .X.}             ",
"                  _ ....          O * & & & & & & & & & & & * o               ) X.X..._             ",
"                    R ]         O & & & & & & & & & & & & & & & #           [ X..._                 ",
"                              O & & & & & & & & & & & & & & & & & #         ) )                     ",
"                              & & & & & & & & & & & & & & & & & & & O                               ",
"                            @ & & & & & & & & & & & & & & & & & & & & O                             ",
"                          O & & & & & & & * u & & & & & , & & & & & & %                             ",
"                          % & & & & & & & e S.* & & & > c.% & & & O & & O                           ",
"                        O & & & & 3 & @ @ 2.T.d & & & o.T.e & & : f & & +                           ",
"                        @ & & & * :.= & 7 c.T.S.* & 8 T.z.a * o S o.& & &                           ",
"      _  ._ Q           & & % & = l.o.& ;.T.T.T.d * z.T.U.F.% u x.f & & & o             T _ ^       ",
"      } X.X.X. .R     O & * S & S T.U.9 U.T.T.T.D.G T.T.T.T.a G.T.;.& 0 # $       W _ } X.X.{       ",
"      _ _ [ { | !     - y : U.7 q.T.T.U.T.T.T.T.T.T.T.T.T.T.T.T.T.j.8 v.% &       ' X.X... ._       ",
"                      > Z.S T.k.U.T.F.8.u.u.8.T.T.T.T.c.w.s.i.0.v.F.G.v.% q O     R ^ Q             ",
"                    O & o.T.T.T.R.j.s./././.!.U.T.T.T.C././././.K.j.T.x.D ;.#                       ",
"                    % & y T.T.T.z.L././.^.!./.R.T.T.T.(.^.a./././.y.T.T.T.8 $                       ",
"                    + : h.U.T.T.A./././.e.*.b.T.T.T.T.A.a.e.Q././.~.T.T.v.w &                       ",
"                    & > D.k.T.T.R.P.s.i.-.2.D.T.T.T.T.T.l.2.t.t.8.v.T.T.4.z.& .                     ",
"                    & * o.4.T.T.T.J.H.Y.T.T.T.T.T.T.T.T.T.T.T.B.V.M.H.R.9.q.& o                     ",
"                    & & # K H.T.T.V.J.B.T.T.T.T.T.T.T.T.T.T.Y.T.Y.Y.J.J.1.9 & @                     ",
"                          r g.M.T.T.T.T.T.T.U.T.T.T.T.Y.S.T.T.T.T.T.g.f.;                           ",
"                            I B.T.T.T.T.T.h.b C L L A n K T.T.T.T.T.M.L                             ",
"                              h.h.1.T.T.T.U.M P P P P C Z.T.T.T.9.5.+.                              ",
"              T _             2 i O.h.T.T.T.x.M P P Z @.T.T.T.S.O.F q           / ' /               ",
"            _ X.X.E             +.Z.Z.1.c.T.T.S.@.@.l.T.T.U.2.9.F.v.t            ...X. ._ `         ",
"        ~ ..X...Q               t v.T.T.+.G w.0.1.q.1.0.%.D U.Y.v.i             ! [ X.X.X.X.`       ",
"        U ....~                     ;.k.G r 8./.0.S I.~.5 G 5.;.3                   / { X.|         ",
"          ( ~                       6.Q./.4 l 6.6.C.&.m h %.!./.J                       / ^         ",
"                                    s././.1 c n./././.C h ;././.7.                                  ",
"                                    !././.< c m./././.V h ,././.I.                                  ",
"                                    /././.< c m./././.V h 6./././.                                  ",
"                                  0 /././.1 x P./././.V h 6./././.e                                 ",
"                                  3 /./.K.m j W./././.B h L.d././.9                                 ",
"                                    K./.H >.j W./././.B h /.H a.#.                                  ",
"                                        &.>.z E./././.B h /.*.                                      ",
"                                        *.>.z W./././.B h /.=.                                      ",
"                                        =.>.z W./././.B h /.6.                                      ",
"                                          $.z W./././.v h /.                                        ",
"                                                                                                    ",
"                                                                                                    "
};
