/* XPM */
static char *cd6e317bb94947929b002581dbe75f39EphqspakY0dy5yvM[] = {
/* columns rows colors chars-per-pixel */
"64 64 234 2 ",
"   c #0E1C2D",
".  c #131D2B",
"X  c #0D1E31",
"o  c #19222E",
"O  c #0F2032",
"+  c #132335",
"@  c #1B2533",
"#  c #1E2936",
"$  c #1C2739",
"%  c #222C3B",
"&  c #272C37",
"*  c #2B313D",
"=  c #31353E",
"-  c #3B383C",
";  c #232E40",
":  c #2D3344",
">  c #2A3245",
",  c #363A48",
"<  c #3A3E52",
"1  c #453F40",
"2  c #3F4148",
"3  c #484549",
"4  c #474658",
"5  c #554D55",
"6  c #5A5456",
"7  c #524C4E",
"8  c #6F4647",
"9  c #754A4B",
"0  c #635A5A",
"q  c #725A57",
"w  c #73635C",
"e  c #534E63",
"r  c #5B566B",
"t  c #59566B",
"y  c #635A6D",
"u  c #665D74",
"i  c #6B6262",
"p  c #766A67",
"a  c #7F716D",
"s  c #6D647D",
"d  c #A41424",
"f  c #A40F20",
"g  c #AA2231",
"h  c #A92A38",
"j  c #9C1322",
"k  c #A23D47",
"l  c #B73444",
"z  c #BC3F53",
"x  c #853D43",
"c  c #945659",
"v  c #B84D58",
"b  c #B6575B",
"n  c #A54D51",
"m  c #A6625C",
"M  c #B3615F",
"N  c #B45B64",
"B  c #A95D64",
"V  c #86736C",
"C  c #8A7874",
"Z  c #927B73",
"A  c #856E6A",
"S  c #B5736C",
"D  c #AF716C",
"F  c #C46563",
"G  c #D66D79",
"H  c #CF6E76",
"J  c #948179",
"K  c #9A837B",
"L  c #A6887D",
"P  c #B9847C",
"I  c #736A82",
"U  c #7E7490",
"Y  c #897C9A",
"T  c #8F7A8B",
"R  c #997CBD",
"E  c #A37F8A",
"W  c #CF7580",
"Q  c #D37781",
"!  c #D47B87",
"~  c #9D7FC5",
"^  c #9B8985",
"/  c #998897",
"(  c #9D929C",
")  c #A68A88",
"_  c #AC958B",
"`  c #A79188",
"'  c #B49589",
"]  c #A78A99",
"[  c #A99898",
"{  c #B79E94",
"}  c #BA858B",
"|  c #BCA395",
" . c #BAA499",
".. c #A4A09D",
"X. c #9384A3",
"o. c #9A8AA8",
"O. c #9987AC",
"+. c #A696A7",
"@. c #B297AD",
"#. c #A593B5",
"$. c #AE9ABD",
"%. c #AC97B9",
"&. c #B19CBE",
"*. c #B09DB7",
"=. c #AE8FA9",
"-. c #ACA4A8",
";. c #B4A8A8",
":. c #BBA9B8",
">. c #BDB6B7",
",. c #C89D92",
"<. c #C9908B",
"1. c #E1928F",
"2. c #C3A699",
"3. c #C5AA9C",
"4. c #CAAC9E",
"5. c #C8A596",
"6. c #D2A79A",
"7. c #C8ADA3",
"8. c #CCB1A3",
"9. c #C6B5AC",
"0. c #C9B4AA",
"q. c #D3B6A9",
"w. c #D5BAAC",
"e. c #D8B9AA",
"r. c #C9BCB7",
"t. c #D6B5AA",
"y. c #F6B5AC",
"u. c #F7BEB3",
"i. c #ECB0A6",
"p. c #CDC2BC",
"a. c #DEC1B1",
"s. c #D5C3BB",
"d. c #E2C4B4",
"f. c #ECCCBB",
"g. c #E7C8B9",
"h. c #F3CDBE",
"j. c #FAC9BB",
"k. c #F1D0BF",
"l. c #EFD0BF",
"z. c #9F81C6",
"x. c #9E80C9",
"c. c #A285C5",
"v. c #A284CB",
"b. c #A689CC",
"n. c #A88CC9",
"m. c #AE95C8",
"M. c #B69BCD",
"N. c #B89ECE",
"B. c #B29CC4",
"V. c #A789D1",
"C. c #AE91D2",
"Z. c #B99ED1",
"A. c #B294D9",
"S. c #BA9EDD",
"D. c #B498D7",
"F. c #B9A3C7",
"G. c #BDA3D3",
"H. c #BEA8D0",
"J. c #BEA1E1",
"K. c #C3A9CC",
"L. c #C1A7D7",
"P. c #C3ADD4",
"I. c #C5ACDB",
"U. c #C9AFDF",
"Y. c #C2A8DA",
"T. c #CBB3DD",
"R. c #C8B1D7",
"E. c #D0B8DB",
"W. c #C2A6E3",
"Q. c #C7ABE6",
"!. c #CDB3E3",
"~. c #CEB2EC",
"^. c #D2B9E5",
"/. c #D1B6ED",
"(. c #D5BBEC",
"). c #D8BEED",
"_. c #D1B7E5",
"`. c #CFB2F2",
"'. c #D1B5F4",
"]. c #D6BAF3",
"[. c #D9BEF4",
"{. c #DABEFB",
"}. c #D6B9FB",
"|. c #CCC4C4",
" X c #D4C9C7",
".X c #D9D1CE",
"XX c #D4D1D1",
"oX c #DAD7D8",
"OX c #E7CACB",
"+X c #ECD3C4",
"@X c #F4D4C3",
"#X c #FAD4C4",
"$X c #FAD9C7",
"%X c #FCDBC9",
"&X c #F5D9C9",
"*X c #E6CED0",
"=X c #E4DDDB",
"-X c #E3D6D3",
";X c #F7D7C9",
":X c #E5E2DE",
">X c #F9E1D4",
",X c #DCC3EE",
"<X c #DDC3F1",
"1X c #DDC3F2",
"2X c #DDC3F3",
"3X c #DEC3F2",
"4X c #DEC4F1",
"5X c #DFC5F1",
"6X c #DEC4F2",
"7X c #DEC4F3",
"8X c #DFC5F2",
"9X c #DEC5F1",
"0X c #DDC2F6",
"qX c #DFC5F4",
"wX c #DFC4F7",
"eX c #DEC4F2",
"rX c #DDC2FA",
"tX c #E0C6F3",
"yX c #E0C6F5",
"uX c #E0C6F5",
"iX c #E0C5FC",
"pX c #E3C9FA",
"aX c #E2C8F5",
"sX c #E3DFE1",
"dX c #EDE4E5",
"fX c #ECECEC",
"gX c #E6E4E5",
"hX c #F0EFEF",
"jX c #FAEDE6",
"kX c #F0EFF0",
"lX c #F3F3F3",
"zX c #F8F7F7",
"xX c #FDFDFD",
"cX c #F8F7FA",
/* pixels */
"`.'.}.`.~.~.~.!./.(.,XtXtX7XtX7XqX9X2X2X9X9X7X7X7X7X7X7X7X7X7X7X7X7X7X7X7X7X7X7X7X7X7X7X7X7X7X7XwXwXwX7X5X,X,X,X5XtX2X`.W.D.A.A.",
"`.'.}.`.~.~.(.(.^.(.7XtXtXtX7XtXqX2XqXwX7XwX7X7X7X7X7X7X7X7X7X7X7X7X7X7X7X7X7X7X7X7X7X7X7X7X7X7X4X2X7XwX5X,X,X,XtX5X2X].Q.D.A.A.",
"`.}.`.`.~.~./.(.,X<X7XaXtXtX,XtXqX9X2X9X7X7X7X7X7X7X7X7X7X7X7X7X7X7X7X7X7X7X7X7X7X7X7X7X7X7X7X7X2X2X7X7X5X,X,X,X,XtXtX2X~.J.A.C.",
"`.`.`.`.~.~.(.[.<X7X7XtXtXtX7X,X2XqXqXqX7X7X7X7X7X7X7X7X7X7X7X7X7X7X7X7X7X7X7X7X7X7X7X7X7X7X7X7XrX<X7X7X,X,X,X,X5X5XqXwX~.J.A.V.",
"`.`.`.~.~.~.].<XyXyXwX4XtXtX4X4XqX9X2X2X2XqXqXqX7X7X7X7X7X7X7X7X7X7X7X7X7X7X7X7X7X7X7X7X7X7X7X7X4X2X2X<X<X<X,X5X7XwXpXrX].W.D.C.",
"`.`.`.~.~./.<XwXaXtX7X4XtX7X4X4X2XqXqXqXqXqX2X2X7X7X7X7X7X7X7X7X7X7X7X7X7X7X7X7X,X7X7X7X7X7X7X7X2X2X2X<X4X<X,XtX9X2XwXrX{.~.J.J.",
"`.`.`.`.~./.<XpXpXyX<X4X2X2X4X[.2X9XqX9X9X2X9X2X7X9X7X7X7X7X7X7X7X7X7X7X7X7X7X7X7X7X7X7X7X7X7X7X2X2X<X<X<X<X4X7X9X2X2XrXrX{.].~.",
"`.`.`.Q.~.].2XpXaXyX<X<X4X4X4X4XqXqX2X2XqXqX2X9X7X,X7X7X7X7X7X7X7X7X7X7X7X7X7X7X7X,X7X7X7X7X7X7X2X2X<X2X,X<X7X7X7X2X2XrXiXrXrX{.",
"~.~.~.!.~./.4XpX7XtX4X4X4X4X2X2X9X9XwX0XqX9X9XqX9X9X9X2XqX2X2X9X7X7X7X7X7X7X7X7X7X,X7X7X7X7X7X7X7X7X7X7X7X,X9X,X,X7X2XrX2X2XrXrX",
"`.`.~.~.(.].4XpXtX7X4X,X4X4X2X2XqX0X9X9X9XwXqX9X9X9XqXqX9XqXqXqX7X7X7X7X7X7X7X,X7X7X7X7X7X7X7X7X7X7X7X7X7X7XtX7X,X2X2X2XrXrXrXrX",
"/./.~./.(.[.wXyX7X5X,X4X4X4X2XwXwX9X0X9X9X9XqXqX9X9X9X2X2XqXqXqX7X7X7X7X7X7X7X7X7X7X7X7X7X7X7X7X7X,X,XtX7X7X7X7X7X7X7X7XrXwX2XrX",
"/.'././.].4XyXyXtX7XtX,X2X4X7X7X9X9XqX0X0XqX9X0X0X9XqX2X9XqXqXqX7X7X7X7X7X7X7X7X,X7X7X7X7X7X7X7X,XtXtX,X7X7X7X7X7X7XwX7XwX2X2XwX",
"/././.(.<XyXyXyX7X7X<X4X4X2X2X2X9X0X9X9XqX0XqX0X9X2X2X2XrXrXqXqX7X7X2X7X7X7X7X7X7X7X7X7X7X7X7X7X7XtX7X,X7X7X7X7X7XwX7XwXwX7XwX2X",
"'.].].[.wXuXyXyX,X4X4X,X2X4X2X2X0X9X0X9X9X9X9X0X0X,XH.%.O.X.Y Y X.o.B.H.^.7X7X7X7X7X7X7X7X7X7X7X7X,X,XtX9X,X7X7X7X7X7XwX7X7X7X7X",
"[.rX2XiXyXyX5XtXtX5X4X,X<X4XwXwX9X0X2X2X9X9X<XH.%.X.I t 2 2 > > > 4 r I X.H.,X2X7X7X7X7X7X7X7X7X4X4XtX4X7X7X7X7X7XqX7X9XqXqXwX7X",
"rXiXpXpXaXtX5X5XtX5X4X,X4X4X7XwX9X0X9X2X2X<XH.U 4 , > ; $ + + + + $ $ > : r #.T.2X7X7X7X7X7X7X7X4X4XtX,X7X7X7X9XqXqXaXqXqXqX7X7X",
"yXyXwX7X7X4X<X<X7X7X7X7X7X,X7X7X7X7X2X7XP.X.t , + + + + + + + + + + + + + $ 4 I #.,X2XqX2X9XqX9X4X2X4X2X2XtX4X2XyX4X2XyX2X4X2X2X",
"yX2XtX7X7X4X<X4X7X7X7X7X7X7X,X7X7X7X2X$.I < + O + + + + + + + + + + + + + + + $ 4 X.^.2XqXqX2X2X4X4X4XtX2X4X4X2X2X2X2X4X2XyX4XyX",
"2X2X2X7X7X7X2X2X7X7X7X7X7X7X7X7X7X,XB.t % + + + + + + + + + + + + + + + + + + + + % Y R.qX2XqXqX2X4X4X2XtX4XyX2XyX2XyXyXyX2X2X2X",
"4X2X2XwX7X7XwXwX7X7X7X7X7X7X7X7X7XP.u ; + + + + + + + + + + + + + + + + + + + + + + < X.T.2X2X2XtX4XtX2X2X2X4X2X4X2X4X2X4X2X4XyX",
"4X,X7X7X7XtXwX7X7X7X7X7X7X7X2XwX).o., + + + + + + + + + + + + + + + + + + + + + + + $ e #.,X2X2X2X4X4X2XyX2XyX4X4XyX4XyX2X4X2X2X",
"4X7X7X7X7X7XwXtX7X7X7X7X7X7X7X2X%.e + + + + + + + + + O O + + + + + + + O + + + + + + # r F.,X2XyX2X2X2XyX2X2X4X2X2X2X2X2XyX2XyX",
"<X2X7X7X7X7X7X7X7X7X7X7X7X7X).F.s + + + + + + + + + + % % + + + + + + + + + + + + + + + : r I.2X2X4X2X4X4XyX4XyXyX4X4X2X4XyX2XyX",
"7XwX7X7X7X7X7X7X7X7X7X7X7X7X!.U < + + + + + + + + @ # 0 3 + + + + + + 2 - + + + + + + + + : #.,X2XyX2XyX2X2X2X2X2X2XyX2X2X2X2X4X",
"7X7X7X7X7X7X7X7X7X7X7X7X2XwXH.e # + + + o o + + + # 3 _ p @ + + + + = a a o + + + + o + + % I !.2X4X2X4X2XyX4XyXyX2X2XyX4XyX2X2X",
"7X7X7X7X7X7X7X7X7X7X7X7X4X).o., + + + + @ # + + o = i a.^ = + + O $ 0  .[ & + + o # - % + # 2 F.2XyX2XyX2X2X2X2XyX2X2X4X2X2X4XyX",
"7X7X7X7X7X7X7X7X7X7X7X7X4XH.e % + + + + 1 3 @ . o 3 ` k.q.i %   O 3 [ a.| 3 @ + # 1 p , + O + X.).4X2X2XyX4X4X2X4XyX4XyXyX2X2X2X",
"7X7X7X7X7X7X7X7X7X7X7X7X4XO.% @ + + + @ 0 Z 1 o = i 8.@X&X_ 2   # C a.d.| w # o 1 J C , + + + r B.[.4XyX2X2XyX2X2X2X2X2X4X2X4XyX",
"7X7X7X7X7X7X7X7X7X7X7X7XR.I @ + + @ + & a { C * 6 _ f.%X%X8.a & 6 8.$Xk.f._ = 3 C | V = + @ + , o.).wX7X4X2X2X2X2X4X2X4X2X4X2X2X",
"7X7X7X7X7X7X7X7X7X7X7X7X%.4 o . - , @ 7 ) a.8.7 a e.&X%X%Xg.| 0 J k.$X%X%X8.6 J 3.a.J = # & @ & U ^.7X7XyX2XyX4X4XyX2XyX2XyX4XyX",
"7X7X7X7X7X7X7X,X7X,X7X7XX.& # & 6 a * p 8.$Xk.K | @X%X%X%X@Xf.|  .%X%X%X>Xd.L a.$X@X` 2 3 6 & . s H.4X4X4X2X2X4X2X2X2X2X2X4X2X2X",
"7X7X7X7X7X7X7X7X7X7X7X_.s - 0 3 K q.6 _ d.$X%Xf.k.k.@Xk.@X%X$X$X$X$Xk.k.k.k.f.k.@X@X2.p Z | :   e X.!.4X4XtX2X4X4XyX4XyX2XyX2XyX",
"9X9X9XqX9XqX9X2X7X7X,X%.5 7 { J | l.2.d.k.k.f.0.9.9.p.;.a.$X$X$X%Xk.a.0.p.p.p.3.q.a.a.w.w.3., - 5 s R.5X,X,XtX,X4XtX4X4X4X4X4X4X",
"wX2XwX2X2X2XqXqX7X7X!.X., 2 { 8.a.@Xl.k.f.w.p..X=X:X:XXX+X$X$X$X%Xl.s..X=X:X:XoX.Xr.w.f.f.3.w w 6 r F.5XtX,X4X4X4X4X4X4X4X4X4X4X",
"7X7XqXqXqXqX2XqX7X7XP.I ; : K d.%X%X%Xl.a.9.|.lXxXxXzXzX:X$X&X$X$Xl.oXhXzXhXzXxXkXXX9.g.f.w._ J 7 4 :.2X7X7X7XtX4X4X4X4X4X4X4X4X",
"7X7X2X9XqX2XqX9X7X7XF.t O & A a.%X%Xk.a.p.XXcXxXcXhXhXzXjX%X%X$X$X>XjXlXoXp.zXxXxXcX>.g.$X$X$Xa & , O.).,XtX,X,X4X4X4X4X4X4X4X4X",
"7X7X7X7XqX9X2X2X7X7XB.4 . 3 { d.@X%X@Xs.:XlXxXxXXX-...>.+X%X%X$X%X@X Xp.;.;.gXzXxXxX:X&X%X$Xg.V = : I T.7X7XtX7X4X4X4X4X4X4X4X4X",
"7X7X7X7X2XqXqXqX7X7X#.<   6 q.e.g.%X%X@X&X-X.X X;.[ L >.k.%X%X$X&X$Xl.w. ...p.p.s.r.+X@X%Xk.3.' y , r F.9X,X,X7X4X4X4X4X4X4X4X4X",
"7X7X7X7X2XqX2XqX2X(.X.,   7 2.2.e.$X%X%Xf.g.s.s.p.8.8.a.k.%X$X$X$X%X@Xg.q.8.0.q.t.6.e.j.$Xk.2.2.p > 4 $.7XtX,X,X4X4X4X4X4X4X4X4X",
"7X7X7X7XqXqXqXqX2X_.Y >   , J ` q.$X$X$Xj.j.f.k.f.@X@X&X$X$X$X$X$X$X%X@X@Xk.h.j.y.u.y.j.#Xk.2.' i $ % #.7X,XtX7X4X4X4X4X4X4X4X4X",
"2X2XqXqX9XwX9XqXtX_.Y : + + - A 5.#X%X#Xj.u.j.u.j.%X%X%X%X%X$X$X$X$X%X%X%X%Xk.k.k.k.j.j.j.u.{ p - + o X.<X<X<X5X4X4X4X4X4X4X4X4X",
"qX9XaXqXqX7XqXqX<X).o.u y I T T <.i.u.k.#X#X#Xj.k.$X%X%X%X%X%X$X%X%X@Xl.k.$X%X%X%X%Xj.j.i.1.A u y y y %.5XtX5X<X4X4X4X4X4X4X4X4X",
"qXqXqXqX2X7X9XqX[.[.T.B.B.P.I.@.} 1.y.j.%X%X%X%X%Xk.a.,.,.6.6.6.5.,.,.,.e.%X$X$X$X%X$Xy.1.<.E &.&.B.F._.5XtX<XtX4X4X4X4X4X4X4X4X",
"2X2X9X7X,X2XwXaXtXtXtX).).4X,XK.=.<.i.j.f.k.#X%Xk.f.8.Z c m S S D m m D 4.%X%X$Xk.k.f.i.<.E G.).,X,X<X5X<X<X5X5X4X4X4X4X4X4X4X4X",
"7XwX7X7X2X2X7X7X[.tXtXtXtX3XtX(.F.E 4.4.2.4.k.%X$X$Xg.D n F F F F M m P d.%X%X$Xf.4.2.' ` ] ^.yX,X7X,X7X<X5X<X<X4X4X4X4X4X4X4X4X",
"7XqXaXqX7X7X2X,XtXtX[.tX0X3X,X3X).N.Z V Z K 8.#X%X$X$X6.S M F F F M P e.$X%X%Xk.8.K J w ^ R.4X2X7X,X7X,X5X<X5X5X4X4X4X4X4X4X4X4X",
"(.,X7X7X9X7X7X2X0XtXtX3XtX3X3X3X,X)./ A L { 4.8.a.k.%Xk.4.P H S S <.e.k.%Xk.e.8.4.| ' V +.).yX2XtX,X7X,X<X<X,XtX,X4X4X4X4X4X4X4X",
"!._.(.,X7X7X7X7XtXtX3XtXtX[.3X,X,X,X*.^ 2.a.g.8.5.8.a.f.d.4.' L ' 4.a.d.d.e.3.4.a.a.3.@.L.).tX4X,X7XtX,X<X,XtX,X4X4X4X4X4X4X4X4X",
"m.W.W./.{.).tX[.tXtX2XyXtXtX5X5X,X,XE._ 2.d.@Xf.3.) K | 7.{ ' ' ' |  .' K ` a.f.g.q.[ P.).rX2X2X4X7X7X7X7X7XtX9XaXyX7X7XwX7X7X7X",
"c.M.G.!.{.[.[.).tX[.yX2X[.tX5X5X,X5X,XR.@.[ 2.q._ A q ^ .X X;.Z [ .X XE q J 5.5._ ^ K.<XyX2XuX2XyXwX7X7X7X7X7X7X7XyXwXwX9XqX7XaX",
"O.n.C.W.].[.uXuX[.4X4X4X<X,X,X,X,X,X,X4X_.:.) 9.p.( 9 c 7.r.[ ^ [ r.{ c c K r.r.[ T ,XyXyXyX2X4X7X7X7X7X7X7X7X7X7X<X<X2X<X7X7X7X",
"~ n.c.S.'.{.iXiXtXtX4X2X<X,X,X,X,X5X5X4X).R.-.sXzX|.9 j N -.r.XX|._ c h k [ lXxXoX( (.yXyXwX2X2X7X7X7XtXwXaX9XaX,X<X<X<X2X7X7X7X",
"v.b.c.S.].{.iXiXiXyX4XyX5X5X5X,XtX5XtXtX^.F.>.kXxXp.9 f H  XfXzXcX XB h k ..zXxXsX-.E.9X2X2XuX2XyXyXuXyXyXwXwXwX9XwX9XwXaXaXwXaX",
"z.b.v.J.{.{.{.[.uX2XyXyX5X5X5X5X,X,X,X,XP.*.XXxXxX|.8 f G OXxXxXxX-XN h k ;.zXxXkXF.%.,X2X2XrXyXpXpXpXuX7XwX7X<X7X7X7X7X7X7X7XwX",
"v.v.~ A.}.{.{.{.rXrX2XrX7X7X5X5XtXtX4X4XB.+.fXxXxX X8 f G *XcXxXxX*XN h k ;.cXxXxXoXX.T.2XuX2X4XyXyXwX2X7X7X7X7XwX7X7X2X2X7X7X7X",
"V.v.R A.`.}.{.iXrX{.2X2X4XtX5X5X,X{.4X,XB.+.kXxXxX|.8 f G -XcXxXxX*XN h n ;.cXxXxXfX/ T.uX2X2X4X,X).<X<XwX7XwXaXpXpXpXpXpXpXqXaX",
"V.~ ~ V.S.Q.'.{.].].[.]./.].].[.{.0X0X3X&.+.lXxXxXK.9 d Q -XcXxXxX*XN h n 9.lXxXxXfXo.I.,X).!.L.G.L.Y.I.U.T.!./.,X2X7XaXaXwX<X).",
"V.v.V.V.V.A.S.W.W.W.Y.Y.Y.Y.I.U.].[.{.[.%.o.kXxXfX>.c d Q dXxXxXxXOXv h N K.XXhXxXfX( P.!.U.G.M.M.N.N.Z.G.G.L.G.I.I.U.Q.!.U.I.I.",
"~ ~ V.v.v.v.v.V.C.C.n.n.n.m.M.D.Q.`.].{.B.o.:XxX.X[ Z g ! dXxXxXxXOXv g S XX;. XgX>.o.F.Y.G.M.B.M.M.M.M.M.M.Z.M.Z.Z.G.G.Z.G.Z.Z.",
"~ V.v.V.V.~ c.c.c.c.c.c.c.c.n.n.A.J.Q.}.Q.&.-.|.-.J } l Q dXxXxXxXOXv g ! gX/ ..] / $.L.N.M.M.N.Z.Z.Z.Z.Z.Z.M.Z.Z.Z.Z.Z.Z.Z.Z.Z.",
"~ V.~ V.v.V.v.c.c.b.v.v.c.c.v.b.~ C.S.Q.'._.$.o./ / ) l Q dXxXxXxXOXv g W fX-.F.U.U.I.G.M.M.M.L.Z.M.Z.M.D.N.Z.Z.Z.Z.Z.Z.Z.Z.Z.Z.",
"V.~ ~ ~ v.v.V.b.v.v.v.V.b.c.c.c.V.V.V.V.S.Q.Q.T.( [ ) l Q dXxXxXxXOXv g W fX-.F.3X^.L.N.B.B.M.N.M.M.M.M.M.M.M.Z.M.Z.M.M.Z.M.M.M.",
"~ V.V.~ v.v.v.v.~ v.V.v.~ v.~ v.V.~ b.c.v.D.Q.(.@.[ } l Q dXxXxXxXOXv g W fX;.R.tX!.L.M.M.M.B.M.C.M.M.M.M.M.Z.M.M.Z.Z.Z.D.Z.M.Z.",
"~ ~ ~ V.v.~ ~ v.v.~ ~ v.~ ~ v.V.~ V.V.c.~ c.D.Q.F.[ ] z ! dXcXxXcXOXN l ! gX;.E.tX!.L.M.M.M.M.M.M.M.M.M.M.M.M.M.M.M.M.Z.Z.M.M.M."
};
