/* XPM */
static char *_7f2ff942e8846668f4e8c82f2a0a870djBXmmVEPKC1JGj1[] = {
/* columns rows colors chars-per-pixel */
"64 64 213 2 ",
"   c #3C0005",
".  c #430403",
"X  c #4A0E0D",
"o  c #58160E",
"O  c #4D1417",
"+  c #581A17",
"@  c #500A0C",
"#  c #6D1515",
"$  c #5D211B",
"%  c #652A15",
"&  c #78271B",
"*  c #7D301D",
"=  c #501823",
"-  c #672826",
";  c #7B3B2A",
":  c #7A3B36",
">  c #763430",
",  c #7E4A1B",
"<  c #774323",
"1  c #6B3B43",
"2  c #763B40",
"3  c #724047",
"4  c #852B1E",
"5  c #88281C",
"6  c #84341E",
"7  c #872E23",
"8  c #8C352A",
"9  c #8C3523",
"0  c #953B26",
"q  c #8A3D34",
"w  c #80401C",
"e  c #87482B",
"r  c #9B462A",
"t  c #965A2E",
"y  c #9B4838",
"u  c #9A5635",
"i  c #8A5035",
"p  c #A24A35",
"a  c #A6533C",
"s  c #A75335",
"d  c #936325",
"f  c #AA792E",
"g  c #A56A38",
"h  c #AE6F31",
"j  c #9F5244",
"k  c #8D5956",
"l  c #924A48",
"z  c #A75A49",
"x  c #A55B5C",
"c  c #956744",
"v  c #A76443",
"b  c #B26B4D",
"n  c #A47444",
"m  c #A96556",
"M  c #A77A58",
"N  c #A97C56",
"B  c #B27657",
"V  c #B6714C",
"C  c #905962",
"Z  c #966A6B",
"A  c #A3737C",
"S  c #B5726B",
"D  c #B68A34",
"F  c #C69C3B",
"G  c #CCA534",
"H  c #D9B537",
"J  c #E0BE37",
"K  c #E0BE3C",
"L  c #E1C03F",
"P  c #AD8144",
"I  c #BC8757",
"U  c #BD954C",
"Y  c #BC8476",
"T  c #C38C4D",
"R  c #C29546",
"E  c #C59558",
"W  c #D7B149",
"Q  c #C8A053",
"!  c #D2AD5B",
"~  c #DEBC59",
"^  c #CFA849",
"/  c #E1BF42",
"(  c #E2BF48",
")  c #CA9E72",
"_  c #CBA468",
"`  c #DBB664",
"'  c #D5AD76",
"]  c #DBBA75",
"[  c #E3C144",
"{  c #E3C24B",
"}  c #E9C84B",
"|  c #E4C453",
" . c #E5C65A",
".. c #E7C95E",
"X. c #EACB58",
"o. c #E6C762",
"O. c #E6C964",
"+. c #E8CB64",
"@. c #E7CA6B",
"#. c #E9CC6C",
"$. c #EED364",
"%. c #F1D568",
"&. c #E7CB72",
"*. c #E9CD73",
"=. c #E2C37B",
"-. c #EACF79",
";. c #E7CB7C",
":. c #EBD27C",
">. c #EDD476",
",. c #F1D978",
"<. c #9C7785",
"1. c #997CBD",
"2. c #9D7FC5",
"3. c #BE8587",
"4. c #A48295",
"5. c #B5889F",
"6. c #9E82BF",
"7. c #B794AD",
"8. c #B795B0",
"9. c #C28B85",
"0. c #C38C97",
"q. c #C79697",
"w. c #D7B38E",
"e. c #E0BF88",
"r. c #C697A8",
"t. c #CC9EB0",
"y. c #CDA2B6",
"u. c #D3AEB1",
"i. c #ECD383",
"p. c #EDD58C",
"a. c #EED98F",
"s. c #F2DA85",
"d. c #F2DC8C",
"f. c #EDD693",
"g. c #EED995",
"h. c #EFDB9B",
"j. c #EBD39B",
"k. c #F1DD94",
"l. c #F1DC9B",
"z. c #E8CE87",
"x. c #F4E198",
"c. c #EFDCA2",
"v. c #E8D0AA",
"b. c #F0DEA4",
"n. c #F1DFA9",
"m. c #EAD4B4",
"M. c #E8CFA2",
"N. c #F1E0AA",
"B. c #F4E8B8",
"V. c #9F81C6",
"C. c #9E80C9",
"Z. c #A285C5",
"A. c #A284CB",
"S. c #A689CC",
"D. c #AA8ECB",
"F. c #A589C5",
"G. c #AE92CD",
"H. c #B69BCD",
"J. c #B89ECE",
"K. c #B195CF",
"L. c #A789D1",
"P. c #A789D1",
"I. c #AE91D2",
"U. c #B195D4",
"Y. c #B99ED1",
"T. c #B294D9",
"R. c #B699DC",
"E. c #BA9EDD",
"W. c #B69AD5",
"Q. c #BDA3D3",
"!. c #BEA1E1",
"~. c #C8AACA",
"^. c #D3ADC8",
"/. c #C1A7D7",
"(. c #C1A6DC",
"). c #C5ABDB",
"_. c #C9AFDF",
"`. c #CCABD2",
"'. c #D5B6D9",
"]. c #D1B4D0",
"[. c #C2A6E3",
"{. c #C5A9E4",
"}. c #C9ADE7",
"|. c #CDB3E3",
" X c #CEB2EC",
".X c #D1B6ED",
"XX c #D5BBED",
"oX c #D9BFEE",
"OX c #D5BAE5",
"+X c #CFB2F2",
"@X c #D1B5F4",
"#X c #D6BAF3",
"$X c #D9BEF4",
"%X c #DABEFB",
"&X c #D6B9FB",
"*X c #E3CDC9",
"=X c #E9D3C8",
"-X c #E5CCD8",
";X c #E5D6D3",
":X c #F4EED4",
">X c #F5F1DC",
",X c #F3EAC8",
"<X c #DDC4EE",
"1X c #DEC4F3",
"2X c #DDC2FA",
"3X c #E1C7E9",
"4X c #E4CCE5",
"5X c #E0C6F5",
"6X c #E1C9F3",
"7X c #E0C5FC",
"8X c #E3C9FA",
"9X c #E7D3E5",
"0X c #F5F3E4",
/* pixels */
"+X@X&X+X X X X|.OXXX<X1X6X6X1X1X1X1X1X1X1X1X1X1X1X1X1X1X1X1X1X1X1X1X1X2X1X1X1X1X1X1X1X1X1X1X1X1X2X1X1X1X<X<X<X<X1X1X1X.X!.R.T.T.",
"+X@X&X+X X XXXXXXXoX1X6X1X1X1X6X1X1X1X1X1X1X1X1X1X1X1X1X1X1X1X1X1X1X1X1X1X1X1X1X1X1X1X1X1X2X1X1X1X2X1X1X<X<X<X<X<X1X2X.X!.!.T.T.",
"+X&X+X+X X X XXXXX1X1X6X6X1X<X1X1X1X1X1X2X1X1X1X1X1X1X1X1X1X1X1X1X1X1X1X1X1X1X1X1X1X1X1X1X1X1X1X2X1X1X1X<X<X<X<X<X1X2X1X}.!.T.I.",
"+X+X+X+X X XXXoX<X1X1X1X5X5X<X1X1X1X1X1X8X1X1X1X1X1X1X1X1X1X1X1X1X1X1X1X1X1X1X1X1X1X1X1X8X1X1X1X1X2X1X1X<X<X<X<X<X1X2X2X+X!.U.P.",
"+X+X+X+X X X#X1X5X5X3X5X5X<X1X1X1X1X1X1X1X1X1X2X1X1X1X1X1X2X1X1X1X1X1X1X1X1X1X2X1X1X1X1X1X1X1X1X1X1X1X1X1X<X<X<X1X1X1X2X1X!.!.T.",
"+X+X+X}. X.X1X1X5X5X5X5X<X5X5XoX1X1X1X1X1X1X1X1X1X1X1X1X1X1X1X1X1X1X1X1X1X1X1X8X1X1X1X1X1X1X1X1X1X1X1X1XXX1X1X1X1X1X2X2X2X!.!.!.",
"+X+X+X+X XXX1X7X8X5X1XoX1X1X1XoX1X1X1X1X1X1X1X1X1X1X1X1X1X1X1X8X1X1X1X1X1X1X1X1X1X1X1X1X1X1X1X1X1X1X1X<X<X1X<X1X6X1X1X2X2X2X.X+X",
"+X+X+X}. XXX1X8X8X5X<XoX1X1X1X1X1X1X1X1X1X1X1X1X1X1X1X1X1X1X1X1X1X1X1X1X1X1X1X1X1X8X1X1X1X1X1X1X1X1X1X1X<X1X<X1X1X1X1X2X2X2X2X2X",
" X X X}. XXX1X8X5X<X1XoX5X1X1X1X1X1X1X1X1X1X1X1X1X1X1X1X1X1X5X1X1X1X1X1X1X1X1X1X2X1X1X1X1X1X1X1X1X1X1X1X1X1X1X1X<X1X1X2X2X2X2X2X",
"+X.X X X.X#X1X8X1X5X5X3X$X3X1X1X1X1X1X1X1X1X1X1X1X2X1X1X1X1X1X1X1X1X1X1X1X1X1X1X8X1X1X1X1X1X1X1X1X1X1X1X1X1X1X1X<X1X1X2X1X2X2X1X",
".X.X.X.XXXoX5X5X5X<X$X$X5X$X1X1X1X1X1X1X1X8X1X1X1X6X1X1X1X1X1X1X1X1X1X1X1X1X1X1X1X1X1X1X1X1X1X1X1X<X1X1X1X1X1X1X1X2X1X1X1X2X1X2X",
".X@X.X.X$X1X5X5X<X5X3X1X1X1X1X1X1X1X1X1X1X1X1X1X1X1X1X1X1X1X1X1X1X1X1X1X1X1X1X1X1X1X1X1X1X1X1X1X<X<X<X1X1X1X1X1X1X1X1X1X2X1X2X1X",
".X.X.XXX$X5X5X5X1X3X1X<X1X<X1X1X1X1X1X1X1X1X1X1X1X1X1X1X2X1X1X1X1X1X1X1X1X1X1X1X1X1X1X1X1X1X2X8X1X1X<X1X1X1X1X1X1X1X1X1X1X1X1X2X",
"@X@XXX$X1X5X5X5X5X1X1X1X$X5X1X1X1X1X1X1X1X1X1X1X1X1X1X1X1X1X1X1X2X1X1X1X1X1X1X1X1X1X1X1X1X1X1X1X<X1X<X1X1X1X1X1X2X1X1X1X1X1X1X1X",
"$X%X7X7X5X5X5X5X1X1X1X<X$X1X1X1X1X2X6X1X1X1X1X1X1X1X1X1X1X1X1X1X1X1X1X1X1X1X1X1X1X1X1X1X1X1X1X1X1X1X1X<X1X1X1X1X8X1X1X1X1X1X1X1X",
"2X7X8X8X7X1X1X3X1X5X1X1X1X1X1X1X1X1X1X1X1X1X1X1X2X1X1X1X1X1X1X1X1X1X1X8X1X1X1X1X1X1X1X1X1X1X1X1X<X<X1X1X1X1X1X1X1X8X8X2X1X1X1X1X",
"5X5X1X1X1X1X$X<X1X1X1X1X1X1X1X1X1X2X1X1X1X1X1X1X1X1X1X1X1X1X5X1X1X1X1X1X1X1X1X1X1X1X1X1X1X1X1X1X1X1X1X1X1X1X1X1X1X1X1X1X1X1X1X1X",
"5X5X1X1X1X1X1X1X2X1X1X1X1X1X1X1X1X1X1X1X1X1X1X1X1X1X1X1X1X1X1X1X1X1X1X1X5X1X1X1X1X1X1X1X1X1X1X1X1X1X1X1X1X1X1X1X1X1X1X1X1X1X1X1X",
"1X1X1X1X1X1X1X1X1X1X1X1X1X6X1X1X1X1X1X1X1X1X1X1X1X1X1X1X1X1X1X1X1X1X1X1X1X1X1X1X1X1X1X1X1X1X1X1X1X1X1X1X8X1X1X1X1X1X1X1X1X1X1X1X",
"1X1X1X1X1X5X1X1X1X1X1X1X1X1X1X1X1X1X1X1X1X1X8X1X1X1X1X1X1X1X1X1X1X1X1X1X1X1X1X1X1X1X5X1X1X1X1X1X1X1X1X1X2X1X1X1X1X1X1X1X1X1X1X1X",
"$X1X1X1X1X5X1X5X1X1X1X1X1X1X1X1X1X1X1X1X1X1X1X1X3X1X1X6X<X3X6X<X5X7X5X1X5X5X1X1X2X1X1X1X1X1X1X1X1X1X1X1X1X1X1X1X1X1X1X1X1X8X1X1X",
"1X1X1X1X1X1X5X1X1X1X1X1X1X1X1X1X1X1X1X1X1X1X1X1XOX3Xy.r.u.r.0.3.3.0.t.^.^.'.1X1X5X1X1X1X1X1X1X1X1X1X1X1X1X1X1X1X1X1X1X1X1X2X1X1X",
"1X1X1X1X1X1X1X1X1X1X6X2X1X1X1X1X1X1X1X1X1X6X'.t.Y q.q.Y m a p r p r r p p s m r.^.oX1X1X1X5X1X1X8X1X1X1X1X1X1X1X1X1X1X1X1X1X1X1X",
"1X1X1X1X1X1X1X1X1X1X1X1X1X1X1X1X1X1X1X1X1X0.z b ;X*Xs r r r r 0 6 6 4 5 9 Y a p z S oX1X1X1X1X1X1X1X1X1X1X1X1X1X1X1X1X1X1X1X1X1X",
"1X1X1X1X1X1X1X1X1X1X1X1X1X5X1X1X1X1X1X1Xr.r ' V 3.Y 0 0 9 9 6 6 6 * & & y Y 0 z x p x <X1X1X1X1X1X1X1X1X1X1X1X1X1X1X1X1X1X1X1X1X",
"1X1X1X1X1X1X1X1X1X1X1X1X1X1X1X1X1X1X1X1Xi R ~ r 5 0 8 z j 8 6 9 4 4 8 z j 8 7 p b h 0 r.1X1X1X1X1X5X1X1X1X1X1X1X1X1X8X1X1X1X1X1X",
"1X1X1X1X1X1X1X5X1X1X1X1X1X1X1X1X1X1X1X`.t X.T q E ] E a x m 8 4 4 4 7 0 p ' B 8 u ^ ` w.1X1X1X1X1X1X1X1X1X1X1X1X1X1X1X1X1X1X1X1X",
"1X1X1X1X1X1X1X2X1X5X1X1X1X1X2X1X1X6X8Xu.~ W v B ;.,.+.h & * y b 4 & & # E d.s.g # F ,.p.4X1X1X1X1X1X1X1X1X1X1X1X1X1X1X1X1X1X1X1X",
"1X2X1X1X1X1X1X1X1X1X1X1X1X1X1X1X1X1X<Xj.%.F ; _ s.+.[ h o 0 =.B._ & l : ! s.d.Q + g O.:.;X1X1X1X1X1X1X1X1X1X1X1X1X1X1X1X1X1X1X1X",
"1X1X1X1X1X1X1X1X1X1X1X1X5X1X1X1X1X1X-X:.X.f - ] s.X.H w @ I k.B.:.t 1 i ! d.a.+.t < ~ s.j.6X5X1X2X5X1X1X1X1X5X1X1X1X1X1X1X1X1X2X",
"5X1X1X1X1X1X1X1X1X1X1X1X1X1X1X1X1X1Xm.*.} f ; p.:.} G o o E k.,Xs.U - - ! p.g.%.G D ~ :.p.9X1X1X1X1X1X1X5X1X1X1X1X1X1X1X1X1X1X1X",
"1X1X1X1X1X1X1X1X2X1X1X1X1X1X1X1X1X3Xj.+.} ^ U h.-.} G o % _ x.:Xd.^ %   Q s.g.:.} [ | *.i.;X1X1X1X1X1X1X2X1X1X1X1X1X1X1X5X1X1X1X",
"1X1X2X1X1X1X1X1X1X1X1X1X1X1X1X1X1X;X:. .(  .s.h.*.L H D P =.h.>Xd.W < O P i.g.p.{ K | &.p.m.3X1X1X1X<X1X1X1X1X<X1X1X1X1X1X1X<X5X",
"1X1X1X1X1X1X1X1X1X1X1X5X1X1X1X1X1Xm.*.| ( o.p.h.+.K H { O.i.h.>Xg.~ < 1 c :.g.a.| K ( @.p.j.6X1X1X1X<X1X3X5X1X1X5X<X1X3X<X1X5XoX",
"1X1X1X1X1X1X1X6X1X1X1X1X1X1X1X1X<Xj.#.( | @.h.g. .K J { O.i.h.>Xg.X., 1 c =.g.g.X./ ( O.i.p.9X1X1X1X1X<X3X$X5X5XoX$X5X5X3X5X3X$X",
"1X1X1X1X1X1X1X1X1X1X1X1X1X1X1X1X-Xi...( | &.n.g.| K K | @.i.n.>Xg.$.d = i &.h.h.o./ /  .i.g.=X5X<X<X1X6X5XoX<X$X5X3X3X$X1X$X3X5X",
"1X1X1X1X1X1X1X1X2X1X1X1X1X1X1X1X;X*.| { o.:.N.p.{ J K | *.p.n.0Xh.$.D % P -.g.c.+.( /  .-.j.m.3X1X1X1X1X<X1X1X3X5X<X1X1X1X1X<X1X",
"1X1X6X1X1X1X1X2X1X1X1X1X1X1X1X1Xv.@.{ { O.a.N.:.{ J L  .&.p.N.0Xh.$.} G  .-.g.c.>.( / | *.f.b.3X1X<X<X1X1X<X1X<XoX1X<X1X1X1X<X1X",
"2X1X1X1X1X1X1X1X1X1X1X1X1X1X1X6Xz.o.{ | &.h.N.#.[ J L ..-.p.N.0Xh.+.[ [  .*.a.h.i.} K ~ #.a.g.3X<X3X1X1X1X<X1X1X5X3X1X1X3X5X5XoX",
"1X1X1X1X1X1X1X1X1X1X5X1X1X6X1X-X*.| { ..-.c.N.O.L J [ o.:.a.N.0Xc.#.[ L | *.p.c.a.| K ( O.p.g.-X1X1X1X1X<X5X<X1X5X$X3X5X$X$X3X5X",
"1X1X1X6X1X1X1X7X1X$X1X1X1X5X5X*X#.{ { O.i.b.c...L J { o.z.f.N.0Xc.#.[ L | &.p.c.g. .K { o.i.g.=X3X5X1X<X$X3X5X<X3X$XoX5X3X3X$X5X",
"1X1X6X2X1X1X1X1X1X5X1X1X1X5X5XM.O.{ | *.p.c.g...K J { @.i.f.b.0Xc.#.[ K | &.p.h.g...[ / o.;.g.m.5X<X1X1X5X5XoX1X3X5X5X<X$X5X$X3X",
"1X1X6X1X1X1X1X1X1X$X1X1X1X1X3Xi. .[  .-.g.n.i.| J K | @.i.g.n.0Xc.#.{ L | @.p.c.g.$.[ W  .-.p.c.5X<X1X1X3X$X<X1X1X1X1X1X3X1X5X5X",
"1X1X1X1X1X1X1X6X1X1X1X1X1X<X9.i.| { O.:.g.x.:.| J K | &.p.g.c.0Xc.>.{ K | @.i.g.h.>.[ L | &.p.k.].<X1X1X3X5X1X1X1X1X<X1X$X1X<X<X",
"1X1X1X1X1X1X1X1X1X1X1X1X6Xm s ` $.| &.p.h.h.:.{ J L  .&.p.h.c.:Xh.>.{ L { @.i.l.g.i.| [ | #.x.e.s S $X5X$X5X3X1X1X<X1X3X5X5X5X<X",
"1X1X6X1X1X1X1X1X1X5X1X1X'.p B V ` >.i.f.h.g.:.| J [  .;.p.h.h.,Xh.:.| K { O.z.g.l.p.#.| ..>.] V ) p ^.1X3X5X1X1X1X1X1X5X3X$X<X1X",
"$X<X1X1X1X1X1X1X5X1X7X1X5X9.z S a T z.g.N.l.i.+.[ { o.:.f.h.h.B.h.i...[ { @.i.g.l.l.p.,.` U v p z 0 ^.5X3X$X5XoX<X1X5X$X5X$X1X<X",
"|.|.XX$X1X1X1X1X1X1X5X1X1X1Xr.x 8 8 z B I ' z.>. . .@.i.a.h.c.B.k.g.>. . .#.i.f.z.) B a B m 8 5 j y.<X5X5X$X3X5X<X1X3XoX5X3X1X1X",
"K.Q.{.@X$X$X1X$X1X1X1X1X1X1X6X6X].5.A A : - - q t g n P P I M I N N n g n u i < k Z Z k : C 5.].2X1X1X1X1X5X5X5X5X5X1X5X1X1X1X1X",
"Z.Y.E.|.1X$X$X$X1X1X1X1X1X1X<X<X<X<X3X1X3XOX`.`.7.+ $ O o X       X X + $ - 1 Z <.4.8.~.<X2X2X1X7X5X5X1X1X1X$X1X5X5X5X1X5X1X1X5X",
"1.D.G.(.#X$X2X2X1X1X1X1X<X1X<X<X<X<X<X<X5X5X$X5X<X3 : O     O 3 4.8.J.~.|.<X1X1X<X1X1X8X1X1X2X1X3X5X$X5X1X1X1X1X1X1X$X1X1X1X1X1X",
"6.F.F.E.@X%X8X8X1X1X1X1XoX<X<X<X<X6X3X1X$X5X3X$X1X|.].8.7.~.'.<X6X<X<X1X1X1X1X1X1X1X1X1X2X1X1X1X$X$X5X5X1X5X5X5X$X<X<X1X$X1X1X1X",
"Z.S.Z.E.@X2X7X7X7X5X7X1X1X1X<X<X1X<X1X<X1X1X1X1X1X1X<X1X1X1X6X<X1X1X1X<X1X1X1X1X1X1X1X1X1X1X1X1X5X5X5X5X5X5X5X5X1X5X5X5X5X5X5X5X",
"V.F.V.!.&X%X%X$X7X5X1X1X1X1X3X<X<X1X1X1X1X1X1X1X1X1X1X<X<X<X<X<X1X<X1X1X1X1X1X1X1X1X1X2X2X1X1X1X8X8X5X5X1X5X1X<X1X1X1X1X1X6X1X5X",
"A.A.C.R.&X%X%X%X2X2X2X1X1X1X1X1X1X1X1X1X1X1X1X1X1X1X<X1X<X<X3X<X1X<X<X1X1X1X1X1X1X1X1X1X1X1X1X1X5X5X5X5X1X1X$X5X1X1X1X1X1X1X1X1X",
"P.A.2.I.+X&X2X7X%X1X1X1X1X1X1X1X1X1X1X1X1X1X5X1X<X1X<X<X<X<X<X<X1X1X6X<X1X1X1X1X1X1X1X1X1X1X1X<X$XoX1X1X1X5X7X5X8X8X8X8X5X7X5X7X",
"L.L.2.P.R.{.@X%X#X#X#X#XXX#XoX$X2X2X1X2X2X5X1X1X<X1X1X1X3X<X<X<X<X1X<X1X1X1X1X1X1X1X1X2X<XXX_.Q.Q./.).)._.|.|.|.$X1X1X5X7X5X1XoX",
"2.L.A.P.P.R.!.[.[.[.(././.(.).|.#X$X%X1X1X$X1X5X<X1X<X3X<X<X<X<X<X1X1X1X1X1X1X1X8X8X1X<X|.{.Q.H.H.J.J.Y.Y.Q././.).)._.|._._.).).",
"2.P.P.P.A.A.Z.P.I.I.D.D.D.G.U.W.}.+X&X2X%X%X1X1X1X1X1X<X<X<X<X<X1X1X<X<X1X1X1X1X1X1X<X|.Q.Q.H.H.H.H.H.H.H.Y.H.H.Y.Y.Q.Q.Y.Q.Y.Y.",
"2.2.A.A.A.A.V.A.Z.Z.Z.Z.6.Z.F.D.U.E.}.&X2X1XoXXX1X1X1X<X<X<XoX<X<X1X6X1X1X1X1X1X1X1X|.Q.Q.J.H.J.Y.Y.Y.Y.Y.Y.Y.Y.Y.Y.Y.Y.Y.Y.Y.Y.",
"P.2.2.P.A.S.S.A.A.A.A.A.F.A.Z.A.L.P.R.[.@X$X$X$X1X$X<X1X1X1X$X<X1X1X1X<X1X1X1X1X1XXX_.Q.H.H.H.Q.H.H.H.Y.H.Y.Y.Y.Y.Y.Y.Y.Y.Y.Y.Y.",
"2.P.2.2.S.S.A.A.Z.A.S.P.F.Z.Z.Z.A.A.S.I.E.}.#X1XoXoXoX1X1X1X1X1X3X<X1X1X1X1X1X1X1XOXQ.J.8.H.H.H.H.H.H.H.H.Y.H.Y.K.Y.H.H.Y.H.Y.H.",
"L.P.P.2.C.A.A.A.C.A.L.2.A.A.A.A.L.A.A.A.Z.U.{.XXXXoXoX$X1X1X1X1X1X1X1X1X1X1X5X1X<X|.Q.H.H.H.H.H.H.H.H.H.J.H.Y.Y.H.H.Y.Y.Y.Y.H.Y.",
"2.2.2.P.A.2.V.A.V.V.A.2.2.2.A.A.C.L.P.Z.V.F.W.{.XXXXoXoX$X1X5X1X1X1X1X1X1X1X1X1X8X|.Q.J.J.H.H.H.H.H.H.K.K.H.H.H.H.H.H.Y.Y.H.H.H."
};
