/* XPM */
static char *_8128deb1164453f9ee0b402dab8d0b2J8AIJGlWUhy4xAUs[] = {
/* columns rows colors chars-per-pixel */
"50 50 56 1 ",
"  c #977BB8",
". c #9A7DBD",
"X c #9B7EC2",
"o c #9E82BD",
"O c #9E81C3",
"+ c #9F81C9",
"@ c #A285C4",
"# c #A589C4",
"$ c #A284CC",
"% c #A689CC",
"& c #AA8DCF",
"* c #AD91CC",
"= c #B197C7",
"- c #B297CA",
"; c #B59BCC",
": c #B89ECE",
"> c #A486D0",
", c #AC8FD2",
"< c #B08EDA",
"1 c #B294D5",
"2 c #B59CD2",
"3 c #B89ED1",
"4 c #B393D9",
"5 c #B598DA",
"6 c #BA9EDB",
"7 c #BDA3D4",
"8 c #BCA0DA",
"9 c #B592E2",
"0 c #C1A7D7",
"q c #C2A7DE",
"w c #C5ABDB",
"e c #C8AEDE",
"r c #C4A7E7",
"t c #C6AAE5",
"y c #C9ADE6",
"u c #CAADEC",
"i c #CDB3E3",
"p c #CEB2EB",
"a c #D1B7E7",
"s c #D1B5ED",
"d c #D5BAED",
"f c #D9BFEE",
"g c #CEB2F1",
"h c #D1B4F4",
"j c #D6BBF2",
"k c #D9BEF4",
"l c #D7BBF8",
"z c #D9BDFA",
"x c #DDC4EE",
"c c #DEC4F3",
"v c #DEC2F9",
"b c #E0C7EF",
"n c #E0C6F5",
"m c #E2C8F5",
"M c #E1C5FA",
"N c #E3C9F9",
/* pixels */
"hhhguppdnnbbxbxxxxvxcccccnccnvnxccccccccNcxxcNx859",
"hggggpdxcnnbxxxxvxccccccxvccvxvxcccccccccNcxccxr4<",
"hhggpdjcnnbbxxxxvnccvxccxcccxvxcccccccccxvcxccxp1<",
"ghgghjvnncxbbxxxxcccncccccccxnccccccccccxccccccc64",
"gggpsvMmxxvcxbnfxcccccccxxcccccccccccccccccccccvu6",
"ggppdvNcvxcxxnfbccxvcccccvncccccccccNcccccccxccvvh",
"usppdvNcxxxxxknbcccncnvcccvxvxcccccccccccvxccxxcvv",
"psppdvNcxxkxxnkxccccccxxccxxnvnccccccccccxvxcvhccv",
"hsiskmNnccxcnnnnccvnxxccccxccnxvcccccccccccccccccc",
"sppdcmnncxnxfnknccxccvncccvxcccxcccccccccccccccccc",
"ssfcnnnxxcccknvncccccccccvxxcccccccccccccccccccccc",
"fccnmnnnnxccnvnkcccccccccnvnccccccccccccccNccccccc",
"cnmmncxbxcccccnncxvnxvxccccccxvncccccccccccccccccc",
"nmncxxxxcxccnkznnvxxncccccccnvxxcccccccccccccccccc",
"cccccxxxxcccnnvMncvxccxxnvccncvxNccccccccccccccccc",
"cccccnnxnxccnknkvccccxvnvxxvxccccccccccccccccccccc",
"ccccccxxxnccccxvxxxvcccccccnvccccccccccccccccccccc",
"cccccccvvccxccxxvncxcxccncccxxcccccccccccccccccccc",
"cnvxcccnxvxvnvvnxvccvxccvcccvncccccccNcccccccccccc",
"vxncccccxnxnvxxvvxncncccxcccxccccccccccccccccccccc",
"xcccccccxccccccnnxnxxvccxvccvxvxcccccccccccccccccc",
"cccccxccvxccccccvxvxcxccvnccnxcccccccccccccccccNcc",
"xxccxvccxxnvccvnxccvcxvcnxcccxccccccccNccccccccccc",
"cvncnccxvnvxcxxccccncnxcvxcccxvncccccccccccccccccc",
"ccccccccxxvnxxccccxxcxccxccccnvxcccccccccccccccccc",
"cccxccvnnvxvnvcccccvcvncccccccnvcccccccccmcccccccc",
"cccvxvxvvxccxxcccccncccccvxcccxxcccccccccccccccccc",
"cccncxxnnccxxvccccccccccnxccccxvcccccccccccccccccc",
"cccccxvxxvnxnccxcxccvxxcccxvnxcccccccccccccccccccc",
"cccxcnccvnxvvccvnvccncccnccxxvccccccccccccccccccmc",
"ccvxccccccccxxxxvnccccccxvnxnccccccccccccccccccccc",
"ncncccccccccccnvxccccccccxvxvcccmccccccccccccccccc",
"knnxcnxfcccccvcvvcccccccccccccccccxccxccxccxcccccc",
"xvvxcccfccccMvvMcccccccccccccccccxccxxxccxcxxmxccc",
"xnvxxcccxccccvvccccccccccccccccccxccxxccxxmcxccxcc",
"vnvvccncxcxnccccccccccccccccccccxccxccxcccxxnxcccc",
"zkvxvxxcxxxxcccccccccccccccccccccccccccccnccccccxc",
"tpjvvxxcnbxbxcxcccccccccccvccccccccccccccccccccccc",
"*2tjvxfcxxxxxbxcccccccccccccccccccccccccccccccccxx",
" #6skkxcbxxbxxxxcccccccccccccccccccccccccccccccccc",
"X1.hlMNfcxxfxbcxccccccccccccccccjcmccNNcncccccccmm",
"X&XzkvcNcnnbbxcncccccccccccccccccccfcccnnmccvNcccc",
"@%XzvllMkcMMcccncccccccccccccccccccvcMNNcccccccjcc",
"%%XuzMvkcccvccckccccccccccccccccccNcccfxccvNNNNNcc",
"%%X4tllsljdjlvvlcccccccccccccccccvcfe077weiifccNxc",
"X>%%%4633330tsvMccccccccccccccccNca0:==;--::770022",
"X>>X...#.XX#*6uljcxxcccccccmccccci7:;::7::3:::::27",
">XX%,&%*X**X.%5tcjcxccccccccccccce;*77:*::;;:3:322",
">XX<XXX<XX<<X9X99gvlcxxccccccxccd72;-22222;2222222",
"X>X<X<XXX<XXXXX9X9rhxdxcccvccxccp782-2222222222222"
};
