/* XPM */
static char *c2aa6fdd3c4e49d6acf4346a6d293150VnsUFBf8uftFZLRv[] = {
/* columns rows colors chars-per-pixel */
"64 64 127 2 ",
"   c #9A7EBB",
".  c #9779C1",
"X  c #9D7FC5",
"o  c #9F81C5",
"O  c #9E80C9",
"+  c #A285C6",
"@  c #A589C6",
"#  c #A284CB",
"$  c #A689CB",
"%  c #AA8ECA",
"&  c #AD91CD",
"*  c #B196CD",
"=  c #B69BCD",
"-  c #B89ECE",
";  c #A587D1",
":  c #A789D1",
">  c #AA8DD2",
",  c #AE91D3",
"<  c #B194D5",
"1  c #B69AD4",
"2  c #B89DD0",
"3  c #B395D9",
"4  c #B699DB",
"5  c #BA9EDB",
"6  c #BDA2D3",
"7  c #BDA1DE",
"8  c #BB9EE0",
"9  c #BDA0E0",
"0  c #C0A6D6",
"q  c #C1A6DD",
"w  c #C5ABDB",
"e  c #C9AFDF",
"r  c #C2A6E3",
"t  c #C6AAE4",
"y  c #C9ADE4",
"u  c #C7AAEA",
"i  c #CBAFEB",
"p  c #CDB3E3",
"a  c #CEB2EC",
"s  c #D1B7E6",
"d  c #D1B5ED",
"f  c #D5BAED",
"g  c #D9BFEF",
"h  c #CFB2F3",
"j  c #D1B5F4",
"k  c #D6BAF3",
"l  c #D8BCF6",
"z  c #D8BCF7",
"x  c #D9BDF7",
"c  c #D9BEF4",
"v  c #D9BEF2",
"b  c #D5B8FA",
"n  c #D7BAFC",
"m  c #D8BBFB",
"M  c #DABEF8",
"N  c #DABEF9",
"B  c #DBBFFA",
"V  c #DABEFB",
"C  c #D9BCFC",
"Z  c #DBBFFC",
"A  c #DBC2EC",
"S  c #DAC0EF",
"D  c #DCC3ED",
"F  c #DCC2EF",
"G  c #DEC5ED",
"H  c #DDC4EE",
"J  c #DEC5EF",
"K  c #DFC6EE",
"L  c #DCC2EF",
"P  c #DAC0F0",
"I  c #DBC1F0",
"U  c #DBC1F1",
"Y  c #DBC0F3",
"T  c #DDC3F0",
"R  c #DCC2F1",
"E  c #DCC2F2",
"W  c #DDC3F2",
"Q  c #DDC3F3",
"!  c #DEC4F1",
"~  c #DFC6F0",
"^  c #DFC5F2",
"/  c #DEC4F3",
"(  c #DBC0F5",
")  c #DBC0F7",
"_  c #DCC1F4",
"`  c #DDC2F5",
"'  c #DCC1F6",
"]  c #DDC2F7",
"[  c #DEC3F6",
"{  c #DEC4F4",
"}  c #DFC5F4",
"|  c #DFC5F5",
" . c #DFC4F7",
".. c #DDC3F2",
"X. c #DCC1F8",
"o. c #DDC2F9",
"O. c #DEC3F8",
"+. c #DCC0FA",
"@. c #DDC1FB",
"#. c #DEC3FA",
"$. c #DFC4F9",
"%. c #DFC3FD",
"&. c #DFC2FF",
"*. c #E0C7F1",
"=. c #E0C6F3",
"-. c #E1C7F4",
";. c #E0C6F5",
":. c #E0C6F6",
">. c #E1C7F6",
",. c #E1C7F7",
"<. c #E1C7F6",
"1. c #E2C8F7",
"2. c #E0C5F8",
"3. c #E0C5FA",
"4. c #E1C6FD",
"5. c #E0C4FE",
"6. c #E1C5FF",
"7. c #E2C7FE",
"8. c #E2C8F8",
"9. c #E3C9F8",
"0. c #E3C9F9",
"q. c #E4CAF9",
"w. c #E4CAFA",
"e. c #E3C8FF",
"r. c #E4C9FC",
"t. c #E5CAFD",
"y. c #E4C9FE",
/* pixels */
"h h b h a a a d s f H =.=.^ ^ ^ Q =.Q Q Q =.Q Q =.=.Q Q Q Q =.=.Q Q =.Q Q Q =.Q Q Q =.=.Q Q =.Q Q =.` =.! ! A A *.>.x f r < < 3 ",
"h b j h a a d s s A ^ -.=.=.^ ^ Q =.Q =.Q Q =.Q Q Q Q =.=.Q Q Q Q =.Q Q =.Q =.Q =.Q Q Q Q =.Q Q ` Q Q =.! G A A =.=.` k u 4 < 3 ",
"h h j h a a d f g I ^ =.=.=.Q J Q Q =.Q =.=.Q Q Q Q Q =.=.Q Q Q Q Q =.=.Q =.Q Q =.Q Q Q Q Q =.=.` Q Q Q ! A A A =.=.` c i 5 3 > ",
"h j h h a d f g Q ^ =.:.=.=.J Q =.Q Q Q Q Q Q =.=.=.Q Q Q Q =.=.=.Q Q Q Q Q Q =.Q Q =.=.=.Q Q Q Q Q Q =.! G ! G ! =.=.B j r < > ",
"h h h a a d v Q =.=.=.=.=.=.Q H Q Q =.=.=.Q Q Q Q Q =.Q Q =.Q Q Q Q Q =.=.=.Q Q =.Q Q Q Q Q Q =.Q Q Q Q H H ! ! Q =.=.@.j r 4 < ",
"h h h a a d c :.3.=.=.=.=.Q Q Q =.Q Q Q Q Q =.=.Q =.Q Q Q Q =.Q =.=.Q Q Q Q Q =.Q Q =.Q =.=.Q Q Q Q Q H H Q g =.=.Q @.2.x d r 5 ",
"h h h a a d Q 8.0.=.H H Q =.Q H =.Q Q Q Q =.Q Q Q Q =.=.=.=.Q Q Q Q =.Q Q Q Q =.Q =.Q =.Q Q =.Q Q Q Q Q g H =.=.=.v Q 2.6.z d a ",
"h h i i a f ` w.0.=.g H Q Q Q Q Q Q =.=.Q Q =.Q =.Q Q Q Q Q Q =.Q =.Q Q =.=.Q Q Q =.Q Q Q =.Q Q Q Q H v H Q =.=.=.Q x 2.7.6.B c ",
"h i i i d f =.t.=.=.! ! Q Q =.Q Q Q =.=.Q Q =.Q =.Q Q Q Q Q Q =.Q Q =.Q =.Q Q Q =.=.Q Q Q Q =.=.^ Q ^ Q H ^ ^ Q Q Q ` ` ` @.` @.",
"h d d d d f Q >.` =.=.v H Q =.Q =.Q Q Q Q =.Q Q Q Q =.=.=.=.Q Q =.Q =.Q Q Q =.Q Q Q Q =.=.Q Q Q Q ^ Q ^ Q Q H ^ Q Q Q ` ` @.` ` ",
"d d i d f v =.:.=.=.H H Q =.Q Q =.Q Q Q Q Q =.=.Q =.Q Q Q Q =.Q Q =.Q Q Q =.Q =.Q Q Q =.=.Q Q Q ^ Q J Q ^ Q ` ^ Q =.Q Q ` ` ` 3.",
"j j d f f Q :.:.=.Q Q H H v Q =.Q Q =.=.=.Q Q Q Q Q =.Q Q =.Q Q Q Q Q =.Q =.Q Q =.=.Q Q Q Q =.=.H ^ Q ^ Q ^ ^ ^ Q Q Q =.2.:.` ` ",
"d d d f x :.:.:.=.! =.g Q Q =.Q =.Q Q Q Q Q Q =.=.=.Q Q Q Q =.=.=.Q Q =.Q Q =.Q Q Q =.Q Q =.Q Q Q Q ^ H ^ ^ ` ` { { { Q ` Q { { ",
"f j v v =.2.>.:.! =.! =.Q Q =.Q Q Q =.Q =.=.Q Q Q Q Q =.=.Q Q Q =.Q Q =.Q =.Q Q Q =.Q Q Q Q =.Q ^ H ^ Q ` ^ ^ ^ :.{ :.:.:.:.{ :.",
"v B x 3.2.=.=.=.=.! =.g Q Q Q ` Q =.Q =.Q Q =.Q Q Q Q =.=.Q Q Q Q Q Q Q Q Q =.=.Q Q =.=.=.=.Q Q ! ! H Q ` ^ Q ^ { :.^ { :.{ :.^ ",
"x 2.w.t.:.=.=.=.! =.H H Q Q ` =.Q =.Q Q Q =.Q Q =.=.Q Q Q Q =.=.Q =.=.Q =.Q Q Q =.Q Q Q Q Q Q =.! Q H =.^ Q ^ Q :.{ :.{ ^ ^ :.{ ",
">.:.Q Q =.Q v H Q Q =.=.Q Q =.Q Q =.Q Q =.=.Q Q Q =.Q Q Q =.Q Q =.Q Q Q Q Q Q =.Q Q Q =.Q =.=.Q =.=.Q Q Q Q =.=.Q Q =.Q Q Q =.Q ",
"=.:.=.=.Q Q Q Q =.Q Q Q Q =.Q Q Q Q =.Q Q Q Q =.Q =.Q =.Q Q =.Q Q Q =.=.=.=.Q Q =.=.Q Q Q Q Q Q Q Q Q =.=.Q Q Q Q =.Q Q =.Q =.Q ",
"=.Q =.Q Q Q =.Q =.Q Q Q Q Q =.=.=.=.Q Q Q Q Q =.Q Q =.Q =.=.Q Q Q =.Q Q Q Q =.Q Q Q =.Q =.Q Q =.Q Q Q =.=.Q Q Q Q Q =.=.Q =.Q Q ",
"Q Q Q Q Q =.=.=.Q Q =.=.=.Q Q Q Q Q Q =.=.=.Q Q =.Q Q Q Q Q Q =.Q Q =.Q Q =.Q Q Q =.Q Q =.Q Q =.=.=.Q Q Q Q =.=.=.Q Q Q Q Q Q =.",
"H Q Q Q =.=.` =.=.Q Q Q Q Q Q =.=.Q Q Q Q Q Q =.Q Q =.=.=.Q Q Q =.=.Q Q Q Q =.=.Q Q =.Q =.Q Q Q Q Q =.Q Q =.Q Q Q Q Q =.=.=.Q Q ",
"Q Q Q =.Q =.` =.Q Q =.Q =.=.Q Q Q Q =.=.Q =.Q Q =.Q Q Q Q Q =.=.Q Q Q =.=.Q Q Q =.Q =.Q Q Q =.Q Q =.Q Q Q Q =.Q =.=.Q Q Q Q Q =.",
"Q Q Q Q =.Q ` :.Q =.Q =.Q Q =.Q Q =.Q Q =.Q =.Q =.Q Q Q Q =.Q Q Q Q Q =.=.Q Q Q Q =.Q Q Q =.Q =.Q Q =.=.=.=.Q Q Q Q =.Q Q Q Q =.",
"Q =.=.Q Q Q =.Q Q =.Q Q Q =.Q Q Q Q =.Q Q Q =.Q Q Q =.=.Q Q =.Q =.=.Q Q Q Q =.=.Q Q Q =.Q =.Q Q =.Q Q Q Q Q Q =.Q =.Q Q =.=.Q Q ",
"Q Q =.Q =.Q Q Q =.=.Q Q Q Q =.=.=.=.Q Q Q Q =.=.Q Q Q =.Q =.Q Q Q Q =.Q Q Q =.Q Q Q =.=.Q Q =.Q =.Q Q Q Q Q Q =.Q =.Q Q =.=.Q Q ",
"=.Q =.Q Q Q =.Q Q Q Q =.=.Q Q Q Q Q Q =.=.Q Q Q Q =.Q Q Q =.Q =.Q =.Q Q =.Q =.Q =.Q Q Q Q =.Q Q Q Q =.=.=.=.Q Q Q Q =.Q Q Q Q =.",
"Q =.Q Q Q =.Q =.Q Q Q =.=.Q Q Q Q Q Q =.=.Q Q Q =.Q =.Q Q Q =.Q Q Q =.=.Q =.Q Q =.Q Q Q Q Q =.=.Q =.Q Q Q Q =.Q =.=.Q Q Q Q Q =.",
"Q Q Q =.Q =.Q Q =.=.Q Q Q Q =.=.=.=.Q Q Q Q =.=.Q Q =.Q =.Q Q Q =.Q Q Q Q Q Q =.Q Q =.=.=.Q Q Q Q Q =.Q Q =.Q Q Q Q Q =.=.=.Q Q ",
"=.Q Q =.Q Q =.Q Q Q =.Q Q =.Q Q Q Q =.Q Q =.Q Q Q =.Q Q =.Q Q =.Q Q Q =.=.=.Q Q =.Q Q Q Q Q Q =.=.=.Q Q Q Q =.=.=.Q Q Q Q Q Q =.",
"=.Q Q =.Q =.Q Q Q =.Q Q Q Q =.Q Q =.Q Q Q Q =.Q Q Q =.Q =.Q Q =.=.=.Q Q Q Q Q =.Q Q =.Q =.=.Q Q Q Q Q =.=.Q Q Q Q Q =.=.Q =.Q Q ",
"Q Q Q Q Q Q =.=.Q Q =.=.=.=.Q Q Q Q =.=.=.=.Q Q =.=.Q Q Q Q Q Q Q Q =.Q Q Q Q =.Q =.Q =.Q Q =.Q Q Q Q =.=.Q Q Q Q =.Q Q =.Q =.Q ",
"Q =.=.Q =.Q Q Q =.Q Q Q Q Q Q =.=.Q Q Q Q Q Q =.Q Q Q =.Q =.=.Q Q =.Q Q =.=.Q Q Q =.Q Q Q =.Q Q =.=.Q Q Q Q =.=.Q Q =.Q Q Q =.Q ",
"Q Q Q =.Q =.=.Q Q =.=.Q =.Q Q Q Q =.=.Q =.Q Q Q =.Q Q Q Q Q Q =.Q =.Q Q =.=.Q Q Q =.Q Q Q =.Q Q ! ! ! ! ! ! ! ! ! ! ! ! ! ! ! ! ",
"=.=.Q Q Q Q Q Q Q Q Q Q Q Q =.=.Q Q Q Q Q Q =.=.Q Q =.=.=.=.Q Q Q Q =.Q Q Q Q =.Q =.Q =.Q Q =.Q ! ! ! ! ! ! ! ! ! ! ! ! ! ! ! ! ",
"Q Q =.Q =.Q Q =.=.Q Q =.Q =.Q Q =.Q Q =.Q =.Q Q Q =.Q Q Q Q =.Q =.=.Q Q Q Q Q =.Q Q =.Q =.=.Q Q ! ! ! ! ! ! ! ! ! ! ! ! ! ! ! ! ",
"Q =.Q Q =.Q Q =.=.Q Q =.Q Q =.Q =.Q Q =.Q Q =.Q Q Q =.Q Q =.Q Q Q Q Q =.=.=.Q Q =.Q Q Q Q Q Q =.! ! ! ! ! ! ! ! ! ! ! ! ! ! ! ! ",
"Q Q =.Q =.Q Q Q Q Q Q =.Q =.Q Q Q Q Q =.Q =.Q Q =.=.Q Q Q Q =.=.=.Q Q Q Q Q Q =.Q Q =.=.=.Q Q Q ! ! ! ! ! ! ! ! ! ! ! ! ! ! ! ! ",
"=.Q =.Q Q Q =.Q Q =.Q Q Q =.Q =.Q =.Q Q Q =.Q =.Q Q Q =.=.Q Q Q Q Q =.=.Q =.Q Q =.Q Q Q Q Q =.=.! ! ! ! ! ! ! ! ! ! ! ! ! ! ! ! ",
"Q =.Q Q Q =.Q =.=.Q =.Q Q Q =.Q =.Q =.Q Q Q =.Q Q Q Q =.=.Q Q Q Q =.Q Q =.Q =.Q =.Q Q Q Q =.Q Q ! ! ! ! ! ! ! ! ! ! ! ! ! ! ! ! ",
"Q Q Q =.Q =.Q Q Q Q =.Q =.Q Q Q Q Q =.Q =.Q Q Q =.=.Q Q Q Q =.=.Q Q =.Q Q Q =.Q Q Q =.=.Q Q =.Q ! ! ! ! ! ! ! ! ! ! ! ! ! ! ! ! ",
"Q Q Q =.Q =.=.:.Q H Q =.Q =.` =.Q =.Q Q =.=.Q Q Q =.Q Q Q =.Q Q =.=.Q Q Q Q =.=.Q Q Q =.Q =.Q Q ! ! ! ! ! ! ! ! ! ! ! ! ! ! ! ! ",
"=.=.:.=.Q Q Q Q Q Q Q Q Q =.=.=.Q Q =.Q Q Q Q =.Q =.Q =.Q Q =.Q Q Q Q =.=.Q Q Q Q =.Q Q Q =.Q =.! ! ! ! ! ! ! ! ! ! ! ! ! ! ! ! ",
"Q =.:.=.Q Q =.=.Q Q Q =.Q Q =.:.=.=.Q Q Q Q Q =.Q Q =.Q =.=.Q Q Q Q Q =.=.Q Q Q =.Q =.Q Q Q =.Q ! ! ! ! ! ! ! ! ! ! ! ! ! ! ! ! ",
"Q Q Q Q H Q Q :.Q =.Q Q Q =.Q Q Q Q Q =.=.=.Q Q =.Q Q Q Q Q Q =.=.=.Q Q Q Q =.=.Q Q =.Q =.Q Q Q ! ! ! ! ! ! ! ! ! ! ! ! ! ! ! ! ",
"Q =.Q =.Q Q Q =.Q =.Q Q Q =.Q =.=.Q Q Q Q Q Q =.Q Q =.=.=.Q Q Q Q Q =.Q Q =.Q Q Q =.Q Q =.Q Q =.! ! ! ! ! ! ! ! ! ! ! ! ! ! ! ! ",
"Q :.:.:.Q Q Q Q Q =.Q =.Q Q Q Q Q Q =.=.Q =.Q Q =.Q Q Q Q Q =.=.Q =.Q Q Q Q =.Q Q Q =.Q =.Q Q =.! ! ! ! ! ! ! ! ! ! ! ! ! ! ! ! ",
"f H :.:.=.=.Q H ` :.=.=.=.Q Q Q Q =.Q Q =.Q =.Q =.Q Q Q Q =.Q Q Q Q =.=.=.=.Q Q =.=.Q Q Q Q Q Q ! ! ! ! ! ! ! ! ! ! ! ! ! ! ! ! ",
"e s s v Q ` ` =.=.=.` Q Q H Q H H Q =.Q Q Q =.Q ` ` =.=.Q Q =.Q =.Q Q Q Q Q Q =.Q Q Q =.Q =.=.Q =.! ! ! ! ! ! ! ! ! ! ! ! ! ! ! ",
"* q w d x v Q H ` =.Q =.=.=.=.=.H H H H =.=.:.=.` @.` =.Q =.Q Q ^ ^ ^ ^ Q ^ ^ { { { { { ^ { { { Q Q =.Q :.^ :.:.=.:.=.` =.Q Q ^ ",
"+ 2 5 y c v x g Q Q Q =.Q H J K G G J J Q Q ` @.@.=.` ` Q =.Q =.J I ^ I { { Q Q ^ ^ { { { { { ` =.Q =.Q ^ Q Q Q =.:.=.Q :.^ ^ :.",
"  % & q v z ` Q Q ` Q Q H Q H H J G J H Q Q ` =.=.` =.` Q Q Q =.Q J ^ ^ ^ Q { ^ I I 1.1.3.{ Q I =.Q Q =.Q ^ Q ^ Q v H Q Q Q Q Q ",
"  % @ 5 j M 7.7.=.` Q Q H H A H K K K =.=.Q Q Q @.Q :.` =.! Q Q J Q ^ I ^ { Q ^ I { { { 1.{ ^ ` Q Q Q =.=.:.:.:.H Q Q Q Q ^ Q Q ",
"+ $ + 5 k B 6.6.2.:.=.=.Q Q H H K K =.Q =.Q Q Q Q =.=.H Q K H K Q J Q J ^ Q { { { ^ { { { { { { :.:.:.:.:.:.=.:.=.=.:.:.:.:.:.:.",
"+ $ # 8 m V B z 2.2.` =.=.=.=.! J =.Q H Q Q Q =.Q Q Q J K H K H J Q J Q { Q ^ Q { { ^ { Q Q { { w.w.>.:.=.=.Q Q Q Q ^ Q ^ =.:.=.",
"# # X 4 b m C z @.@.=.` =.H =.! Q Q =.Q Q =.Q Q =.! ! J H K H K H =.Q J { ^ { ^ { { { { ^ { ^ ^ :.:.:.` Q ` Q ` ` ^ Q Q Q Q Q Q ",
": # . < j n 6.6.@.@.` x Q Q =.Q Q Q Q Q Q =.=.` H Q K J K H G G Q Q K Q ^ { ^ { I { { { :.{ ^ J g g H Q =.=.:.:.w.w.w.w.8.8.1.:.",
"; # # : 4 u j B j k k k f f f v c x =.=.2.=.=.=.g =.K K K G G ! ! ! ! ! =.=.Q Q ^ :.:.=.Q g e 0 0 0 w w e p p s g Q =.:.:.:.Q g ",
"# ; # : > 3 8 r r q q 0 q q e y z M B ` x c Q =.=.Q =.K K G G H ! ! ! ! Q Q Q =.:.:.Q s p e 0 = = = - 2 6 2 0 6 w w y p p e w w ",
"X ; # ; # # # $ < & & % % * 1 1 u d z B @.v Q Q Q H ! K ! H H H ! ! ! ! Q Q Q =.1.:.A e 0 6 = * = = = = = 2 = 2 2 2 2 6 2 6 2 - ",
"X X ; # # # + + + + + + + + @ $ < 5 u z @.@.v g v Q v =.H H H H ! ! ! ! =.=.Q Q =.A s w - - = = 2 = 2 2 2 2 2 = 2 2 2 2 2 2 2 2 ",
"; ; X ; : : # + + + # # + + + + # > 5 u d v v v H v Q =.Q H Q g ! Q Q H Q Q Q =.K f e - = = = 6 = = 2 = 2 = 2 2 2 2 2 2 2 2 2 2 ",
"; X X X # # : # + # $ # + + + # # # # , 4 u v x v g H g Q Q Q Q ! H =.=.Q =.Q Q K s 0 = * = = = = = = = = 2 2 2 = 2 = = 2 2 = = ",
"# # ; X # # # # # # ; # # # # # ; ; # + $ 1 u f f g g v Q =.=.v ! ! Q H =.Q =.Q *.s - - = * * = = = = = = = 2 = = 1 2 2 2 2 2 = ",
"X X # # # X X # + X X X X # # # X ; : + + + 2 y f f g v v ` =.=.=.! =.H Q Q =.Q K p 0 - - = = = = = = = = = = = * = = 2 2 2 = = "
};
