/* XPM */
static char *_755f847528c4ea1891dece5071cbbdaxjTRQpV8CotfCuli[] = {
/* columns rows colors chars-per-pixel */
"64 64 222 2 ",
"   c #5E4E5E",
".  c #5D515D",
"X  c #62475F",
"o  c #5E4A63",
"O  c #664666",
"+  c #654B65",
"@  c #694E66",
"#  c #674E69",
"$  c #6A4E6A",
"%  c #635464",
"&  c #685566",
"*  c #665369",
"=  c #6B526B",
"-  c #6A5A6C",
";  c #71526F",
":  c #6E4B70",
">  c #744574",
",  c #754875",
"<  c #7C4C7C",
"1  c #6D5B71",
"2  c #725373",
"3  c #775779",
"4  c #756A77",
"5  c #776379",
"6  c #824B7E",
"7  c #7C6C81",
"8  c #854F82",
"9  c #835283",
"0  c #895688",
"q  c #8B5C8C",
"w  c #92578E",
"e  c #955796",
"r  c #935D92",
"t  c #8B628C",
"y  c #87778A",
"u  c #917C8F",
"i  c #8E6D92",
"p  c #946293",
"a  c #996496",
"s  c #9C659A",
"d  c #976D99",
"f  c #9C6A9B",
"g  c #9C729D",
"h  c #997A9C",
"j  c #A3679E",
"k  c #A2709F",
"l  c #A46CA2",
"z  c #A96AA6",
"x  c #B26DAC",
"c  c #A472A4",
"v  c #AA73A5",
"b  c #A479A5",
"n  c #AC75AA",
"m  c #A779A8",
"M  c #AD7AAD",
"N  c #B278AE",
"B  c #AA7EB0",
"V  c #B474B3",
"C  c #B47CB2",
"Z  c #BA7AB5",
"A  c #B876B9",
"S  c #BC7BBA",
"D  c #C27EBA",
"F  c #C27CC2",
"G  c #8E8091",
"H  c #99889A",
"J  c #9C86A3",
"K  c #9E91A6",
"L  c #9D81BD",
"P  c #A18BA3",
"I  c #A784AA",
"U  c #A48BAC",
"Y  c #AC8CAD",
"T  c #A796AA",
"R  c #A789B5",
"E  c #B483B5",
"W  c #BB86B6",
"Q  c #B28CB2",
"!  c #BB8CB5",
"~  c #B686B9",
"^  c #BE84BB",
"/  c #BC8BBB",
"(  c #A893B5",
")  c #AB94B4",
"_  c #AE99BA",
"`  c #B492B4",
"'  c #BA93B6",
"]  c #BD94BB",
"[  c #B39BBC",
"{  c #BD9BBD",
"}  c #B9A0BE",
"|  c #C384BD",
" . c #C789BA",
".. c #C38CBD",
"X. c #C293BC",
"o. c #C997BD",
"O. c #C29BBD",
"+. c #9E81C3",
"@. c #9F81CA",
"#. c #A589C5",
"$. c #A183CC",
"%. c #A689CC",
"&. c #A98DCC",
"*. c #BE82C0",
"=. c #AD91CB",
"-. c #B49EC2",
";. c #B698C8",
":. c #B59BCC",
">. c #B89ECE",
",. c #A88AD1",
"<. c #B18FDC",
"1. c #AE91D3",
"2. c #B397D4",
"3. c #B49BD2",
"4. c #B89ED3",
"5. c #B593DD",
"6. c #B699D9",
"7. c #BA9CDB",
"8. c #BCA4C3",
"9. c #B9A4C7",
"0. c #BCA5CB",
"q. c #BCA2D2",
"w. c #BFA8D0",
"e. c #BEA2DC",
"r. c #B895E2",
"t. c #C585C2",
"y. c #C986C5",
"u. c #C58CC3",
"i. c #CA8CC5",
"p. c #CB85CA",
"a. c #C789C8",
"s. c #CC8CCA",
"d. c #D38CC3",
"f. c #D18DCD",
"g. c #C493C3",
"h. c #CA93C5",
"j. c #C59CC3",
"k. c #C899C6",
"l. c #CD93CA",
"z. c #CC9CCC",
"x. c #D396C5",
"c. c #D192CD",
"v. c #D29CCD",
"b. c #CF8DD2",
"n. c #D28ED1",
"m. c #CC96D1",
"M. c #D594D3",
"N. c #DA95D7",
"B. c #D39CD2",
"V. c #DB9ED6",
"C. c #DC9DD9",
"Z. c #E19ED4",
"A. c #C4A3C4",
"S. c #CAA6C6",
"D. c #C3A6CA",
"F. c #C5ACCC",
"G. c #CAABCC",
"H. c #D6A3CB",
"J. c #C9B2CD",
"K. c #D3B2CE",
"L. c #C4ACD4",
"P. c #CAAED3",
"I. c #C1A6DC",
"U. c #C5ABDA",
"Y. c #C5ABDB",
"T. c #D4A4D3",
"R. c #D8A7D5",
"E. c #DDA1DB",
"W. c #DAACDB",
"Q. c #CCB1D4",
"!. c #C7B1D8",
"~. c #CBB3DC",
"^. c #D3B4D3",
"/. c #DBB2DD",
"(. c #D6BADA",
"). c #E6AED9",
"_. c #E2B5DC",
"`. c #C3A6E4",
"'. c #C5A8E5",
"]. c #C9ADE6",
"[. c #CBAEEC",
"{. c #CDB4E2",
"}. c #CEB2EC",
"|. c #D8B4E3",
" X c #D3BAE5",
".X c #D1B6EC",
"XX c #D5BBEB",
"oX c #D9BFED",
"OX c #CEB2F2",
"+X c #D1B4F4",
"@X c #D6BAF3",
"#X c #D9BEF4",
"$X c #D6B9F8",
"%X c #DABEF9",
"&X c #E5ACE3",
"*X c #E7A8E4",
"=X c #E5B4E3",
"-X c #E3BBE3",
";X c #EAB7E8",
":X c #F2B4E9",
">X c #F6B9F4",
",X c #D7C0DB",
"<X c #DCC3EE",
"1X c #DCC2EF",
"2X c #DDC4EE",
"3X c #DEC5EF",
"4X c #DDC3F1",
"5X c #DDC3F2",
"6X c #DDC3F3",
"7X c #DFC6F0",
"8X c #DEC4F3",
"9X c #DFC5F4",
"0X c #DEC2F9",
"qX c #E2C6ED",
"wX c #EBC9ED",
"eX c #E0C6F2",
"rX c #E1C7F6",
"tX c #E5C7F5",
"yX c #E1C6FA",
"uX c #E3C9F9",
"iX c #F4C8F5",
"pX c #F4D5F8",
/* pixels */
"+X+X+X+XOX}.}..X X.XeXeXeXeX7X7X3X3X3X<X3X<X4X9X6X4X9X6X6X6XeXeX6X6X6X6XeXeX6X6X6X9X6X6X7X6X9X9X6X9X7X9X9X6X6XoX9XrX6X.XL.r.r.r.",
"OX+X+X+XOX}.}..XXX1XeXeXeXeX7X3X3X3X<X3X7X3X9X9X9X9X4X9XeX6X6X6X0XeXeX6X6X6X6XeX9X9X9X9X9X9X6X9X7X6X6X9X9X6X6X1X9XrX9XXXY.5.<.<.",
"+X+XOXOXOX}..X@X@X6X9XeX7X7X7X3X3X3X6X<X7X9X9X4X9X9X9X9X6XrX6XrX6X6XeXeX7X6XyX6X6X6X9X7X6X6X6X6X6X9X9X6X9X6X6X6X7X9X9XoX.X6.<.<.",
"OXOXOXOXOX.X@X#X6X9XeXeX7X7X7X3X3X3X<X3X4X6X6X9X4X6X9X4X6X7X6X6XeX6X6X6X6X9X9X6X6X7X6X6X7X6X9X9X9X6X7X6X7X9X6X6X6X9X9X6XXXr.<.<.",
"OXOXOXOX[.OX@X6XyXeXeXeX7X7X7X7X7X7X4X3X4X9X6X7X9X6X6X9X7X6X7X6X7X6X6X7X9X6X9X6X9X6X9X9X6X6XeX6X9X6X3X6X6X9X9X6X#XeXeXeX1X`.r.5.",
"OXOXOX[.}..X#X0XyXyX1X6X7X6X1X6X9X4X4X4X9X9X6X9X7X9X9X4X9X6X6X9X6X9X9X6X7X6X9X9X7X3X9X6XeXeX6X6X6X9X1X6X6X9X7X6X6XeX%XeX6X}.`.7.",
"OXOXOXOX}.+X6XyXuXyX1X7XeX3X7X6X4X7X4X4X4X9X9X6X6X7X7X9X9X4X6X4X9X6X3X9X6X6X6X7X3X1X6XeX6X6X6XeX9X9X6X6X6X7X9X6XeX1XeXeXtX%X+X}.",
"[.OXOX[.}..X6XyXeXeX1X6X3X1X6X1X4X4X7X4X4X4X6X4X6X#X X(.pXqX-X|.W.W.&X|.W.iXtXwXqX.X6X6X6X6X6X6X6X1X6X6X6X6X7X6X6X1X#XeXeX%X%X#X",
"[.}.}.[.}..X6XeXyX6X<X<X<X6X1X1X4X<X4X4X6X4X4X9XqX<X(.K.wX_.R.H.z.c.T.T.v.;X_.(.(.L.@X7X6X1X6X7X6X1X6X6X6X7X6X6X1X6X1X1X7X%XeX%X",
"[..X}.}.}..X6XyXeX1X<X6X<XoX1X1X6X4X4X4X7X6X4X9X<X,X,X(.O.X.../ ....B.v.g.z...o.A.9.oX6X6X6X6X6X6X6X6X3X1X1X1X6X6X1X6X#X6X@X%XeX",
".X.X{.}..XoXyXeXyX9X6X7X1X6X6X1X6X6X6X6X6X4X4X7XJ.K.S.X.S.o.i.i.c.c.*X:XE.z.*.g.j.} A. XoX7X4X7X6X6X1X6X6X6X1X6X6X6X6X1XeX1XeX#X",
".X}.}.}.XX6X9XyXeX7X6X1X1X1X6X3X7X6X6X6X6X6XXXF.A.S.S.z...u.i.s.f.t.C.Z.M.u.i.g.g.' ` D.~.XX7X1X7X3X6X6X6X6X6X6X6X1XeX6X%X6X1XqX",
".X.X.X X#X6XeXeX7X4X4X4X6X7X6X6X6XXX.XQ.(. X(.S.O.g.T.=XM.n.f.p.M.t.N.N.f.y.s.g.h.O.' { D.Q.oX1X6X1X6X6X6X6X1X6X6X6X1X6X6X1X1X6X",
".X.XXXoX6XeXeX7X9X<X4X7X1XqX4X4X|.~.D.[ G.^./.T.O.u.E.>XE.n.n.f.N.F n.n.s.p.l.s.s.k.] ` ;.S.P.oX6X6X6X6X1X6XeX6X1X6X6XeXeX1XeX1X",
"oX#X6X7XeXyX7X7X7X9X4X4X7X7X<X(.G.j.! X.W.iXpXz.^ a.l.M.p.p.F F p.F b.p.p.s.s.t.^ u.k.k.X.] ` L.XX6X1X7X6X6X6XeX7X6X6X1XeX#X1X1X",
"6X9XyX7XyX9X6X4X7X7X4X4XXX~.S.o.k.h.l.g.u...h.M.^ t.s.n.b.b.F A F b.n.n.n.s.s.m.l.l.u.u.o.g.k.Q { P.oX6X6X1X6X6X6X6X1X6X3XeX1X6X",
"9XyX6XrX7X1X1X1X2X2X2X X(.Q.j.X.u.h.s.a.a.s.l.i.s.s.s.s.p.b.F V A s.s.s.s.s.s.B.V.M.s.i.i.h.o.X.{ A.F. X1X6X1X6X6X6X1X7X6X6X1X6X",
"9X9X7X3X6X6X1X1X2X2X1X(.Q.S.o. .i.s.s.p.s.l.l.^ t.t.t.s.M.n.t.A z a.a.a.s.g.*.E.*XV.s.s.l.h.u.g.g.O.A.P. X1X7X6X6X1X6X6X6X6X6X7X",
"6X7X6X6X1X3X1X1X1X3X3XK.S.X.! o.l.f.s.p.i.s.a.V V V S l.>XM.s.F e *.u.s.m.g.^ *X>X*Xy.f.c.c.u.i.o.X.O.A.L. X6X1X6X1X7X6X6X6X6X6X",
"6X6X6X1X3X3X3X3X3X3X(.S.O.X.o.d.y.p.p.F | t.h.l.a.^ ^ h.C.*.V n e m.z.k.*.*. .o.h.M.s.f.*XiX*XV. .W ] j._ !.1X6X6X6X6X6X6X6X6X6X",
"6X6X6X6X1X3X6XrX6X1X{ O.H.).>XZ.b.a.p.V ^ u.h...u.u.g.T.V.C f w < s s s a M h.i.i.f.t.D f.C.d.| s.l.k.X.S.Q.XX6X6X6X7X1X6X6X6X6X",
"6X7X1X6X6X1X6X1X1X1XA.A.H.).:Xd.a.a.b.V V ^ h.^ h.u.*.*.B./ M f > e c C C c v v N A D F y.f.p.| c.l...o.j.F.~.1X6X6X6X6X6X6X6X1X",
"6X6X9X6X7X1X6X6XqXoXK.o.o.Z.Z.D | a.m.F l C u./ l.g.~ E z.;.| M < a ^ k.v.v a j l x S y.f.f.p.y.i.s. .g.X.{ w.6X6X1X6X6X1X6X7X6X",
"6X6X6X6X6X6X6X3XqX(.S. . . .D Z ^ a.m.m.c v N u.z.l.l.h.g.u.;./ p C W ^ ..v.c.i. .y.s.y.f.f.x y. .i.B.h.X.` [ 1X6X7X6X6X7X6X6X6X",
"6X6X6X6X6X1XeX1XXXw.'  . .d.d.d.Z C ~ l.u.n l g.u.T.;XiXk.g.u.C > C l.h.| | u.y.i.i.s.s.t.S x i. .| d.k.! ` 9.6X6X6X4X6X6X6X7X4X",
"3X6X6X6X6X6X6X6X X[ ..o.x.d.d. .n c v ;.~ f p *.g.m.W.;Xg.u.B s 0 S c.c.c.i.p.d.i.i.g.s.S x Z f.c.s.u...X.) _ 6X6X6X4X7X6X6X6X4X",
"6X6X1X6X6X6X6X1X XA.X.o.d.d.d.| C B m B l r w N u.k.m.B.~ m p q l ^ c.E.*XN.d.i.s.i.i.Z C Z t.f.f.d. ...g.-.9.6X7X4X6X6X4X6X4X6X",
"6X6X6X3XeX1X6X6X3X^.h.i. .y.d.d.l.a.C s r 0 8 p ~ g.*.~ l 9 8 r / u.l.&XiXC.| y.i.t.| z V i.s.l.t.^ W ..] P.<X6X4X4X6X6X6X7X6X6X",
"6X1X6X1X6X6X6X6X XA.O.u.| | i.C.>X>X*Xs.t.^ C 8 a / E p > d E X./ ] ! E c 0 r w w j z V | i.h.! b v Y Y 9.{.<X6X6X4X6X6X6X4X9X4X",
"7X3X6XeX7X6X6X6X XJ.] j.h.h.s.p.N.N.b.p.i.l...v > p p < g ! O.;.g.b q 9 0 a c a s N wXu.s 6 a d h P P 8.w.{.6X<X6X4X7X6X4X6X4X6X",
"6X6X6X1X6X6X6X3X XS.{ X.h.h.f.y.b.n.b.b.a.h.l.W < 6 8 0 / T.W.W.] q < 9 p f a c n Z =X..n c m I ) -.0.~.<X<X7X6X6X6X6X6X4X7X6X6X",
"6X6X1X6X6X1X6X6X XO.{ X.h.i.d.i.n.n.p.n.i.l.l...0 > < q z.R.|.=XI < , t k v k N ! ^ l.! / o./ ` 0.~. X6X6X6X6X6X6X6X6X4X6X6X6X6X",
"6X6X6X7X6X6X1X6X(.) X.] ..o.h.i.s.i.a.s.C.l...h.p 0 9 0 k.k.z.;.t > 7 e ~ g.u.g.z.h.X.] g.j.{ ( L.XX1X6X6X6X6X6X6X1X6X6X6X6X6X6X",
"1X6X6X6X6X7X6X6X X9.` ! X.h. .h.i.u.h.V.iX=Xz.g.k < > > B / g.E , 4 q f ~ ~ k.*.! / ] O.' Y (  X1X1X1X6X6X7X6X7X6X6X6X7X1X7X6X6X",
"6X7X6X6X6X1X6X6X1X X-.` ! X.!  .X...g.z.H.k.g.X.g.t < < < i m b > 7 e E g.k.qX-X^.O.) ) 8.0.~.XX<X6X6X1X6X1X6X7X6X6X6X6X6X6X1X7X",
"6X6X6X6X6X7X7X6X6X6XP.D.A.O.Y Q Q Q Q ' Q Y Y ` ` g 0 , > 7 t q > > f I ) ] ^.P.D.D.A.0.!. X1X6X6X6X6X7X6X6X6X6X7X6X1X6X6X6X6X6X",
"6X1X7X6X7X6X6X6X6X6X6XXX~.q.( U Y U U U ( U Y ( U U d 3 $ 3 : : 2 O h U U ( _ _ -.w.1X1X6X9X6X6X6X6X6X1X6X7X6X1X1X6X6X6X7X6X6X1X",
"6X6X6X6X1X6X6X6X6X6X1X1X4X9X<X7X4X4X6X4X6X4X6X6X#X<XQ.J = * # # 2 O ) {.6X6X<X6X6X1X6X1X6X7X1X6X1X6X6X6X6X4X6X6X6X6X6X7X6X6X6X7X",
"6X6X6X6X6X6X6X4X6X6X7X6X4X6X6X6X9X6X4X4X4X6X6X4X6X6X X9.4 % % % + # -.XX6X6X6X6X6X6X1X6X6X<X6X6X6X6X1X6X4X6X4X6X6X7X6X6X6X7X6X6X",
"6X7X1X6X6X6X6X7X1X6X6X6X6X6X6X6X4X4X4X4X4X4X4X4X6X7X7XY.y - - -   & 9.XX1X6X6X<X9X1X6X6X6X6X3X1X6X6X7X6X9X4X6X6X6X6X6X6X1X6X6X6X",
"6X6X6X6X6X6X6X6X<X4X4X4X4X6X6X6X6X6X6X6X4X6X4X6X4X6X4X~.y - % %   % 9. X6X6X6X6X6X6X7X4X6X3X3X6X4X7X1X6X4X4X7X4X6X1X1X6X1X7X4X4X",
"3X6X6X6X6X6X7X<X<XXX4X4X4X6X6X6X0X0X0X0X6X6X6X4X6X6X<X{.4 - % % . . -.XX6X6X7X4X6X1X6X4X1X1X6X1X6X7X1X3X4X4X4X7X1X6X6X1X3X6X6X6X",
"<X6X6X6X7X1X6X6X3X4X4X7X6X4X6X0X0X0X0X0X4X9X6X4X6X4X4X XT - % % . % 9. X6X6X6X6X1X6X3X6X7X6X1X<X4X<X3X1X7X4X1X3X1X1X6X1X6X6X6X6X",
"<X6X6X6X6X1X1X7X4X<X4X<X4X6X6X6X6X6X0X0X6X4X6X6X4X4X4X~.G - % % . . -. X6X4X7X6X6X1X1X<X3X1X6X6X3X6X6X<X6X1X1X6X7X1X7X3X6X6X4X9X",
"6X9X6X6X6X<X6X6X<X4X4X6X4X7X6X7X6X0X6X6X6X9X4X6X4X6X6X{.G - % * % % _ {.6X6X4X4X1X7X6X7X1X6X6X3X<X4X<X4X1X6X6X1X1X6X4X4X7X<X6X6X",
"0X0X0X6X6X6X6X6X7X7X<X6X4X6X<X6X6X6X6X4X4X6X9X6X6X4X4X XH = * * . - ( ~.6X1X4X7X6X3X1X6X1X1X4X4X7X4X4X7X7X1X1X3X7X1X4X7X<X6X6X<X",
"6X0X0X0X0X6X7X<X<X6X3X<X6X<X<X6X9X4X4X4X4X9X4X4X4X9X4X{.7 - # # * o K Y.6X6X4X6X1X6X7X6X6X<X6X6X6X6X4X4X6X6X7X1X6X4X6X6X1X6X6X1X",
"'.].}.@X6X4X<X<X<X3X<X3X<X3X<X4X<X4X6X4X4X4X6X6X4X4X@X{.y 2 $ # * * J q.6X7X6X6X6X6X4X4X7X6X7X4X6X4X4X4X6X6X6X6X6X4X6X7X1X6X1X7X",
"3.e.]..X$X6X6X1X@X6X1X3X3X2X2X2X2X2X2X2X1X7X6X7X4X6X4Xw.7 2 = * + - K w.4X4X6X6X6X6X6X4X6X6X6X4X6X3X6X6X6X4X6X6X6X6X6X1X6X1X7X1X",
"+.=.e.].+X6X1X1X7X1X3X3X<X2X2X2X2X2X2X2X<X4X6X6X6X4X4X{.1 = = = + - H J.6X6X6X4X6X4X6X6X7X6X4X6X6X6X6X6X4X6X6X4X6X1X6X7X6X6X3X3X",
"L +.3.`..X6X6X1X<X4X4X1X2X<X2X2X3X<X<X3X6X7X4X6X6X9X4Xw.- - = # * @ K J.6X6X6X4X7X6X9X4X6X4X4X6X6X6X6X1X6X6X6X6X6X6X6X1X7X1X1X2X",
"+.1.+.1.+X$X0X0X0X<X4X1X<X<X<X2X<X3X6X6X6X6X6X4X6X9X6Xw.5 * = # X ; T q.4X4X6X4X4X<X6X6X9X6X6X0X7X9X6X9X7X6X6X6X6X1X1X6X1X7X6X7X",
"L &.+.q.$X$X6X6X9X9X4X6X2X2X2X3X4X<X6X4X6X1X6X1X6X9X4X3.- % * # @ & P F.<X4X6X4X4X4X4X6X4X<X<X6X9X9X6X9X9X9X9X9X7X6X6X6X6X7X6X9X",
"+.%.+.6.$X0X$X6X0X9X6X6X2X2X7X3X4X4X6X3X6X6X6X6X6X4X,X9.- % # # @ @ H } 4X<X6X6X4X4X6X6X6X6X4X4XrXyX9X9X9X9X6X6X4X6X4X4X6X1X6X7X",
"+.%.+.6.$X%X$X$X#X0X6X6X6X9X7X4X6X6X6X7X6X6X6X6X4X6X{.-.% * * # @ @ u } <X4X6X6X6X4X6X6X9X6X6X7XrX9X9X7X6X6X6X6X6X6X4X4X3X6X6X9X",
"%.+.+.1.[.$X0X0X0X#X6X0X6X6X6X4X4X6X4X1X6X6X6X6X9X4X~.( 1 * # # + & u } 4X4X6X4X4X4X6X0X9X6X6X<X<XoX@X9X6X6X9X9X9X9XuXuXuX9X6X9X",
"%.%.+.%.6.`.+X0X$X+X4X@X@X}.XX#X0X0X0X0X6X6X6X1X6X6X~.K * * $ $ ; X 6 } 3X7X7X7X6X9X9X6X4X}.!.e.q.q.q.U.U.].{. X4X<X6X9X9X9X0X6X",
"+.@.%.@.,.1.7.e.e.e.e.e.e.e.`.].[.0X$X0X6X6X1X6X6X6X~.T 1 # $ = = + 6 ) (.7X7X7X6XuX6X<X{.e.q.:.:.:.q.>.9.>.q.q.e.U.Y.'.{.e.Y.I.",
"@.@.%.%.@.+.&.&.=.:.=.=.=.=.>.6.`.[.$X0X6X1X1X7X7X6X~.T = * $ $ @ @ 6 T ,X6X9X9X6X9X4X{.w.w.3.:.:.:.:.:.:.:.:.>.q.q.q.q.q.4.4.4.",
"@.@.%.@.+.+.+.+.+.+.L L R +.#.&.2.e.[.$X+X1X.X1X<X6XL.K * = = $ @ = 4 H {.4X9X7X6X4X].w.q.4.9.3.>.>.>.>.>.4.>.>.9.:.:.:.;.4.4.4.",
"@.+.@.$.$.1.%.%.#.&.+.%.#.#.+.L +.,.6.'.}.6X1X1X<X<X0.H 1 # # = $ = - J !.6X9X4X7X4Xw.3.;.-.9.q.>.:.:.:.:.:.:.:.:.>.:.>.q.4.4.3.",
"@.@.@.@.$.$.@.@.@.@.@.$.@.@.%.@.,.$.$.,.6.`.[.0X@X<X9.G o 2 2 2 O = - G 3.7X3X6X3X}.I.3.3.3.1.3.:.=.3.3.3.3.3.3.3.3.3.3.:.3.3.3.",
"$.$.@.$.$.$.$.$.@.@.@.@.$.$.@.$.,.$.$.$.@.3.`.}.}.3X9.7 = * $ 2 $ $ - 7 _ 3X3X3X<X}.e.3.3.2.3.3.,.:.3.3.3.3.3.3.3.3.3.3.3.3.3.3.",
"$.$.$.$.$.$.$.$.$.@.$.$.$.@.$.$.$.,.$.$.+.%.3.'.}.1X-.7 1 O O $ 2 $ * 4 T <X7X7X7X}.3.3.3.3.=.3.4.3.3.3.3.3.3.3.3.3.3.3.3.3.3.3."
};
