/* XPM */
static char *ad5c5bd7cf584979ebdf659d1cdb5029kPS5GMQXzlD2QWRU[] = {
/* columns rows colors chars-per-pixel */
"50 50 218 2 ",
"   c #703D6E",
".  c #6D3969",
"X  c #5B4C5D",
"o  c #5C515C",
"O  c #62475F",
"+  c #5D4360",
"@  c #644C64",
"#  c #674E69",
"$  c #6A4D6A",
"%  c #684868",
"&  c #635465",
"*  c #695066",
"=  c #665B67",
"-  c #675169",
";  c #6C536B",
":  c #6B5A6D",
">  c #71536F",
",  c #6E4670",
"<  c #744474",
"1  c #7A4579",
"2  c #7A4C7B",
"3  c #754C77",
"4  c #6D5A71",
"5  c #7B547C",
"6  c #735A75",
"7  c #766678",
"8  c #7D717F",
"9  c #814D7E",
"0  c #7F5180",
"q  c #7D6D82",
"w  c #8C5B8C",
"e  c #885385",
"r  c #945E93",
"t  c #955796",
"y  c #8B5488",
"u  c #8C798C",
"i  c #8E6190",
"p  c #956294",
"a  c #9D6A9B",
"s  c #9A6698",
"d  c #8C7F91",
"f  c #9A779E",
"g  c #A1699D",
"h  c #A1729E",
"j  c #9F79A3",
"k  c #997DBD",
"l  c #967BB5",
"z  c #A868A6",
"x  c #B26DAC",
"c  c #A473A4",
"v  c #AA7BAB",
"b  c #A97AA8",
"n  c #B37DAF",
"m  c #B173AE",
"M  c #AF7EB2",
"N  c #B375B2",
"B  c #B17CB2",
"V  c #BA7BB4",
"C  c #BC7CBB",
"Z  c #BA75B7",
"A  c #B36FB3",
"S  c #C17EBA",
"D  c #C47FB6",
"F  c #9B7EC1",
"G  c #C078C0",
"H  c #9B879E",
"J  c #A08D9E",
"K  c #9D84A3",
"L  c #9F88A6",
"P  c #9D90A2",
"I  c #9D81BD",
"U  c #A688A9",
"Y  c #A493AB",
"T  c #AC92AD",
"R  c #A699A8",
"E  c #B690AF",
"W  c #A084BF",
"Q  c #B684B5",
"!  c #BA82B6",
"~  c #BA8BB4",
"^  c #BE85BC",
"/  c #BD8BBC",
"(  c #B788B7",
")  c #A692B3",
"_  c #AC97B7",
"`  c #B491B2",
"'  c #B29BB4",
"]  c #BD93BA",
"[  c #BB99BA",
"{  c #B384AD",
"}  c #B5A4B6",
"|  c #C284BD",
" . c #C28BBD",
".. c #C88CBA",
"X. c #C293BD",
"o. c #C299BB",
"O. c #C797BC",
"+. c #C6A2BC",
"@. c #9E80C3",
"#. c #9F81CA",
"$. c #A286C3",
"%. c #A68AC5",
"&. c #A183CC",
"*. c #A98DCC",
"=. c #A688CD",
"-. c #BF8DC1",
";. c #B197C7",
":. c #B097CE",
">. c #B69CCC",
",. c #B89ECE",
"<. c #B599C1",
"1. c #B18EDC",
"2. c #B59BD2",
"3. c #B99ED4",
"4. c #B393DA",
"5. c #B699D8",
"6. c #AD90D0",
"7. c #BCA6CD",
"8. c #BEA8CF",
"9. c #BAA3C3",
"0. c #BCA2D3",
"q. c #BEA8D0",
"w. c #B895E3",
"e. c #C584C3",
"r. c #C985C4",
"t. c #C48CC2",
"y. c #CA8CC4",
"u. c #CB86CA",
"i. c #CD8CCB",
"p. c #D48DC4",
"a. c #D18DCC",
"s. c #C494C3",
"d. c #CA94C6",
"f. c #C59BC3",
"g. c #C99BC6",
"h. c #CD94CB",
"j. c #CD9ACA",
"k. c #C793CA",
"l. c #D293CD",
"z. c #D39BCD",
"x. c #D591C5",
"c. c #D28DD1",
"v. c #CB99D1",
"b. c #D493D2",
"n. c #D895D4",
"m. c #D49CD2",
"M. c #DB9BD5",
"N. c #DD9EDB",
"B. c #DC95DA",
"V. c #C3A3C1",
"C. c #C9A3C5",
"Z. c #CDADCC",
"A. c #C8A6C8",
"S. c #D1A0CE",
"D. c #C8B1C6",
"F. c #D5B5CD",
"G. c #C4ACD6",
"H. c #C5ACDA",
"J. c #C6ACDB",
"K. c #D4A2D2",
"L. c #D9A1D4",
"P. c #DDABDB",
"I. c #DBA7D7",
"U. c #CCB4DF",
"Y. c #D5B4D4",
"T. c #D8BCD4",
"R. c #E3A5DA",
"E. c #E5B2DD",
"W. c #CBAFEC",
"Q. c #C5A9E6",
"!. c #CDB4E2",
"~. c #CEB2EC",
"^. c #D0B7E5",
"/. c #D2B9E6",
"(. c #D1B5EC",
"). c #D5BBEB",
"_. c #D9BFEE",
"`. c #CEB2F2",
"'. c #D1B4F4",
"]. c #D6BAF2",
"[. c #D9BEF5",
"{. c #D7BAFA",
"}. c #DBBFF9",
"|. c #E5A4E1",
" X c #E8A8E7",
".X c #E7B8E4",
"XX c #F8B9F4",
"oX c #E2C2DD",
"OX c #DEC5EF",
"+X c #DDC4EE",
"@X c #DCC3EE",
"#X c #DBC1F0",
"$X c #DDC3F0",
"%X c #DCC2F1",
"&X c #DDC3F2",
"*X c #DDC3F3",
"=X c #DEC4F1",
"-X c #DEC4F3",
";X c #DFC5F2",
":X c #DFC6F0",
">X c #DFC5F4",
",X c #DDC3F2",
"<X c #DEC2FA",
"1X c #E1C8EF",
"2X c #E8C1E7",
"3X c #E0C6F2",
"4X c #E1C7F6",
"5X c #E0C6F5",
"6X c #E0C7F5",
"7X c #E2C8F7",
"8X c #E2C6FA",
"9X c #E3C9F9",
"0X c #FFC5FD",
"qX c #F9CBF8",
"wX c #FFD4FF",
"eX c #FFDDFF",
"rX c #EFCCED",
"tX c #FDE2FD",
/* pixels */
"'.'.'.`.`.~.~.).5X3X3X@X1X_.@X@X3X-X-X-X>X,X>X,X>X,X4X,X,X4X,X,X4X,X,X,X>X,X,X>X4X3X-X_.4X7X).G.1.w.",
"'.'.'.`.`.~.).).3X3X3X1X1X1X@X@X-X-X-X-X,X>X,X>X,X>X,X,X>X,X4X,X,X,X3X>X,X>X>X>X,X4X-X_.,X4X).U.1.1.",
"'.'.`.`.~.].[.*X3X3X3X_._.@X@X1X-X-X-X-X,X3X,X,X>X,X>X,X3X,X,X,X4X,X4X,X>X,X>X,X-X>X-X@X-X4X-X^.1.1.",
"`.`.`.`.`.[.<X>X3X3X1X1X3X1X@X@X-X-X-X-X,X4X,X4X,X>X,X4X,X,X4X,X,X,X,X>X,X>X,X>X[.-X-X-X-X4X-X_.w.4.",
"`.`.~.~.(.*X8X8X1X[.1X1X-X@X-X@X-X-X-X-X-X-X,X,X,X>X,X,X>X>X,X>X>X,X>X,X-X-X-X-X@X-X>X-X-X-X,X,X`.v.",
"`.`.~.W.'.>X8X4X3X3X1X[.-X-X@X@X-X-X-X-X-X-X3X4X>X,X:X,X,X>X>X,X,X3X,X>X-X-X-X-X#X-X>X-X-X-X-X4X}.'.",
"W.~.~.~.).>X4X>X@X_.[.@X_.@X-X-X-X_.-X-X/.D.tXE.P.K.z.R.z.qXrXrXG.,X-X_._.-X-X-X-X#X-X#X#X#X-X-X<X<X",
"W.~.~.W.(.>X4X,X@X_.1X@X@X@X-X@X-X-X-X-XT.oXo.X. ... .L.y.j.~ C.<._.-X-X-X-X-X-X-X@X#X-X-X#X_.#X].<X",
"'.!.!.~.[.4X7X3X@X-X@X@X-X-X-X-X,X,X#XD.Y.` S.t...z.z.XXL.h. .s.[ 9.@X-X-X-X-X@X-X%X-X%X-X%X-X%X-X-X",
"(.~.~.)._.4X3X-X-X@X@X-X-X-X-X[.,X+X9.f.g.S. .e.r.a.G |.b.e.t.d.] T D.!.-X@X-X@X%X-X%X-X%X-X%X-X-X#X",
"(.(.).[.-X4X-X@X@X@X-X-X-X(.J.' Z.Y.Y.s.s.0X|.n.c.B.e.c.i.k.b.k.d.] ` A.^.-X-X[.-X%X-X%X-X%X-X%X-X@X",
").#X,X4X4X4X3X1X-X@X-X_.T.A.~ s.E.eXj.^ i.n.u.u.G u.u.u.u.u.u.^ k.d.f.] ` G.-X-X%X-X%X-X%X-X%X-X@X-X",
"-X4X4X4X3X-X+XOX@X-XU.C.o.d.h.t./ ^ b.^ e.c.i.c.Z G c.c.b.c.k.b.h. . .d.g.U 9.).-X-X%X-X-X%X-X%X-X#X",
"4X4X-X-X_._.+X+X@XU.F.O. .d.c.e.i.m.e.h.i.u.e.c.A N u.u.r.t.-.|.M.a.r.d...d.o.V.U.%X-X%X%X-X%X-X-X-X",
"-X-X@X@X@X+X+X+X-XF.o.~ y.a.a.u.i.i.N N m i.XXk.c.t e.-.k.h.-.XX|.r.b.l. .d.O.o.V.G.%X-X-X%X-X%X#X#X",
"-X#X@X-X1X3XOX@XU.+...j.y.r.u.C | d.h.t.Z k.N.C N r m.h.^ t.t.k.n.r.a.wX XM.Q ] C._ %X%X%X-X%X-X*X*X",
"-X-X@X-X#X-X-X-X' O.E.0XM.u.u.A | h.| t.h.h.m.v w 1 r w w b h...y.e.Z n.r.C z.z.] Z./.3X-X%X-X%X%X>X",
"#X#X-X-X-X-X#X#XF.O.R.R.S e.b.C a d./ d./ M S.-.^ 1 r h.m.a y g z Z u.a.a.| l.! ..[ 7.-X%X-X%X-X,X%X",
"-X-X-X#X-X#X-X).O.....D Z | v.>.a B t.j.k.k.s./ s.r Q Q ..z.l.| r.h.r.b.x a.| M.d./ T -X-X%X-X%X,X,X",
"-X#X-X#X-X-X-Xq.E ..p.x.r.B Q v.t.p t.t.P.wXd.d.-.< V m.| D y.y.y.i.y.C x a.D p.j.{ ' -X%X-X%X-X,X,X",
"-X-X#X-X,X,X>X_ O.x.x...V g c -.M y t.k.j..Xt.k.r r  .b.n.a.a.r.y.h.r.z S a.n... .j.L %X%X%X-X%X,X,X",
"#X-X#X-X,X%X%XT.O...p.p.a.k.M p w 1 r  .k.Q c 2 2 ^  .m.wX|.| l.r.e.s r.i.l.| ! ..] #X%X%X-X%X-X,X,X",
"#X-X-X-X%X>X%XA.<...D p.N.XX Xi.r. .e p k.p < h s./ X.! c e r y g g V d.h.! f { T 9.#X%X-X%X-X%X%X%X",
"-X-X#X-X*X%X*XZ.X.d.a.a.e.B.u.u.t.h.n . s 3 b <.d.<.h 2 9 g h r m eX! . i s K L 9.^.#X%X%X-X%X-X>X>X",
"-X#X-X#X-X-X-X9.[ X.d.p.r.n.i.b.| z.^ 9   w j.^.qX( 3 3 a a p Q ! z.B g.~ ` G.^.#X,X,X,X%X%X%X>X%X%X",
"-X-X-X#X-X#X-XT o. ...y.y.a.r.i.I. .d.r e e g.-.K.i , 0 ( k.-.j.d.X.X.f.[ ) ^.@X%X,X,X,X>X>X%X,X%X>X",
"#X@X-X-X@X-X-X7.` E d.X.y...k.L.wXK.s.h   , v -.-.0 2 i Q / g.( ~ [ f.T ) ).-X-X,X,X,X,X%X%X,X,X%X,X",
"-X-X#X-X-X-X-X-X<.E O.~ X. .X.g./ X.X.j.5 5 % w U , 2 b <.A.qX2X+.T ) G.).-X-X-X,X,X,X,X%X>X,X,X>X%X",
"-X-X-X#X#X#X-X-X>X/.8.L L L K K U L U f c 5 % 5 , 3 % U K U ) ) 8.).+X>X%X>X>X,X,X,X,X,X>X%X,X,X,X,X",
"-X#X-X-X-X-X-X#X%X%X%X%X%X%X%X-X#X,X%X+X@XY ; $ @ > % G.-X-X,X#X,X,X%X%X%X%X%X,X,X,X>X,X%X%X,X,X,X,X",
"_.-X#X-X-X-X-X-X%X>X,X,X%X%X-X%X-X%X%X%X-XG.7 & - @ & ^.,X,X,X,X,X,X,X,X>X%X,X,X,X,X%X%X%X>X%X>X,X,X",
"-X-X-X-X@X-X@X[.%X>X,X,X%X>X%X-X%X-X%X-X-X).d & & o = !.,X,X,X,X,X,X,X%X>X%X,X,X,X,X%X>X%X>X%X,X,X,X",
"_.-X-X-X@X3X@X).3X-X[.3X[.8X}.8X,X,X,X>X#X).7 = = o o /.,X,X,X,X,X@X-X@X3X_.3X@X3X_.3X.X*X,X,X,X*X*X",
"_.-X-X[.[.3X@X_.@X-X-X3X3X}.8X[.,X,X,X,X#X#XR = o o = ^.,X>X,X,X,XOX@X-X@X@X_.3X[.1X3X_.*X%X+XOX%X>X",
"-X<X-X_._.3X1X-X@X@X3X[.-X-X[.-X,X,X#X-X,X).8 & = o o U.,X,X,X,X-X@X@X-X_.3X-X@X1X[.1X_.-X@X#X,X,X,X",
"-X-X>X-X_.-X-X@X-X@X[.3X[.5X[.-X,X,X,X>X,X).P & & & = 8.,X,X,X,X@X@X-X@X-X@X@X@X_.1X_.1X@X@X-XOX,X%X",
"[.}.<X8X-X[.@X-X+X+X@X@X3X@X@X-X>X#X>X,X*X).q # - # & _ ,X,X,X,X-X-X_.-X-X-X-X-X#X-X-X-X-X-X-X#X%XOX",
"Q.W.(.-X-X@X_.-X+X+X2X@X@X-X3X_.#X>X#X,X*X).u # # # ; ) ,X,X,X,X-X-X-X-X[.-X-X_.-X-X#X#X-X#X-X-X%X+X",
"*.2.Q.].[._._.-X+X+X@X@X@X@X@X1X-X#X#X*X*X).7 - ; @ ; ' ,X,X,X,X_.-X-X-X@X@X-X-X-X@X-X-X#X-X#X-X+X+X",
"l W 3.(.[.-X@X-X+X+X+X+X1X@X@X@X>X#X*X*X#X/.: 4 * ; * } ,X,X,X,X-X-X_.-X-X-X-X-X#X-X#X-X-X-X#X-X:X,X",
"$.6.k `.[.8X8X#X+X@X+X@X+XOX+X@X%X%X%X%X%X!.4 - ; O 6 } ,X,X,X,X).-X4X-X-X4X4X-X-X-X-X-X#X#X#X#X:X:X",
"@.*.@.{.[.[.-X8X+X+X,X,XOX+X,X,X%X%X%X%X%XG.= - * * * R ,X,X,X,X-X-X#X_._.-X-X-X>X>X>X>X>X>X>X>X,X,X",
"@.=.F {.{.].].<X[.*X>X>X>X#X,X>X>X>X*X%X%Xq.= - * * * H @X#X,X,X#X-X-X#X-X4X9X9X-X#X#X#X#X@X_.[.>X>X",
"*.#.F W.{.<X*X#X*X*X*X*X*X#X#X#X%X>X>X>X%X_ 4 @ ; % * H ).,X,X,X_.-X8X-X-X_._._.-X-X-X8X4X9X9X9X*X%X",
"$.&.@.4.Q.{.].'.[.'.).[.[.<X}.[.#X%X%X%X%XY - # * > O u /.3X,X,X-X4X>X).U.0.0.0.J.J.!.^.).-X>X4X*X*X",
"F =.=.$.$.4.5.5.2.2.2.0.Q.`.}.<X#X#X%X%X%X} 4 * $ $ % u /.,X,X,X8X_.!.H.>.;.;.>.;.;.>.>.0.0.0.H.2.:.",
"#.&.=.#.k @.I $.I I $.$.6.5.`.{.#X#X#X#X%XR & ; * @ ; 6 U.,X,X,X-X!.0.>.>.>.>.,.,.,.,.,.>.>.>.>.2.0.",
"#.F &.&.*.*.%.%.$.%.%.I I $.4.Q.).).#X#X%XP > % * > * : G.,X,X,X-XJ.;.;.0.0.>.;.>.>.>.>.,.,.>.,.0.2.",
"#.&.&.&.&.&.F &.&.&.F 1.F 1.F 1.w.`.{.{.#XH X : 4 % # : <.OX:X1X`.3.2.2.:.2.:.2.2.2.2.2.2.2.2.2.:.2.",
"&.#.&.#.&.&.&.&.&.F &.F F F F 1.F 1.Q.`.#Xq 4 X , $ % # P +X:X4X~.3.3.2.:.2.:.2.2.2.2.2.2.2.2.2.2.2."
};
